SplineFontDB: 3.0
FontName: Oxygen
FullName: Oxygen
FamilyName: Oxygen
Weight: Book
Copyright: Copyright (c) 2011-12 by vernon adams. All rights reserved.
Version: Release 0.2.2 webfont
ItalicAngle: 0
UnderlinePosition: 0
UnderlineWidth: 0
Ascent: 1638
Descent: 410
sfntRevision: 0x00003333
LayerCount: 2
Layer: 0 1 "Back"  1
Layer: 1 1 "Fore"  0
XUID: [1021 161 1863723762 9721523]
FSType: 0
OS2Version: 1
OS2_WeightWidthSlopeOnly: 0
OS2_UseTypoMetrics: 1
CreationTime: 1335862711
ModificationTime: 1336069708
PfmFamily: 17
TTFWeight: 400
TTFWidth: 5
LineGap: 0
VLineGap: 0
Panose: 2 0 5 3 0 0 0 0 0 0
OS2TypoAscent: 1901
OS2TypoAOffset: 0
OS2TypoDescent: -483
OS2TypoDOffset: 0
OS2TypoLinegap: 0
OS2WinAscent: 1901
OS2WinAOffset: 0
OS2WinDescent: 483
OS2WinDOffset: 0
HheadAscent: 1901
HheadAOffset: 0
HheadDescent: -483
HheadDOffset: 0
OS2SubXSize: 1331
OS2SubYSize: 1433
OS2SubXOff: 0
OS2SubYOff: 286
OS2SupXSize: 1331
OS2SupYSize: 1433
OS2SupXOff: 0
OS2SupYOff: 983
OS2StrikeYSize: 102
OS2StrikeYPos: 530
OS2Vendor: 'newt'
OS2CodePages: 20000093.00000000
OS2UnicodeRanges: a00000ef.4000204b.00000000.00000000
Lookup: 4 0 1 "'liga' Standard Ligatures lookup 0"  {"'liga' Standard Ligatures lookup 0 subtable"  } ['liga' ('DFLT' <'dflt' > 'grek' <'dflt' > 'latn' <'dflt' > ) ]
Lookup: 258 0 0 "'kern' Horizontal Kerning in Latin lookup 0"  {"'kern' Horizontal Kerning in Latin lookup 0 per glyph data 0"  "'kern' Horizontal Kerning in Latin lookup 0 kerning class 1"  } ['kern' ('DFLT' <'dflt' > 'latn' <'dflt' > ) ]
MarkAttachClasses: 1
DEI: 91125
KernClass2: 23 23 "'kern' Horizontal Kerning in Latin lookup 0 kerning class 1" 
 81 A Agrave Aacute Acircumflex Atilde Adieresis Aring Abreve Amacron Aogonek uni0202
 1 B
 75 D O Q Ograve Oacute Ocircumflex Otilde Odieresis Oslash Eth uni020C uni020E
 1 F
 1 K
 1 L
 1 P
 9 T uni021A
 45 U Ugrave Uacute Ucircumflex Udieresis uni0216
 1 V
 1 W
 18 Y Ydieresis Yacute
 69 b o p ograve oacute ocircumflex otilde odieresis oslash thorn uni020F
 1 e

StartChar: .notdef
Encoding: 65536 -1 0
Width: 748
Flags: W
LayerCount: 2
Fore
SplineSet
68 0 m 1,0,-1
 68 1365 l 1,1,-1
 612 1365 l 1,2,-1
 612 0 l 1,3,-1
 68 0 l 1,0,-1
136 68 m 1,4,-1
 544 68 l 1,5,-1
 544 1297 l 1,6,-1
 136 1297 l 1,7,-1
 136 68 l 1,4,-1
EndSplineSet
EndChar

StartChar: exclam
Encoding: 33 33 4
Width: 586
GlyphClass: 2
Flags: W
LayerCount: 2
Fore
SplineSet
160 120 m 128,-1,1
 160 173 160 173 195.5 212.5 c 0,2,3
 232 252 232 252 294 252 c 128,-1,4
 356 252 356 252 391 213 c 128,-1,5
 426 174 426 174 426 120 c 128,-1,6
 426 66 426 66 391 27 c 128,-1,7
 356 -12 356 -12 294 -12 c 128,-1,8
 232 -12 232 -12 196 27.5 c 128,-1,0
 160 67 160 67 160 120 c 128,-1,1
391 1496 m 1,9,-1
 391 1354 l 1,10,-1
 335 435 l 1,11,-1
 256 435 l 1,12,-1
 194 1354 l 1,13,-1
 194 1496 l 1,14,-1
 391 1496 l 1,9,-1
EndSplineSet
EndChar

StartChar: quotedbl
Encoding: 34 34 5
Width: 710
GlyphClass: 2
Flags: W
LayerCount: 2
Fore
SplineSet
446 1016 m 1,0,-1
 425 1510 l 1,1,-1
 576 1510 l 1,2,-1
 547 1016 l 1,3,-1
 446 1016 l 1,0,-1
160 1016 m 1,4,-1
 139 1510 l 1,5,-1
 290 1510 l 1,6,-1
 261 1016 l 1,7,-1
 160 1016 l 1,4,-1
EndSplineSet
EndChar

StartChar: numbersign
Encoding: 35 35 6
Width: 1134
GlyphClass: 2
Flags: W
LayerCount: 2
Fore
SplineSet
1032 1055 m 1,0,-1
 1018 931 l 1,1,-1
 871 931 l 1,2,-1
 804 536 l 1,3,-1
 951 536 l 1,4,-1
 941 410 l 1,5,-1
 786 410 l 1,6,-1
 700 -23 l 1,7,-1
 549 -23 l 1,8,-1
 633 410 l 1,9,-1
 398 410 l 1,10,-1
 318 -23 l 1,11,-1
 189 -23 l 1,12,-1
 262 410 l 1,13,-1
 91 410 l 1,14,-1
 101 536 l 1,15,-1
 284 536 l 1,16,-1
 345 930 l 1,17,-1
 168 930 l 1,18,-1
 177 1055 l 1,19,-1
 370 1055 l 1,20,-1
 453 1462 l 1,21,-1
 606 1462 l 1,22,-1
 527 1055 l 1,23,-1
 761 1055 l 1,24,-1
 832 1462 l 1,25,-1
 960 1462 l 1,26,-1
 894 1055 l 1,27,-1
 1032 1055 l 1,0,-1
737 931 m 1,28,-1
 502 931 l 1,29,-1
 422 536 l 1,30,-1
 658 536 l 1,31,-1
 737 931 l 1,28,-1
EndSplineSet
EndChar

StartChar: dollar
Encoding: 36 36 7
Width: 1241
GlyphClass: 2
Flags: W
LayerCount: 2
Fore
SplineSet
580 1693 m 1,0,-1
 675 1693 l 1,1,-1
 675 1525 l 1,2,3
 930 1517 930 1517 1089 1418 c 1,4,-1
 1039 1277 l 1,5,6
 978 1311 978 1311 878.5 1338.5 c 128,-1,7
 779 1366 779 1366 675 1371 c 1,8,-1
 675 863 l 1,9,-1
 779 838 l 2,10,11
 959 795 959 795 1052 700.5 c 128,-1,12
 1145 606 1145 606 1145 432 c 0,13,14
 1145 217 1145 217 1019.5 103 c 128,-1,15
 894 -11 894 -11 675 -22 c 1,16,-1
 675 -195 l 1,17,-1
 580 -195 l 1,18,-1
 580 -22 l 1,19,20
 420 -17 420 -17 294.5 18.5 c 128,-1,21
 169 54 169 54 94 100 c 1,22,-1
 146 244 l 1,23,24
 348 145 348 145 580 132 c 1,25,-1
 580 712 l 1,26,-1
 433 749 l 2,27,28
 96 834 96 834 96 1109 c 0,29,30
 96 1306 96 1306 224 1408.5 c 128,-1,31
 352 1511 352 1511 580 1523 c 1,32,-1
 580 1693 l 1,0,-1
580 886 m 1,33,-1
 580 1370 l 1,34,35
 276 1352 276 1352 276 1121 c 0,36,37
 276 1036 276 1036 331.5 984.5 c 128,-1,38
 387 933 387 933 498 906 c 2,39,-1
 580 886 l 1,33,-1
675 688 m 1,40,-1
 675 131 l 1,41,42
 966 146 966 146 966 426 c 0,43,44
 966 522 966 522 914.5 581.5 c 128,-1,45
 863 641 863 641 727 675 c 2,46,-1
 675 688 l 1,40,-1
EndSplineSet
EndChar

StartChar: percent
Encoding: 37 37 8
Width: 1877
GlyphClass: 2
Flags: W
LayerCount: 2
Fore
SplineSet
1172 646 m 128,-1,1
 1265 754 1265 754 1432.5 754 c 128,-1,2
 1600 754 1600 754 1692 647.5 c 128,-1,3
 1784 541 1784 541 1784 371 c 128,-1,4
 1784 201 1784 201 1690.5 93 c 128,-1,5
 1597 -15 1597 -15 1430 -15 c 128,-1,6
 1263 -15 1263 -15 1171 92.5 c 128,-1,7
 1079 200 1079 200 1079 369 c 128,-1,0
 1079 538 1079 538 1172 646 c 128,-1,1
1431 640 m 128,-1,9
 1324 640 1324 640 1264.5 561 c 128,-1,10
 1205 482 1205 482 1205 368 c 128,-1,11
 1205 254 1205 254 1264.5 176 c 128,-1,12
 1324 98 1324 98 1431 98 c 128,-1,13
 1538 98 1538 98 1597.5 177 c 128,-1,14
 1657 256 1657 256 1657 370 c 128,-1,15
 1657 484 1657 484 1597.5 562 c 128,-1,8
 1538 640 1538 640 1431 640 c 128,-1,9
401 -4 m 1,16,-1
 1196 1462 l 1,17,-1
 1358 1462 l 1,18,-1
 536 -4 l 1,19,-1
 401 -4 l 1,16,-1
189.5 1380 m 128,-1,21
 276 1489 276 1489 420.5 1489 c 128,-1,22
 565 1489 565 1489 652.5 1380.5 c 128,-1,23
 740 1272 740 1272 740 1106 c 128,-1,24
 740 940 740 940 652 834 c 128,-1,25
 564 728 564 728 419.5 728 c 128,-1,26
 275 728 275 728 189 833.5 c 128,-1,27
 103 939 103 939 103 1105 c 128,-1,20
 103 1271 103 1271 189.5 1380 c 128,-1,21
560 1298.5 m 128,-1,29
 509 1378 509 1378 419.5 1378 c 128,-1,30
 330 1378 330 1378 280 1298 c 128,-1,31
 230 1218 230 1218 230 1103.5 c 128,-1,32
 230 989 230 989 279.5 916.5 c 128,-1,33
 329 844 329 844 420 844 c 128,-1,34
 511 844 511 844 561 918.5 c 128,-1,35
 611 993 611 993 611 1106 c 128,-1,28
 611 1219 611 1219 560 1298.5 c 128,-1,29
EndSplineSet
EndChar

StartChar: ampersand
Encoding: 38 38 9
Width: 1477
GlyphClass: 2
Flags: W
LayerCount: 2
Fore
SplineSet
441 839 m 1,0,1
 348 940 348 940 308 1008 c 128,-1,2
 268 1076 268 1076 268 1165 c 0,3,4
 268 1314 268 1314 373.5 1401.5 c 128,-1,5
 479 1489 479 1489 657 1489 c 0,6,7
 884 1488 884 1488 990 1352 c 0,8,9
 1046 1280 1046 1280 1046 1199 c 128,-1,10
 1046 1118 1046 1118 1020.5 1061.5 c 0,11,12
 994 1005 994 1005 946 959 c 0,13,14
 854 872 854 872 707 804 c 1,15,-1
 1108 375 l 1,16,17
 1188 459 1188 459 1250 599 c 1,18,-1
 1371 507 l 1,19,20
 1309 371 1309 371 1212 257 c 1,21,-1
 1393 41 l 1,22,23
 1319 13 1319 13 1236 -11 c 1,24,-1
 1100 143 l 1,25,26
 894 -23 894 -23 630.5 -23 c 128,-1,27
 367 -23 367 -23 235.5 87.5 c 128,-1,28
 104 198 104 198 104 395 c 0,29,30
 104 548 104 548 190.5 652 c 128,-1,31
 277 756 277 756 441 839 c 1,0,1
985 259 m 1,32,-1
 544 726 l 1,33,34
 418 662 418 662 349.5 586 c 128,-1,35
 281 510 281 510 281 393.5 c 128,-1,36
 281 277 281 277 373 204.5 c 128,-1,37
 465 132 465 132 645 132 c 128,-1,38
 825 132 825 132 985 259 c 1,32,-1
801 1299.5 m 128,-1,40
 744 1345 744 1345 655.5 1345 c 128,-1,41
 567 1345 567 1345 511 1297.5 c 128,-1,42
 455 1250 455 1250 455 1173.5 c 128,-1,43
 455 1097 455 1097 491.5 1040.5 c 128,-1,44
 528 984 528 984 605 910 c 1,45,46
 800 1006 800 1006 840 1087 c 0,47,48
 858 1125 858 1125 858 1171 c 0,49,39
 858 1254 858 1254 801 1299.5 c 128,-1,40
EndSplineSet
EndChar

StartChar: quotesingle
Encoding: 39 39 10
Width: 423
GlyphClass: 2
Flags: W
LayerCount: 2
Fore
SplineSet
283 1486 m 1,0,-1
 263 975 l 1,1,-1
 148 975 l 1,2,-1
 127 1486 l 1,3,-1
 283 1486 l 1,0,-1
EndSplineSet
EndChar

StartChar: parenleft
Encoding: 40 40 11
Width: 609
GlyphClass: 2
Flags: W
LayerCount: 2
Fore
SplineSet
103 598 m 0,0,1
 103 1088 103 1088 376 1486 c 1,2,-1
 531 1486 l 1,3,4
 273 1084 273 1084 273 602 c 0,5,6
 273 376 273 376 341 146 c 128,-1,7
 409 -84 409 -84 531 -271 c 1,8,-1
 378 -271 l 1,9,10
 249 -92 249 -92 176 132.5 c 128,-1,11
 103 357 103 357 103 598 c 0,0,1
EndSplineSet
EndChar

StartChar: parenright
Encoding: 41 41 12
Width: 609
GlyphClass: 2
Flags: W
LayerCount: 2
Fore
SplineSet
506 598 m 0,0,1
 506 357 506 357 433 133 c 128,-1,2
 360 -91 360 -91 230 -271 c 1,3,-1
 78 -271 l 1,4,5
 200 -84 200 -84 268 146 c 128,-1,6
 336 376 336 376 336 602 c 0,7,8
 336 1082 336 1082 77 1486 c 1,9,-1
 232 1486 l 1,10,11
 506 1082 506 1082 506 598 c 0,0,1
EndSplineSet
EndChar

StartChar: asterisk
Encoding: 42 42 13
Width: 1105
GlyphClass: 2
Flags: W
LayerCount: 2
Fore
SplineSet
901 675 m 1,0,-1
 747 581 l 1,1,-1
 547 943 l 1,2,-1
 358 581 l 1,3,-1
 202 675 l 1,4,-1
 450 1008 l 1,5,-1
 87 1091 l 1,6,-1
 137 1262 l 1,7,-1
 494 1111 l 1,8,-1
 457 1522 l 1,9,-1
 643 1522 l 1,10,-1
 607 1111 l 1,11,-1
 966 1262 l 1,12,-1
 1016 1091 l 1,13,-1
 649 1008 l 1,14,-1
 901 675 l 1,0,-1
EndSplineSet
EndChar

StartChar: plus
Encoding: 43 43 14
Width: 1126
GlyphClass: 2
Flags: W
LayerCount: 2
Fore
SplineSet
637 718 m 1,0,-1
 1027 718 l 1,1,-1
 1027 582 l 1,2,-1
 636 582 l 1,3,-1
 636 153 l 1,4,-1
 499 153 l 1,5,-1
 499 582 l 1,6,-1
 102 582 l 1,7,-1
 102 718 l 1,8,-1
 500 718 l 1,9,-1
 500 1142 l 1,10,-1
 637 1142 l 1,11,-1
 637 718 l 1,0,-1
EndSplineSet
EndChar

StartChar: comma
Encoding: 44 44 15
Width: 505
GlyphClass: 2
Flags: W
LayerCount: 2
Fore
SplineSet
109 -278 m 1,0,1
 112 -248 112 -248 126 -124 c 0,2,3
 152 100 152 100 161 234 c 1,4,-1
 358 234 l 1,5,-1
 358 190 l 1,6,7
 309 -8 309 -8 214 -278 c 1,8,-1
 109 -278 l 1,0,1
EndSplineSet
EndChar

StartChar: hyphen
Encoding: 45 45 16
Width: 672
GlyphClass: 2
Flags: W
LayerCount: 2
Fore
SplineSet
86 497 m 1,0,-1
 86 644 l 1,1,-1
 586 644 l 1,2,-1
 586 497 l 1,3,-1
 86 497 l 1,0,-1
EndSplineSet
EndChar

StartChar: period
Encoding: 46 46 17
Width: 494
GlyphClass: 2
Flags: W
LayerCount: 2
Fore
SplineSet
359 27 m 128,-1,1
 324 -12 324 -12 261.5 -12 c 128,-1,2
 199 -12 199 -12 163.5 27.5 c 128,-1,3
 128 67 128 67 128 120.5 c 128,-1,4
 128 174 128 174 163 213 c 128,-1,5
 198 252 198 252 261 252 c 128,-1,6
 324 252 324 252 359 213 c 128,-1,7
 394 174 394 174 394 120 c 128,-1,0
 394 66 394 66 359 27 c 128,-1,1
EndSplineSet
EndChar

StartChar: slash
Encoding: 47 47 18
Width: 952
GlyphClass: 2
Flags: W
LayerCount: 2
Fore
SplineSet
194 -218 m 1,0,-1
 50 -218 l 1,1,-1
 726 1466 l 1,2,-1
 872 1466 l 1,3,-1
 194 -218 l 1,0,-1
EndSplineSet
EndChar

StartChar: zero
Encoding: 48 48 19
Width: 1241
GlyphClass: 2
Flags: W
LayerCount: 2
Fore
SplineSet
622 -23 m 1,0,1
 489 -23 489 -23 389 35.5 c 0,2,3
 288 94 288 94 228 200 c 0,4,5
 108 409 108 409 109 751 c 0,6,7
 108 1184 108 1184 290 1385 c 0,8,9
 416 1525 416 1525 622 1525 c 0,10,11
 880 1526 880 1526 1008 1310 c 0,12,13
 1132 1102 1132 1102 1132 751 c 0,14,15
 1132 408 1132 408 1014 200 c 0,16,17
 888 -23 888 -23 622 -23 c 1,0,1
622 1373 m 0,18,19
 520 1372 520 1372 447 1292 c 0,20,21
 301 1131 301 1131 301 757 c 0,22,23
 301 375 301 375 447 211 c 0,24,25
 520 129 520 129 622 129 c 128,-1,26
 724 129 724 129 797 211 c 0,27,28
 943 375 943 375 943 757 c 0,29,30
 943 1130 943 1130 797 1292 c 0,31,32
 724 1372 724 1372 622 1373 c 0,18,19
EndSplineSet
EndChar

StartChar: one
Encoding: 49 49 20
Width: 626
GlyphClass: 2
Flags: W
LayerCount: 2
Fore
SplineSet
302 1496 m 1,0,-1
 461 1496 l 1,1,-1
 461 0 l 1,2,-1
 284 0 l 1,3,-1
 284 1311 l 1,4,5
 183 1245 183 1245 37 1198 c 1,6,-1
 37 1365 l 1,7,8
 53 1372 53 1372 102 1393 c 0,9,10
 152 1414 152 1414 176 1425 c 0,11,12
 248 1458 248 1458 302 1496 c 1,0,-1
EndSplineSet
EndChar

StartChar: two
Encoding: 50 50 21
Width: 1116
GlyphClass: 2
Flags: W
LayerCount: 2
Fore
SplineSet
113 0 m 1,0,-1
 90 164 l 1,1,-1
 607 738 l 2,2,3
 659 796 659 796 707.5 888 c 128,-1,4
 756 980 756 980 778 1044 c 1,5,-1
 801 1107 l 1,6,7
 801 1231 801 1231 732 1299.5 c 128,-1,8
 663 1368 663 1368 536 1368 c 0,9,10
 324 1368 324 1368 202 1245 c 1,11,-1
 144 1395 l 1,12,13
 282 1525 282 1525 548 1525 c 0,14,15
 752 1525 752 1525 873 1414.5 c 128,-1,16
 994 1304 994 1304 994 1119 c 1,17,18
 938 923 938 923 818 727 c 0,19,20
 774 654 774 654 728 605 c 2,21,-1
 306 154 l 1,22,-1
 999 154 l 1,23,-1
 988 0 l 1,24,-1
 113 0 l 1,0,-1
EndSplineSet
EndChar

StartChar: three
Encoding: 51 51 22
Width: 1103
GlyphClass: 2
Flags: W
LayerCount: 2
Fore
SplineSet
496 1373 m 0,0,1
 296 1373 296 1373 161 1266 c 1,2,-1
 105 1412 l 1,3,4
 254 1525 254 1525 534 1525 c 0,5,6
 779 1524 779 1524 901 1356 c 0,7,8
 963 1270 963 1270 963 1143 c 128,-1,9
 963 1016 963 1016 894 926 c 128,-1,10
 825 836 825 836 700 797 c 1,11,12
 840 767 840 767 919.5 666 c 128,-1,13
 999 565 999 565 999 410 c 0,14,15
 999 213 999 213 858 95 c 128,-1,16
 717 -23 717 -23 496 -23 c 0,17,18
 362 -23 362 -23 257.5 12 c 128,-1,19
 153 47 153 47 105 93 c 1,20,-1
 161 240 l 1,21,22
 302 129 302 129 497 129 c 0,23,24
 647 129 647 129 735.5 203.5 c 128,-1,25
 824 278 824 278 824 412 c 0,26,27
 824 620 824 620 646 682 c 0,28,29
 545 718 545 718 383 721 c 1,30,-1
 323 722 l 1,31,-1
 323 871 l 1,32,-1
 373 871 l 1,33,34
 601 874 601 874 692 947 c 0,35,36
 771 1010 771 1010 771 1133 c 0,37,38
 771 1373 771 1373 496 1373 c 0,0,1
EndSplineSet
EndChar

StartChar: four
Encoding: 52 52 23
Width: 1211
GlyphClass: 2
Flags: W
LayerCount: 2
Fore
SplineSet
1122 371 m 1,0,-1
 952 371 l 1,1,-1
 952 0 l 1,2,-1
 784 0 l 1,3,-1
 784 371 l 1,4,-1
 108 371 l 1,5,-1
 108 524 l 1,6,-1
 765 1496 l 1,7,-1
 952 1496 l 1,8,-1
 952 516 l 1,9,-1
 1136 516 l 1,10,-1
 1122 371 l 1,0,-1
784 1269 m 1,11,-1
 284 516 l 1,12,-1
 784 516 l 1,13,-1
 784 1269 l 1,11,-1
EndSplineSet
EndChar

StartChar: five
Encoding: 53 53 24
Width: 1177
GlyphClass: 2
Flags: W
LayerCount: 2
Fore
SplineSet
1004 1496 m 1,0,-1
 990 1332 l 1,1,-1
 379 1332 l 1,2,3
 369 1041 369 1041 364 861 c 1,4,5
 477 933 477 933 598.5 933 c 128,-1,6
 720 933 720 933 807.5 897.5 c 0,7,8
 894 862 894 862 950 800 c 0,9,10
 1064 673 1064 673 1064 461.5 c 128,-1,11
 1064 250 1064 250 918.5 113.5 c 128,-1,12
 773 -23 773 -23 522.5 -23 c 128,-1,13
 272 -23 272 -23 121 114 c 1,14,-1
 186 255 l 1,15,16
 334 139 334 139 513.5 139 c 128,-1,17
 693 139 693 139 788 232 c 128,-1,18
 883 325 883 325 883 467 c 128,-1,19
 883 609 883 609 803 692.5 c 128,-1,20
 723 776 723 776 575 776 c 128,-1,21
 427 776 427 776 337 677 c 1,22,-1
 198 696 l 1,23,-1
 237 1496 l 1,24,-1
 1004 1496 l 1,0,-1
EndSplineSet
EndChar

StartChar: six
Encoding: 54 54 25
Width: 1199
GlyphClass: 2
Flags: W
LayerCount: 2
Fore
SplineSet
412 861 m 1,0,1
 525 921 525 921 644 921 c 128,-1,2
 763 921 763 921 870 861.5 c 128,-1,3
 977 802 977 802 1042 692.5 c 128,-1,4
 1107 583 1107 583 1107 449 c 0,5,6
 1107 245 1107 245 969.5 111 c 128,-1,7
 832 -23 832 -23 607 -23 c 0,8,9
 490 -23 490 -23 393.5 16.5 c 0,10,11
 296 56 296 56 234 124 c 0,12,13
 102 266 102 266 103 472 c 0,14,15
 103 635 103 635 162.5 763.5 c 128,-1,16
 222 892 222 892 378 1089 c 0,17,18
 485 1225 485 1225 644 1413 c 1,19,-1
 707 1489 l 1,20,-1
 938 1489 l 1,21,-1
 412 861 l 1,0,1
292 453 m 0,22,23
 292 262 292 262 430 174 c 0,24,25
 502 128 502 128 601 129 c 0,26,27
 749 129 749 129 833.5 220 c 128,-1,28
 918 311 918 311 918 449.5 c 128,-1,29
 918 588 918 588 833.5 679.5 c 128,-1,30
 749 771 749 771 596.5 771 c 128,-1,31
 444 771 444 771 368 682 c 128,-1,32
 292 593 292 593 292 453 c 0,22,23
EndSplineSet
EndChar

StartChar: seven
Encoding: 55 55 26
Width: 1052
GlyphClass: 2
Flags: W
LayerCount: 2
Fore
SplineSet
261 0 m 1,0,-1
 775 1341 l 1,1,-1
 100 1341 l 1,2,-1
 111 1496 l 1,3,-1
 978 1496 l 1,4,-1
 978 1360 l 1,5,-1
 443 0 l 1,6,-1
 261 0 l 1,0,-1
EndSplineSet
EndChar

StartChar: eight
Encoding: 56 56 27
Width: 1182
GlyphClass: 2
Flags: W
LayerCount: 2
Fore
SplineSet
1049 1148 m 0,0,1
 1049 890 1049 890 791 788 c 1,2,3
 926 740 926 740 1003 634 c 128,-1,4
 1080 528 1080 528 1080 385 c 0,5,6
 1080 193 1080 193 941.5 85 c 128,-1,7
 803 -23 803 -23 594 -23 c 0,8,9
 305 -23 305 -23 171 162 c 0,10,11
 103 256 103 256 103 392 c 128,-1,12
 103 528 103 528 185 634 c 128,-1,13
 267 740 267 740 414 788 c 1,14,15
 134 887 134 887 134 1148 c 0,16,17
 134 1325 134 1325 262 1425 c 128,-1,18
 390 1525 390 1525 593.5 1525 c 128,-1,19
 797 1525 797 1525 923 1425 c 128,-1,20
 1049 1325 1049 1325 1049 1148 c 0,0,1
594 703 m 1,21,22
 451 670 451 670 365 592.5 c 128,-1,23
 279 515 279 515 279 394.5 c 128,-1,24
 279 274 279 274 368 201.5 c 128,-1,25
 457 129 457 129 594 129 c 128,-1,26
 731 129 731 129 817.5 201.5 c 128,-1,27
 904 274 904 274 904 395 c 128,-1,28
 904 516 904 516 820 593.5 c 128,-1,29
 736 671 736 671 594 703 c 1,21,22
792 1314 m 128,-1,31
 711 1373 711 1373 593.5 1373 c 128,-1,32
 476 1373 476 1373 393.5 1314 c 128,-1,33
 311 1255 311 1255 311 1152 c 0,34,35
 311 916 311 916 594 853 c 1,36,37
 873 916 873 916 873 1152 c 0,38,30
 873 1255 873 1255 792 1314 c 128,-1,31
EndSplineSet
EndChar

StartChar: nine
Encoding: 57 57 28
Width: 1165
GlyphClass: 2
Flags: W
LayerCount: 2
Fore
SplineSet
781 658 m 1,0,1
 668 598 668 598 548.5 598 c 128,-1,2
 429 598 429 598 322.5 653.5 c 128,-1,3
 216 709 216 709 151 814 c 128,-1,4
 86 919 86 919 86 1053 c 0,5,6
 86 1257 86 1257 226 1391 c 128,-1,7
 366 1525 366 1525 592 1525 c 0,8,9
 830 1524 830 1524 962 1384 c 0,10,11
 1090 1247 1090 1247 1090 1042 c 0,12,13
 1090 899 1090 899 1041 783 c 128,-1,14
 992 667 992 667 910 557 c 0,15,16
 786 389 786 389 549 98 c 1,17,-1
 470 0 l 1,18,-1
 250 0 l 1,19,-1
 781 658 l 1,0,1
825.5 835 m 128,-1,21
 901 922 901 922 901 1060 c 128,-1,22
 901 1198 901 1198 823.5 1285.5 c 128,-1,23
 746 1373 746 1373 597.5 1373 c 128,-1,24
 449 1373 449 1373 362 1281.5 c 128,-1,25
 275 1190 275 1190 275 1053 c 128,-1,26
 275 916 275 916 359 832 c 128,-1,27
 443 748 443 748 596.5 748 c 128,-1,20
 750 748 750 748 825.5 835 c 128,-1,21
EndSplineSet
EndChar

StartChar: colon
Encoding: 58 58 29
Width: 494
GlyphClass: 2
Flags: W
LayerCount: 2
Fore
SplineSet
146 893 m 1,0,-1
 146 1124 l 1,1,-1
 352 1124 l 1,2,-1
 352 893 l 1,3,-1
 146 893 l 1,0,-1
146 -25 m 1,4,-1
 146 208 l 1,5,-1
 352 208 l 1,6,-1
 352 -25 l 1,7,-1
 146 -25 l 1,4,-1
EndSplineSet
EndChar

StartChar: semicolon
Encoding: 59 59 30
Width: 518
GlyphClass: 2
Flags: W
LayerCount: 2
Fore
SplineSet
174 893 m 1,0,-1
 174 1124 l 1,1,-1
 380 1124 l 1,2,-1
 380 893 l 1,3,-1
 174 893 l 1,0,-1
376 197 m 1,4,-1
 251 -310 l 1,5,-1
 138 -310 l 1,6,-1
 194 197 l 1,7,-1
 376 197 l 1,4,-1
EndSplineSet
EndChar

StartChar: less
Encoding: 60 60 31
Width: 1175
GlyphClass: 2
Flags: W
LayerCount: 2
Fore
SplineSet
1061 146 m 1,0,-1
 103 605 l 1,1,-1
 103 702 l 1,2,-1
 1063 1195 l 1,3,-1
 1063 1037 l 1,4,-1
 288 658 l 1,5,-1
 1061 304 l 1,6,-1
 1061 146 l 1,0,-1
EndSplineSet
EndChar

StartChar: equal
Encoding: 61 61 32
Width: 1228
GlyphClass: 2
Flags: W
LayerCount: 2
Fore
SplineSet
132 377 m 1,0,-1
 132 519 l 1,1,-1
 1097 519 l 1,2,-1
 1097 377 l 1,3,-1
 132 377 l 1,0,-1
131 799 m 1,4,-1
 131 943 l 1,5,-1
 1097 943 l 1,6,-1
 1097 799 l 1,7,-1
 131 799 l 1,4,-1
EndSplineSet
EndChar

StartChar: greater
Encoding: 62 62 33
Width: 1176
GlyphClass: 2
Flags: W
LayerCount: 2
Fore
SplineSet
115 311 m 1,0,-1
 889 658 l 1,1,-1
 117 1044 l 1,2,-1
 117 1200 l 1,3,-1
 1075 701 l 1,4,-1
 1075 604 l 1,5,-1
 115 152 l 1,6,-1
 115 311 l 1,0,-1
EndSplineSet
EndChar

StartChar: question
Encoding: 63 63 34
Width: 865
GlyphClass: 2
Flags: W
LayerCount: 2
Fore
SplineSet
404 435 m 1,0,-1
 317 435 l 1,1,2
 317 552 317 552 418 744 c 0,3,4
 460 824 460 824 502 902 c 0,5,6
 602 1090 602 1090 602 1185 c 0,7,8
 602 1281 602 1281 541 1327 c 0,9,10
 481 1373 481 1373 364.5 1373 c 128,-1,11
 248 1373 248 1373 118 1292 c 1,12,-1
 73 1427 l 1,13,14
 196 1524 196 1524 381 1524 c 128,-1,15
 566 1524 566 1524 665.5 1438.5 c 128,-1,16
 765 1353 765 1353 765 1200 c 0,17,18
 765 1056 765 1056 680 908 c 0,19,20
 640 838 640 838 596 772 c 0,21,22
 472 586 472 586 404 435 c 1,0,-1
242 120 m 128,-1,24
 242 173 242 173 277.5 212.5 c 128,-1,25
 313 252 313 252 375.5 252 c 128,-1,26
 438 252 438 252 473 213 c 128,-1,27
 508 174 508 174 508 120 c 128,-1,28
 508 66 508 66 473 27 c 128,-1,29
 438 -12 438 -12 375.5 -12 c 128,-1,30
 313 -12 313 -12 277.5 27.5 c 128,-1,23
 242 67 242 67 242 120 c 128,-1,24
EndSplineSet
EndChar

StartChar: at
Encoding: 64 64 35
Width: 1814
GlyphClass: 2
Flags: W
LayerCount: 2
Fore
SplineSet
1703 784 m 0,0,1
 1703 667 1703 667 1667.5 566 c 128,-1,2
 1632 465 1632 465 1574 399 c 0,3,4
 1450 259 1450 259 1290 259 c 1,5,6
 1209 259 1209 259 1155 304 c 128,-1,7
 1101 349 1101 349 1090 430 c 1,8,9
 1045 366 1045 366 977 317 c 128,-1,10
 909 268 909 268 822 268 c 0,11,12
 692 268 692 268 615 361.5 c 128,-1,13
 538 455 538 455 538 616 c 0,14,15
 538 823 538 823 649.5 961 c 128,-1,16
 761 1099 761 1099 956 1099 c 0,17,18
 1099 1099 1099 1099 1260 1044 c 1,19,20
 1253 994 1253 994 1238.5 899.5 c 128,-1,21
 1224 805 1224 805 1216 751 c 0,22,23
 1194 596 1194 596 1195 523 c 0,24,25
 1195 381 1195 381 1306 381 c 0,26,27
 1407 381 1407 381 1489.5 501.5 c 128,-1,28
 1572 622 1572 622 1572 791 c 0,29,30
 1572 1056 1572 1056 1396.5 1212 c 128,-1,31
 1221 1368 1221 1368 942 1368 c 0,32,33
 741 1368 741 1368 581.5 1275 c 128,-1,34
 422 1182 422 1182 333.5 1018 c 128,-1,35
 245 854 245 854 245 649 c 0,36,37
 245 343 245 343 419.5 169 c 128,-1,38
 594 -5 594 -5 886 -5 c 0,39,40
 1135 -5 1135 -5 1332 108 c 1,41,-1
 1367 -3 l 1,42,43
 1177 -131 1177 -131 885 -131 c 0,44,45
 535 -131 535 -131 323 78 c 128,-1,46
 111 287 111 287 111 645 c 0,47,48
 111 823 111 823 173.5 980 c 128,-1,49
 236 1137 236 1137 345.5 1249.5 c 128,-1,50
 455 1362 455 1362 612 1427 c 128,-1,51
 769 1492 769 1492 967 1492 c 128,-1,52
 1165 1492 1165 1492 1335 1406 c 128,-1,53
 1505 1320 1505 1320 1604 1158 c 128,-1,54
 1703 996 1703 996 1703 784 c 0,0,1
709 794.5 m 128,-1,56
 680 713 680 713 680 611.5 c 128,-1,57
 680 510 680 510 720.5 453 c 128,-1,58
 761 396 761 396 854 396 c 0,59,60
 1035 396 1035 396 1077 730 c 0,61,62
 1086 801 1086 801 1103 958 c 1,63,64
 1046 978 1046 978 955.5 978 c 128,-1,65
 865 978 865 978 801.5 927 c 128,-1,55
 738 876 738 876 709 794.5 c 128,-1,56
EndSplineSet
EndChar

StartChar: A
Encoding: 65 65 36
Width: 1302
GlyphClass: 2
Flags: W
LayerCount: 2
Fore
SplineSet
892 614 m 1,0,1
 681 1227 681 1227 659 1303 c 1,2,-1
 416 614 l 1,3,-1
 892 614 l 1,0,1
1121 0 m 1,4,-1
 948 469 l 1,5,-1
 358 469 l 1,6,-1
 179 0 l 1,7,-1
 3 0 l 1,8,-1
 571 1482 l 1,9,-1
 748 1482 l 1,10,-1
 1299 0 l 1,11,-1
 1121 0 l 1,4,-1
EndSplineSet
EndChar

StartChar: B
Encoding: 66 66 37
Width: 1286
GlyphClass: 2
Flags: W
LayerCount: 2
Fore
SplineSet
347 704 m 1,0,-1
 347 142 l 1,1,-1
 656 142 l 2,2,3
 844 142 844 142 938 211.5 c 128,-1,4
 1032 281 1032 281 1032 431 c 128,-1,5
 1032 581 1032 581 930.5 642.5 c 128,-1,6
 829 704 829 704 614 704 c 2,7,-1
 347 704 l 1,0,-1
347 843 m 1,8,-1
 664 843 l 2,9,10
 819 843 819 843 898 897 c 128,-1,11
 977 951 977 951 977 1089.5 c 128,-1,12
 977 1228 977 1228 882.5 1280.5 c 128,-1,13
 788 1333 788 1333 589 1333 c 2,14,-1
 347 1333 l 1,15,-1
 347 843 l 1,8,-1
174 1479 m 1,16,-1
 598 1479 l 2,17,18
 883 1479 883 1479 1020.5 1392 c 128,-1,19
 1158 1305 1158 1305 1158 1115 c 0,20,21
 1158 938 1158 938 1024 840 c 0,22,23
 976 804 976 804 910 783 c 1,24,25
 1059 755 1059 755 1136 657 c 128,-1,26
 1213 559 1213 559 1213 421 c 0,27,28
 1213 220 1213 220 1081.5 110 c 128,-1,29
 950 0 950 0 690 0 c 2,30,-1
 174 0 l 1,31,-1
 174 1479 l 1,16,-1
EndSplineSet
EndChar

StartChar: C
Encoding: 67 67 38
Width: 1290
GlyphClass: 2
Flags: W
LayerCount: 2
Fore
SplineSet
1173 1253 m 1,0,1
 1009 1352 1009 1352 832.5 1352 c 128,-1,2
 656 1352 656 1352 536 1271 c 0,3,4
 298 1111 298 1111 297 738 c 0,5,6
 297 468 297 468 425 304 c 0,7,8
 560 131 560 131 827 130 c 0,9,10
 998 130 998 130 1181 219 c 1,11,-1
 1210 72 l 1,12,13
 1061 -22 1061 -22 807 -22 c 0,14,15
 470 -22 470 -22 288 190 c 0,16,17
 112 397 112 397 112 745 c 0,18,19
 112 1082 112 1082 300 1292 c 0,20,21
 390 1392 390 1392 523.5 1448 c 128,-1,22
 657 1504 657 1504 821 1504 c 0,23,24
 1070 1504 1070 1504 1241 1394 c 1,25,-1
 1173 1253 l 1,0,1
EndSplineSet
EndChar

StartChar: D
Encoding: 68 68 39
Width: 1502
GlyphClass: 2
Flags: W
LayerCount: 2
Fore
SplineSet
1052.5 298.5 m 128,-1,1
 1205 446 1205 446 1205 746 c 128,-1,2
 1205 1046 1205 1046 1045 1187 c 128,-1,3
 885 1328 885 1328 579 1328 c 2,4,-1
 347 1328 l 1,5,-1
 347 151 l 1,6,-1
 608 151 l 2,7,0
 900 151 900 151 1052.5 298.5 c 128,-1,1
1185 190 m 128,-1,9
 980 0 980 0 613 0 c 2,10,-1
 174 0 l 1,11,-1
 174 1479 l 1,12,-1
 584 1479 l 2,13,14
 954 1480 954 1480 1168 1304 c 0,15,16
 1390 1122 1390 1122 1390 751 c 128,-1,8
 1390 380 1390 380 1185 190 c 128,-1,9
EndSplineSet
EndChar

StartChar: E
Encoding: 69 69 40
Width: 1143
GlyphClass: 2
Flags: W
LayerCount: 2
Fore
SplineSet
174 0 m 1,0,-1
 174 1479 l 1,1,-1
 1022 1479 l 1,2,-1
 1015 1326 l 1,3,-1
 347 1326 l 1,4,-1
 347 842 l 1,5,-1
 982 842 l 1,6,-1
 982 691 l 1,7,-1
 347 691 l 1,8,-1
 347 153 l 1,9,-1
 1037 153 l 1,10,-1
 1029 0 l 1,11,-1
 174 0 l 1,0,-1
EndSplineSet
EndChar

StartChar: F
Encoding: 70 70 41
Width: 1041
GlyphClass: 2
Flags: W
LayerCount: 2
Fore
SplineSet
347 0 m 1,0,-1
 174 0 l 1,1,-1
 174 1479 l 1,2,-1
 995 1479 l 1,3,-1
 988 1326 l 1,4,-1
 347 1326 l 1,5,-1
 347 807 l 1,6,-1
 958 807 l 1,7,-1
 958 660 l 1,8,-1
 347 660 l 1,9,-1
 347 0 l 1,0,-1
EndSplineSet
EndChar

StartChar: G
Encoding: 71 71 42
Width: 1461
GlyphClass: 2
Flags: W
LayerCount: 2
Fore
SplineSet
1087.5 3.5 m 128,-1,1
 970 -22 970 -22 810 -22 c 128,-1,2
 650 -22 650 -22 515.5 34.5 c 0,3,4
 382 90 382 90 294 192 c 0,5,6
 114 401 114 401 113 738 c 0,7,8
 113 962 113 962 198 1134 c 128,-1,9
 283 1306 283 1306 451 1405 c 128,-1,10
 619 1504 619 1504 861.5 1504 c 128,-1,11
 1104 1504 1104 1504 1297 1388 c 1,12,-1
 1231 1245 l 1,13,14
 1045 1352 1045 1352 851 1352 c 0,15,16
 580 1352 580 1352 436 1176 c 0,17,18
 298 1007 298 1007 297.5 731.5 c 128,-1,19
 297 456 297 456 437.5 292.5 c 128,-1,20
 578 129 578 129 852 129 c 0,21,22
 1008 129 1008 129 1169 192 c 1,23,-1
 1169 614 l 1,24,-1
 820 614 l 1,25,-1
 826 765 l 1,26,-1
 1331 765 l 1,27,-1
 1331 89 l 1,28,0
 1205 29 1205 29 1087.5 3.5 c 128,-1,1
EndSplineSet
EndChar

StartChar: H
Encoding: 72 72 43
Width: 1488
GlyphClass: 2
Flags: W
LayerCount: 2
Fore
SplineSet
1314 0 m 1,0,-1
 1141 0 l 1,1,-1
 1141 692 l 1,2,-1
 347 692 l 1,3,-1
 347 0 l 1,4,-1
 174 0 l 1,5,-1
 174 1479 l 1,6,-1
 347 1479 l 1,7,-1
 347 844 l 1,8,-1
 1141 844 l 1,9,-1
 1141 1479 l 1,10,-1
 1314 1479 l 1,11,-1
 1314 0 l 1,0,-1
EndSplineSet
EndChar

StartChar: I
Encoding: 73 73 44
Width: 540
GlyphClass: 2
Flags: W
LayerCount: 2
Fore
SplineSet
355 0 m 1,0,-1
 182 0 l 1,1,-1
 182 1479 l 1,2,-1
 355 1479 l 1,3,-1
 355 0 l 1,0,-1
EndSplineSet
EndChar

StartChar: J
Encoding: 74 74 45
Width: 550
GlyphClass: 2
Flags: W
LayerCount: 2
Fore
SplineSet
226 181 m 2,0,-1
 226 1496 l 1,1,-1
 403 1496 l 1,2,-1
 403 241 l 2,3,4
 404 10 404 10 362 -68 c 0,5,6
 318 -150 318 -150 246 -178 c 0,7,8
 157 -214 157 -214 16 -214 c 2,9,-1
 -19 -214 l 1,10,-1
 -40 -72 l 1,11,-1
 34 -72 l 2,12,13
 180 -72 180 -72 210 29 c 0,14,15
 226 82 226 82 226 181 c 2,0,-1
EndSplineSet
EndChar

StartChar: K
Encoding: 75 75 46
Width: 1242
GlyphClass: 2
Flags: W
LayerCount: 2
Fore
SplineSet
1260 0 m 1,0,-1
 1048 0 l 1,1,-1
 482 706 l 1,2,-1
 347 587 l 1,3,-1
 347 0 l 1,4,-1
 173 0 l 1,5,-1
 173 1479 l 1,6,-1
 347 1479 l 1,7,-1
 347 753 l 1,8,-1
 997 1479 l 1,9,-1
 1214 1479 l 1,10,-1
 614 813 l 1,11,-1
 1260 0 l 1,0,-1
EndSplineSet
EndChar

StartChar: L
Encoding: 76 76 47
Width: 1021
GlyphClass: 2
Flags: W
LayerCount: 2
Fore
SplineSet
174 0 m 1,0,-1
 174 1479 l 1,1,-1
 348 1479 l 1,2,-1
 348 154 l 1,3,-1
 999 154 l 1,4,-1
 993 0 l 1,5,-1
 174 0 l 1,0,-1
EndSplineSet
EndChar

StartChar: M
Encoding: 77 77 48
Width: 1817
GlyphClass: 2
Flags: W
LayerCount: 2
Fore
SplineSet
822 91 m 1,0,-1
 368 1147 l 1,1,-1
 330 1248 l 1,2,-1
 337 886 l 1,3,-1
 337 0 l 1,4,-1
 175 0 l 1,5,-1
 175 1479 l 1,6,-1
 399 1479 l 1,7,-1
 914 301 l 1,8,-1
 1424 1479 l 1,9,-1
 1642 1479 l 1,10,-1
 1642 0 l 1,11,-1
 1474 0 l 1,12,-1
 1474 890 l 1,13,-1
 1481 1244 l 1,14,-1
 1444 1143 l 1,15,-1
 991 91 l 1,16,-1
 822 91 l 1,0,-1
EndSplineSet
EndChar

StartChar: N
Encoding: 78 78 49
Width: 1516
GlyphClass: 2
Flags: W
LayerCount: 2
Fore
SplineSet
1342 0 m 1,0,-1
 1146 0 l 1,1,-1
 378 1164 l 1,2,-1
 328 1233 l 1,3,4
 336 1023 336 1023 336 858 c 2,5,-1
 336 0 l 1,6,-1
 174 0 l 1,7,-1
 174 1479 l 1,8,-1
 367 1479 l 1,9,-1
 1137 315 l 1,10,-1
 1188 246 l 1,11,12
 1181 565 1181 565 1181 615 c 2,13,-1
 1181 1479 l 1,14,-1
 1342 1479 l 1,15,-1
 1342 0 l 1,0,-1
EndSplineSet
EndChar

StartChar: O
Encoding: 79 79 50
Width: 1626
GlyphClass: 2
Flags: W
LayerCount: 2
Fore
SplineSet
429 1192 m 128,-1,1
 296 1031 296 1031 296 742.5 c 128,-1,2
 296 454 296 454 427 291.5 c 128,-1,3
 558 129 558 129 814 129 c 128,-1,4
 1070 129 1070 129 1199.5 291 c 128,-1,5
 1329 453 1329 453 1329 742 c 128,-1,6
 1329 1031 1329 1031 1198.5 1192 c 128,-1,7
 1068 1353 1068 1353 815 1353 c 128,-1,0
 562 1353 562 1353 429 1192 c 128,-1,1
1334 190 m 0,8,9
 1246 90 1246 90 1113 34 c 128,-1,10
 980 -22 980 -22 814 -22 c 0,11,12
 590 -22 590 -22 430 74 c 0,13,14
 112 265 112 265 112 740 c 0,15,16
 112 1095 112 1095 297 1300 c 128,-1,17
 482 1505 482 1505 812.5 1505 c 128,-1,18
 1143 1505 1143 1505 1328.5 1298.5 c 128,-1,19
 1514 1092 1514 1092 1514 744.5 c 128,-1,20
 1514 397 1514 397 1334 190 c 0,8,9
EndSplineSet
EndChar

StartChar: P
Encoding: 80 80 51
Width: 1159
GlyphClass: 2
Flags: W
LayerCount: 2
Fore
SplineSet
323 0 m 1,0,-1
 146 0 l 1,1,-1
 146 1496 l 1,2,-1
 628 1496 l 2,3,4
 848 1496 848 1496 985 1403 c 0,5,6
 1130 1304 1130 1304 1130 1093 c 0,7,8
 1130 818 1130 818 957 710 c 0,9,10
 822 626 822 626 567 625 c 0,11,12
 464 625 464 625 323 638 c 1,13,-1
 323 0 l 1,0,-1
323 780 m 1,14,15
 516 778 516 778 599 778 c 128,-1,16
 682 778 682 778 752 797 c 128,-1,17
 822 816 822 816 859.5 844 c 0,18,19
 896 872 896 872 918 917 c 0,20,21
 950 983 950 983 950 1100 c 128,-1,22
 950 1217 950 1217 864.5 1277 c 128,-1,23
 779 1337 779 1337 632 1337 c 2,24,-1
 323 1337 l 1,25,-1
 323 780 l 1,14,15
EndSplineSet
EndChar

StartChar: Q
Encoding: 81 81 52
Width: 1626
GlyphClass: 2
Flags: W
LayerCount: 2
Fore
SplineSet
1267 -470 m 1,0,1
 1219 -422 1219 -422 1108 -274.5 c 128,-1,2
 997 -127 997 -127 942 -13 c 1,3,4
 880 -22 880 -22 814 -22 c 0,5,6
 590 -22 590 -22 430 74 c 0,7,8
 112 265 112 265 112 740 c 0,9,10
 112 1095 112 1095 297 1300 c 128,-1,11
 482 1505 482 1505 812.5 1505 c 128,-1,12
 1143 1505 1143 1505 1328.5 1298.5 c 128,-1,13
 1514 1092 1514 1092 1514 739 c 0,14,15
 1514 482 1514 482 1409 296.5 c 128,-1,16
 1304 111 1304 111 1108 31 c 1,17,18
 1160 -61 1160 -61 1243.5 -177 c 128,-1,19
 1327 -293 1327 -293 1385 -350 c 1,20,-1
 1267 -470 l 1,0,1
814 129 m 128,-1,22
 1070 129 1070 129 1199.5 291 c 128,-1,23
 1329 453 1329 453 1329 742 c 128,-1,24
 1329 1031 1329 1031 1198.5 1192 c 128,-1,25
 1068 1353 1068 1353 815 1353 c 128,-1,26
 562 1353 562 1353 429 1192 c 128,-1,27
 296 1031 296 1031 296 742.5 c 128,-1,28
 296 454 296 454 427 291.5 c 128,-1,21
 558 129 558 129 814 129 c 128,-1,22
EndSplineSet
EndChar

StartChar: R
Encoding: 82 82 53
Width: 1339
GlyphClass: 2
Flags: W
LayerCount: 2
Fore
SplineSet
324 841 m 1,0,-1
 692 837 l 1,1,2
 883 837 883 837 958 900.5 c 128,-1,3
 1033 964 1033 964 1033 1093.5 c 128,-1,4
 1033 1223 1033 1223 961 1282 c 128,-1,5
 889 1341 889 1341 720 1341 c 2,6,-1
 324 1341 l 1,7,-1
 324 841 l 1,0,-1
1272 0 m 1,8,-1
 1072 0 l 1,9,-1
 868 464 l 2,10,11
 785 651 785 651 762 689 c 1,12,13
 689 684 689 684 589 684 c 1,14,-1
 324 692 l 1,15,-1
 324 0 l 1,16,-1
 147 0 l 1,17,-1
 147 1496 l 1,18,-1
 620 1496 l 2,19,20
 881 1496 881 1496 999 1448 c 0,21,22
 1104 1406 1104 1406 1150 1330 c 0,23,24
 1202 1242 1202 1242 1202 1103.5 c 128,-1,25
 1202 965 1202 965 1128.5 864 c 128,-1,26
 1055 763 1055 763 920 724 c 1,27,28
 920 722 920 722 940 688 c 0,29,30
 1004 579 1004 579 1030 522 c 2,31,-1
 1272 0 l 1,8,-1
EndSplineSet
EndChar

StartChar: S
Encoding: 83 83 54
Width: 1227
GlyphClass: 2
Flags: W
LayerCount: 2
Fore
SplineSet
146 244 m 1,0,1
 377 130 377 130 641 130 c 0,2,3
 966 130 966 130 966 426 c 0,4,5
 966 522 966 522 914.5 581.5 c 128,-1,6
 863 641 863 641 727 675 c 2,7,-1
 433 749 l 2,8,9
 96 834 96 834 96 1109 c 0,10,11
 96 1320 96 1320 241 1422.5 c 128,-1,12
 386 1525 386 1525 642 1525 c 0,13,14
 916 1525 916 1525 1089 1418 c 1,15,-1
 1039 1277 l 1,16,17
 972 1314 972 1314 861.5 1343 c 128,-1,18
 751 1372 751 1372 638 1372 c 0,19,20
 276 1372 276 1372 276 1121 c 0,21,22
 276 1036 276 1036 331.5 984.5 c 128,-1,23
 387 933 387 933 498 906 c 2,24,-1
 779 838 l 2,25,26
 959 795 959 795 1052 700.5 c 128,-1,27
 1145 606 1145 606 1145 432 c 0,28,29
 1145 206 1145 206 1006.5 91.5 c 128,-1,30
 868 -23 868 -23 630 -23 c 0,31,32
 452 -23 452 -23 313.5 13.5 c 128,-1,33
 175 50 175 50 94 100 c 1,34,-1
 146 244 l 1,0,1
EndSplineSet
EndChar

StartChar: T
Encoding: 84 84 55
Width: 1099
GlyphClass: 2
Flags: W
LayerCount: 2
Fore
SplineSet
636 0 m 1,0,-1
 462 0 l 1,1,-1
 462 1326 l 1,2,-1
 7 1326 l 1,3,-1
 7 1479 l 1,4,-1
 1091 1479 l 1,5,-1
 1091 1326 l 1,6,-1
 636 1326 l 1,7,-1
 636 0 l 1,0,-1
EndSplineSet
EndChar

StartChar: U
Encoding: 85 85 56
Width: 1438
GlyphClass: 2
Flags: W
LayerCount: 2
Fore
SplineSet
1277 1479 m 1,0,-1
 1277 519 l 2,1,2
 1277 264 1277 264 1137.5 121 c 128,-1,3
 998 -22 998 -22 713 -22 c 128,-1,4
 428 -22 428 -22 292 121 c 128,-1,5
 156 264 156 264 156 521 c 2,6,-1
 156 1479 l 1,7,-1
 330 1479 l 1,8,-1
 330 518 l 2,9,10
 330 317 330 317 425 222 c 128,-1,11
 520 127 520 127 716 127 c 0,12,13
 912 127 912 127 1008 223 c 128,-1,14
 1104 319 1104 319 1104 519 c 2,15,-1
 1104 1479 l 1,16,-1
 1277 1479 l 1,0,-1
EndSplineSet
EndChar

StartChar: V
Encoding: 86 86 57
Width: 1242
GlyphClass: 2
Flags: W
LayerCount: 2
Fore
SplineSet
620 196 m 1,0,1
 640 295 640 295 1062 1479 c 1,2,-1
 1247 1479 l 1,3,-1
 710 0 l 1,4,-1
 530 0 l 1,5,-1
 -5 1479 l 1,6,-1
 180 1479 l 1,7,-1
 509 541 l 2,8,9
 573 358 573 358 620 196 c 1,0,1
EndSplineSet
EndChar

StartChar: W
Encoding: 87 87 58
Width: 2013
GlyphClass: 2
Flags: W
LayerCount: 2
Fore
SplineSet
446 0 m 1,0,-1
 0 1479 l 1,1,-1
 181 1479 l 1,2,-1
 547 206 l 1,3,-1
 913 1452 l 1,4,-1
 1108 1452 l 1,5,-1
 1463 205 l 1,6,-1
 1832 1479 l 1,7,-1
 2013 1479 l 1,8,-1
 1561 0 l 1,9,-1
 1372 0 l 1,10,-1
 1012 1243 l 1,11,-1
 634 0 l 1,12,-1
 446 0 l 1,0,-1
EndSplineSet
EndChar

StartChar: X
Encoding: 88 88 59
Width: 1240
GlyphClass: 2
Flags: W
LayerCount: 2
Fore
SplineSet
1231 0 m 1,0,-1
 1032 0 l 1,1,-1
 620 661 l 1,2,-1
 197 0 l 1,3,-1
 9 0 l 1,4,-1
 515 772 l 1,5,-1
 42 1479 l 1,6,-1
 243 1479 l 1,7,-1
 626 887 l 1,8,-1
 1024 1479 l 1,9,-1
 1209 1479 l 1,10,-1
 733 775 l 1,11,-1
 1231 0 l 1,0,-1
EndSplineSet
EndChar

StartChar: Y
Encoding: 89 89 60
Width: 1194
GlyphClass: 2
Flags: W
LayerCount: 2
Fore
SplineSet
591 754 m 1,0,-1
 1007 1479 l 1,1,-1
 1195 1479 l 1,2,-1
 673 590 l 1,3,-1
 673 0 l 1,4,-1
 498 0 l 1,5,-1
 498 586 l 1,6,-1
 -1 1479 l 1,7,-1
 186 1479 l 1,8,-1
 591 754 l 1,0,-1
EndSplineSet
EndChar

StartChar: Z
Encoding: 90 90 61
Width: 1184
GlyphClass: 2
Flags: W
LayerCount: 2
Fore
SplineSet
86 0 m 1,0,-1
 86 136 l 1,1,-1
 890 1325 l 1,2,-1
 115 1325 l 1,3,-1
 115 1479 l 1,4,-1
 1111 1479 l 1,5,-1
 1111 1350 l 1,6,-1
 302 154 l 1,7,-1
 1118 154 l 1,8,-1
 1112 0 l 1,9,-1
 86 0 l 1,0,-1
EndSplineSet
EndChar

StartChar: bracketleft
Encoding: 91 91 62
Width: 676
GlyphClass: 2
Flags: W
LayerCount: 2
Fore
SplineSet
596 -293 m 1,0,-1
 143 -293 l 1,1,-1
 143 1483 l 1,2,-1
 596 1483 l 1,3,-1
 596 1351 l 1,4,-1
 316 1351 l 1,5,-1
 316 -161 l 1,6,-1
 596 -161 l 1,7,-1
 596 -293 l 1,0,-1
EndSplineSet
EndChar

StartChar: backslash
Encoding: 92 92 63
Width: 843
GlyphClass: 2
Flags: W
LayerCount: 2
Fore
SplineSet
208 1464 m 1,0,-1
 807 -60 l 1,1,-1
 651 -60 l 1,2,-1
 52 1464 l 1,3,-1
 208 1464 l 1,0,-1
EndSplineSet
EndChar

StartChar: bracketright
Encoding: 93 93 64
Width: 676
GlyphClass: 2
Flags: W
LayerCount: 2
Fore
SplineSet
80 -161 m 1,0,-1
 360 -161 l 1,1,-1
 360 1351 l 1,2,-1
 80 1351 l 1,3,-1
 80 1483 l 1,4,-1
 533 1483 l 1,5,-1
 533 -293 l 1,6,-1
 80 -293 l 1,7,-1
 80 -161 l 1,0,-1
EndSplineSet
EndChar

StartChar: asciicircum
Encoding: 94 94 65
Width: 1157
GlyphClass: 2
Flags: W
LayerCount: 2
Fore
SplineSet
69 589 m 1,0,-1
 514 1516 l 1,1,-1
 616 1516 l 1,2,-1
 1086 589 l 1,3,-1
 943 589 l 1,4,-1
 565 1335 l 1,5,-1
 214 589 l 1,6,-1
 69 589 l 1,0,-1
EndSplineSet
EndChar

StartChar: underscore
Encoding: 95 95 66
Width: 1085
GlyphClass: 2
Flags: W
LayerCount: 2
Fore
SplineSet
1012 -304 m 1,0,-1
 73 -304 l 1,1,-1
 73 -170 l 1,2,-1
 1012 -170 l 1,3,-1
 1012 -304 l 1,0,-1
EndSplineSet
EndChar

StartChar: grave
Encoding: 96 96 67
Width: 643
GlyphClass: 2
Flags: W
LayerCount: 2
Fore
SplineSet
408 1251 m 1,0,-1
 85 1638 l 1,1,-1
 335 1638 l 1,2,-1
 520 1251 l 1,3,-1
 408 1251 l 1,0,-1
EndSplineSet
EndChar

StartChar: a
Encoding: 97 97 68
Width: 1098
GlyphClass: 2
Flags: W
LayerCount: 2
Fore
SplineSet
265 290 m 0,0,1
 265 112 265 112 474 112 c 0,2,3
 579 112 579 112 669.5 177.5 c 128,-1,4
 760 243 760 243 786 354 c 1,5,-1
 786 539 l 1,6,7
 781 539 781 539 725.5 534 c 128,-1,8
 670 529 670 529 653 528 c 0,9,10
 436 509 436 509 350.5 457 c 128,-1,11
 265 405 265 405 265 290 c 0,0,1
189 1030 m 1,12,13
 349 1120 349 1120 560.5 1120 c 128,-1,14
 772 1120 772 1120 862.5 1030.5 c 128,-1,15
 953 941 953 941 953 726 c 2,16,-1
 953 0 l 1,17,-1
 823 0 l 1,18,19
 808 64 808 64 794 138 c 1,20,21
 703 47 703 47 623 12 c 128,-1,22
 543 -23 543 -23 435 -23 c 0,23,24
 281 -23 281 -23 187.5 57.5 c 128,-1,25
 94 138 94 138 94 297.5 c 128,-1,26
 94 457 94 457 221.5 538 c 128,-1,27
 349 619 349 619 589 639 c 0,28,29
 622 642 622 642 688.5 647.5 c 128,-1,30
 755 653 755 653 788 656 c 1,31,-1
 788 753 l 2,32,33
 788 869 788 869 734 925 c 128,-1,34
 680 981 680 981 541 981 c 128,-1,35
 402 981 402 981 237 901 c 1,36,-1
 189 1030 l 1,12,13
EndSplineSet
EndChar

StartChar: b
Encoding: 98 98 69
Width: 1215
GlyphClass: 2
Flags: W
LayerCount: 2
Fore
SplineSet
642 981 m 0,0,1
 483 981 483 981 398.5 871.5 c 128,-1,2
 314 762 314 762 314 550 c 0,3,4
 314 116 314 116 641 116 c 0,5,6
 874 116 874 116 934 380 c 0,7,8
 952 456 952 456 951.5 565.5 c 128,-1,9
 951 675 951 675 921.5 769 c 128,-1,10
 892 863 892 863 821 922 c 128,-1,11
 750 981 750 981 642 981 c 0,0,1
311 940 m 1,12,13
 438 1120 438 1120 680 1120 c 0,14,15
 806 1120 806 1120 911 1046 c 0,16,17
 1123 898 1123 898 1123 554 c 0,18,19
 1124 200 1124 200 912 52 c 0,20,21
 806 -22 806 -22 676 -23 c 0,22,23
 437 -23 437 -23 308 152 c 1,24,-1
 291 0 l 1,25,-1
 148 0 l 1,26,-1
 148 1523 l 1,27,-1
 315 1533 l 1,28,-1
 315 1170 l 2,29,30
 315 1036 315 1036 311 940 c 1,12,13
EndSplineSet
EndChar

StartChar: c
Encoding: 99 99 70
Width: 968
GlyphClass: 2
Flags: W
LayerCount: 2
Fore
SplineSet
607 -23 m 0,0,1
 364 -23 364 -23 228 134 c 0,2,3
 92 290 92 290 92 544 c 0,4,5
 92 800 92 800 232 960 c 0,6,7
 370 1120 370 1120 611 1120 c 0,8,9
 696 1120 696 1120 775.5 1099 c 128,-1,10
 855 1078 855 1078 901 1044 c 1,11,-1
 855 914 l 1,12,13
 738 977 738 977 593.5 977 c 128,-1,14
 449 977 449 977 356.5 861 c 128,-1,15
 264 745 264 745 264 546.5 c 128,-1,16
 264 348 264 348 355.5 233.5 c 128,-1,17
 447 119 447 119 609 119 c 0,18,19
 738 119 738 119 873 189 c 1,20,-1
 894 56 l 1,21,22
 785 -23 785 -23 607 -23 c 0,0,1
EndSplineSet
EndChar

StartChar: d
Encoding: 100 100 71
Width: 1211
GlyphClass: 2
Flags: W
LayerCount: 2
Fore
SplineSet
571 121 m 0,0,1
 897 121 897 121 897 530 c 0,2,3
 897 752 897 752 819.5 864.5 c 128,-1,4
 742 977 742 977 569 977 c 0,5,6
 346 976 346 976 284 716 c 0,7,8
 266 640 266 640 265.5 530.5 c 128,-1,9
 265 421 265 421 296.5 327 c 128,-1,10
 328 233 328 233 398 177 c 128,-1,11
 468 121 468 121 571 121 c 0,0,1
900 159 m 1,12,13
 846 76 846 76 756 27 c 128,-1,14
 666 -22 666 -22 555 -22 c 0,15,16
 338 -22 338 -22 215 132.5 c 128,-1,17
 92 287 92 287 92 547 c 128,-1,18
 92 807 92 807 217 963.5 c 128,-1,19
 342 1120 342 1120 552 1120 c 0,20,21
 661 1120 661 1120 757.5 1072.5 c 128,-1,22
 854 1025 854 1025 902 945 c 1,23,-1
 899 1040 l 1,24,-1
 899 1523 l 1,25,-1
 1064 1533 l 1,26,-1
 1064 0 l 1,27,-1
 922 0 l 1,28,-1
 900 159 l 1,12,13
EndSplineSet
EndChar

StartChar: e
Encoding: 101 101 72
Width: 1108
GlyphClass: 2
Flags: W
LayerCount: 2
Fore
SplineSet
574 982 m 128,-1,1
 446 982 446 982 365 891.5 c 128,-1,2
 284 801 284 801 270 644 c 1,3,-1
 849 644 l 1,4,5
 849 807 849 807 775.5 894.5 c 128,-1,0
 702 982 702 982 574 982 c 128,-1,1
1019 608 m 1,6,-1
 1018 518 l 1,7,-1
 265 518 l 1,8,9
 268 331 268 331 361.5 226.5 c 128,-1,10
 455 122 455 122 621 122 c 128,-1,11
 787 122 787 122 962 214 c 1,12,-1
 988 79 l 1,13,14
 821 -23 821 -23 594.5 -23 c 128,-1,15
 368 -23 368 -23 230.5 129 c 128,-1,16
 93 281 93 281 93 540.5 c 128,-1,17
 93 800 93 800 226 958.5 c 0,18,19
 360 1116 360 1116 570 1118 c 0,20,-1
 574 1119 l 0,21,22
 782 1118 782 1118 900 980 c 0,23,24
 1020 840 1020 840 1019 608 c 1,6,-1
EndSplineSet
EndChar

StartChar: f
Encoding: 102 102 73
Width: 669
GlyphClass: 2
Flags: W
LayerCount: 2
Fore
SplineSet
560 1416 m 0,0,1
 456 1416 456 1416 417.5 1356 c 128,-1,2
 379 1296 379 1296 379 1148 c 2,3,-1
 379 1097 l 1,4,-1
 643 1097 l 1,5,-1
 643 973 l 1,6,-1
 379 973 l 1,7,-1
 379 0 l 1,8,-1
 212 0 l 1,9,-1
 212 973 l 1,10,-1
 34 973 l 1,11,-1
 48 1083 l 1,12,-1
 212 1097 l 1,13,-1
 212 1146 l 1,14,15
 214 1358 214 1358 291.5 1453.5 c 128,-1,16
 369 1549 369 1549 542 1549 c 0,17,18
 609 1549 609 1549 706 1534 c 1,19,-1
 695 1403 l 1,20,21
 606 1416 606 1416 560 1416 c 0,0,1
EndSplineSet
EndChar

StartChar: g
Encoding: 103 103 74
Width: 1187
GlyphClass: 2
Flags: W
LayerCount: 2
Fore
SplineSet
578 143 m 0,0,1
 654 143 654 143 718 173 c 128,-1,2
 782 203 782 203 818 256 c 0,3,4
 889 361 889 361 889 516 c 2,5,-1
 889 597 l 2,6,7
 890 762 890 762 816 866 c 0,8,9
 736 980 736 980 570 979 c 0,10,11
 378 980 378 980 290 786 c 0,12,13
 242 681 242 681 242 554 c 0,14,15
 242 358 242 358 355 234 c 0,16,17
 437 144 437 144 578 143 c 0,0,1
556 1120 m 0,18,19
 763 1120 763 1120 889 951 c 1,20,-1
 889 1097 l 1,21,-1
 1052 1097 l 1,22,-1
 1052 79 l 2,23,24
 1052 -156 1052 -156 995 -270 c 0,25,26
 938 -386 938 -386 832 -438 c 0,27,28
 702 -502 702 -502 497 -502 c 2,29,-1
 312 -502 l 1,30,-1
 297 -351 l 1,31,-1
 501 -351 l 2,32,33
 675 -352 675 -352 754 -300 c 0,34,35
 838 -246 838 -246 862 -152 c 0,36,37
 884 -63 884 -63 884 83 c 2,38,-1
 884 180 l 1,39,40
 824 94 824 94 745 47.5 c 128,-1,41
 666 1 666 1 558 1 c 128,-1,42
 450 1 450 1 370.5 33.5 c 128,-1,43
 291 66 291 66 236.5 120 c 128,-1,44
 182 174 182 174 144 245 c 0,45,46
 70 381 70 381 70 523 c 128,-1,47
 70 665 70 665 99.5 767 c 128,-1,48
 129 869 129 869 187 949 c 128,-1,49
 245 1029 245 1029 339.5 1074.5 c 128,-1,50
 434 1120 434 1120 556 1120 c 0,18,19
EndSplineSet
EndChar

StartChar: h
Encoding: 104 104 75
Width: 1112
GlyphClass: 2
Flags: W
LayerCount: 2
Fore
SplineSet
882 0 m 1,0,-1
 882 663 l 2,1,2
 882 828 882 828 829.5 903 c 0,3,4
 776 978 776 978 648 978 c 128,-1,5
 520 978 520 978 433.5 915 c 128,-1,6
 347 852 347 852 321 752 c 1,7,8
 312 677 312 677 312 585 c 2,9,-1
 312 0 l 1,10,-1
 145 0 l 1,11,-1
 145 1523 l 1,12,-1
 312 1533 l 1,13,-1
 312 1087 l 2,14,15
 312 1030 312 1030 308 946 c 1,16,17
 449 1120 449 1120 682 1120 c 0,18,19
 1049 1120 1049 1120 1049 689 c 2,20,-1
 1049 0 l 1,21,-1
 882 0 l 1,0,-1
EndSplineSet
EndChar

StartChar: i
Encoding: 105 105 76
Width: 466
GlyphClass: 2
Flags: W
LayerCount: 2
Fore
SplineSet
327 1097 m 1,0,-1
 327 0 l 1,1,-1
 159 0 l 1,2,-1
 159 1097 l 1,3,-1
 327 1097 l 1,0,-1
327 1496 m 1,4,-1
 327 1298 l 1,5,-1
 159 1298 l 1,6,-1
 159 1496 l 1,7,-1
 327 1496 l 1,4,-1
EndSplineSet
EndChar

StartChar: j
Encoding: 106 106 77
Width: 445
GlyphClass: 2
Flags: W
LayerCount: 2
Fore
SplineSet
330 1097 m 1,0,-1
 330 -139 l 2,1,2
 330 -245 330 -245 316.5 -310 c 128,-1,3
 303 -375 303 -375 265.5 -420.5 c 128,-1,4
 228 -466 228 -466 164 -484 c 128,-1,5
 100 -502 100 -502 -3 -502 c 2,6,-1
 -55 -502 l 1,7,-1
 -77 -351 l 1,8,-1
 -25 -351 l 2,9,10
 93 -351 93 -351 125 -312 c 0,11,12
 152 -279 152 -279 156 -244 c 0,13,14
 162 -192 162 -192 162 -121 c 2,15,-1
 162 1097 l 1,16,-1
 330 1097 l 1,0,-1
330 1496 m 1,17,-1
 330 1298 l 1,18,-1
 162 1298 l 1,19,-1
 162 1496 l 1,20,-1
 330 1496 l 1,17,-1
EndSplineSet
EndChar

StartChar: k
Encoding: 107 107 78
Width: 1041
GlyphClass: 2
Flags: W
LayerCount: 2
Fore
SplineSet
145 0 m 1,0,-1
 145 1523 l 1,1,-1
 311 1533 l 1,2,-1
 311 596 l 1,3,4
 317 602 317 602 329 616 c 0,5,6
 387 684 387 684 798 1097 c 1,7,-1
 1010 1097 l 1,8,-1
 554 635 l 1,9,-1
 1042 0 l 1,10,-1
 834 0 l 1,11,-1
 433 540 l 1,12,-1
 311 435 l 1,13,-1
 311 0 l 1,14,-1
 145 0 l 1,0,-1
EndSplineSet
EndChar

StartChar: l
Encoding: 108 108 79
Width: 569
GlyphClass: 2
Flags: W
LayerCount: 2
Fore
SplineSet
438 -20 m 0,0,1
 278 -20 278 -20 211.5 66 c 128,-1,2
 145 152 145 152 145 365 c 2,3,-1
 145 1523 l 1,4,-1
 311 1533 l 1,5,-1
 311 431 l 2,6,7
 311 232 311 232 336 182 c 0,8,9
 360 134 360 134 410 124 c 0,10,11
 436 118 436 118 472 118 c 128,-1,12
 508 118 508 118 602 130 c 1,13,-1
 611 -3 l 1,14,15
 508 -20 508 -20 438 -20 c 0,0,1
EndSplineSet
EndChar

StartChar: m
Encoding: 109 109 80
Width: 1773
GlyphClass: 2
Flags: W
LayerCount: 2
Fore
SplineSet
1536 0 m 1,0,-1
 1536 571 l 2,1,2
 1536 826 1536 826 1482 904 c 0,3,4
 1431 978 1431 978 1322 977.5 c 129,-1,5
 1213 977 1213 977 1135.5 918 c 128,-1,6
 1058 859 1058 859 1025 752 c 1,7,8
 1016 680 1016 680 1016 598 c 2,9,-1
 1016 0 l 1,10,-1
 849 0 l 1,11,-1
 849 589 l 2,12,13
 850 823 850 823 788 907 c 0,14,15
 737 977 737 977 624.5 977 c 128,-1,16
 512 977 512 977 430.5 916 c 128,-1,17
 349 855 349 855 321 754 c 1,18,19
 312 677 312 677 312 587 c 2,20,-1
 312 0 l 1,21,-1
 145 0 l 1,22,23
 143 1029 143 1029 143 1097 c 1,24,-1
 283 1097 l 1,25,-1
 304 940 l 1,26,27
 354 1016 354 1016 446 1068 c 128,-1,28
 538 1120 538 1120 655 1120 c 0,29,30
 824 1120 824 1120 915 1030 c 0,31,32
 960 986 960 986 982 925 c 1,33,34
 1102 1120 1102 1120 1349 1120 c 0,35,36
 1532 1120 1532 1120 1617.5 1015.5 c 128,-1,37
 1703 911 1703 911 1703 706 c 2,38,-1
 1703 0 l 1,39,-1
 1536 0 l 1,0,-1
EndSplineSet
EndChar

StartChar: n
Encoding: 110 110 81
Width: 1184
GlyphClass: 2
Flags: W
LayerCount: 2
Fore
SplineSet
143 0 m 1,0,-1
 143 1097 l 1,1,-1
 283 1097 l 1,2,-1
 304 940 l 1,3,4
 369 1021 369 1021 466.5 1070.5 c 128,-1,5
 564 1120 564 1120 677 1120 c 0,6,7
 867 1120 867 1120 958 1013.5 c 128,-1,8
 1049 907 1049 907 1049 686 c 2,9,-1
 1049 0 l 1,10,-1
 882 0 l 1,11,12
 882 660 882 660 881 707 c 0,13,14
 877 847 877 847 824.5 912 c 128,-1,15
 772 977 772 977 646 977 c 0,16,17
 520 977 520 977 434 915 c 128,-1,18
 348 853 348 853 322 754 c 1,19,20
 312 687 312 687 312 600 c 2,21,-1
 312 0 l 1,22,-1
 143 0 l 1,0,-1
EndSplineSet
EndChar

StartChar: o
Encoding: 111 111 82
Width: 1201
GlyphClass: 2
Flags: W
LayerCount: 2
Fore
SplineSet
351 862 m 128,-1,1
 265 744 265 744 265 547.5 c 128,-1,2
 265 351 265 351 351.5 233.5 c 128,-1,3
 438 116 438 116 603 116 c 128,-1,4
 768 116 768 116 851.5 233 c 128,-1,5
 935 350 935 350 935 549.5 c 128,-1,6
 935 749 935 749 852.5 864.5 c 128,-1,7
 770 980 770 980 603.5 980 c 128,-1,0
 437 980 437 980 351 862 c 128,-1,1
974 961.5 m 128,-1,9
 1108 803 1108 803 1108 548.5 c 128,-1,10
 1108 294 1108 294 972 135.5 c 128,-1,11
 836 -23 836 -23 600.5 -23 c 128,-1,12
 365 -23 365 -23 228.5 137 c 128,-1,13
 92 297 92 297 92 550.5 c 128,-1,14
 92 804 92 804 229 962 c 128,-1,15
 366 1120 366 1120 603 1120 c 128,-1,8
 840 1120 840 1120 974 961.5 c 128,-1,9
EndSplineSet
EndChar

StartChar: p
Encoding: 112 112 83
Width: 1201
GlyphClass: 2
Flags: W
LayerCount: 2
Fore
SplineSet
143 -476 m 1,0,-1
 143 1097 l 1,1,-1
 290 1097 l 1,2,-1
 306 948 l 1,3,4
 450 1120 450 1120 652 1120 c 0,5,6
 802 1120 802 1120 906 1045 c 0,7,8
 1109 899 1109 899 1109 543 c 0,9,10
 1109 379 1109 379 1055 251.5 c 128,-1,11
 1001 124 1001 124 896.5 50.5 c 128,-1,12
 792 -23 792 -23 669 -23 c 128,-1,13
 546 -23 546 -23 453 24.5 c 128,-1,14
 360 72 360 72 304 150 c 1,15,16
 310 42 310 42 310 -60 c 2,17,-1
 310 -465 l 1,18,-1
 143 -476 l 1,0,-1
937 553 m 128,-1,20
 937 737 937 737 858 857.5 c 128,-1,21
 779 978 779 978 627 978 c 0,22,23
 309 978 309 978 309 567 c 0,24,25
 309 344 309 344 383.5 231 c 128,-1,26
 458 118 458 118 620 118 c 128,-1,27
 782 118 782 118 859.5 243.5 c 128,-1,19
 937 369 937 369 937 553 c 128,-1,20
EndSplineSet
EndChar

StartChar: q
Encoding: 113 113 84
Width: 1211
GlyphClass: 2
Flags: W
LayerCount: 2
Fore
SplineSet
903 159 m 1,0,1
 782 -23 782 -23 537 -23 c 0,2,3
 408 -23 408 -23 304 51 c 0,4,5
 96 199 96 199 96 541 c 0,6,7
 96 896 96 896 306 1045 c 0,8,9
 412 1120 412 1120 560 1120 c 0,10,11
 765 1120 765 1120 905 942 c 1,12,-1
 917 1097 l 1,13,-1
 1065 1097 l 1,14,-1
 1065 -466 l 1,15,-1
 898 -476 l 1,16,-1
 898 11 l 2,17,18
 898 84 898 84 903 159 c 1,0,1
818.5 225 m 0,19,20
 897 330 897 330 898 540 c 0,21,-1
 898 545 l 0,22,23
 898 752 898 752 822 863 c 0,24,25
 745 976 745 976 573 976 c 0,26,27
 468 976 468 976 398 916 c 0,28,29
 268 806 268 806 268 547 c 0,30,31
 268 360 268 360 339 244 c 0,32,33
 415 120 415 120 577.5 120.5 c 128,-1,34
 740 121 740 121 818.5 225 c 0,19,20
EndSplineSet
EndChar

StartChar: r
Encoding: 114 114 85
Width: 746
GlyphClass: 2
Flags: W
LayerCount: 2
Fore
SplineSet
635 1107 m 0,0,1
 680 1107 680 1107 717 1101 c 1,2,-1
 711 947 l 1,3,4
 665 955 665 955 631 955 c 0,5,6
 491 955 491 955 403.5 857.5 c 128,-1,7
 316 760 316 760 316 616 c 2,8,-1
 316 0 l 1,9,-1
 149 0 l 1,10,11
 148 1010 148 1010 148 1097 c 1,12,-1
 287 1097 l 1,13,-1
 303 900 l 1,14,15
 360 993 360 993 448 1050 c 128,-1,16
 536 1107 536 1107 635 1107 c 0,0,1
EndSplineSet
EndChar

StartChar: s
Encoding: 115 115 86
Width: 953
GlyphClass: 2
Flags: W
LayerCount: 2
Fore
SplineSet
110 63 m 1,0,-1
 131 204 l 1,1,2
 298 115 298 115 459 115 c 0,3,4
 703 115 703 115 710 287 c 1,5,6
 710 360 710 360 658 402 c 128,-1,7
 606 444 606 444 454 496 c 1,8,-1
 371 525 l 1,9,10
 228 573 228 573 166 644 c 0,11,12
 104 716 104 716 103 834 c 0,13,14
 102 951 102 951 206 1035 c 0,15,16
 310 1120 310 1120 493 1120 c 128,-1,17
 676 1120 676 1120 829 1048 c 1,18,-1
 780 920 l 1,19,20
 625 984 625 984 505 984 c 128,-1,21
 385 984 385 984 325.5 942.5 c 128,-1,22
 266 901 266 901 266 831.5 c 128,-1,23
 266 762 266 762 309 728 c 128,-1,24
 352 694 352 694 433 666 c 128,-1,25
 514 638 514 638 564 622 c 0,26,27
 730 568 730 568 799 494 c 0,28,29
 867 422 867 422 867 286 c 0,30,31
 867 144 867 144 759 60 c 0,32,33
 652 -24 652 -24 448 -23.5 c 128,-1,34
 244 -23 244 -23 110 63 c 1,0,-1
EndSplineSet
EndChar

StartChar: t
Encoding: 116 116 87
Width: 710
GlyphClass: 2
Flags: W
LayerCount: 2
Fore
SplineSet
493 -20 m 0,0,1
 331 -20 331 -20 263 59 c 128,-1,2
 195 138 195 138 191 314 c 1,3,-1
 191 973 l 1,4,-1
 28 973 l 1,5,-1
 35 1083 l 1,6,-1
 190 1097 l 1,7,-1
 247 1348 l 1,8,-1
 357 1352 l 1,9,-1
 357 1097 l 1,10,-1
 662 1097 l 1,11,-1
 662 973 l 1,12,-1
 357 973 l 1,13,-1
 357 344 l 2,14,15
 357 219 357 219 395 168 c 128,-1,16
 433 117 433 117 525 117 c 0,17,18
 558 117 558 117 668 133 c 1,19,-1
 675 1 l 1,20,21
 556 -20 556 -20 493 -20 c 0,0,1
EndSplineSet
EndChar

StartChar: u
Encoding: 117 117 88
Width: 1100
GlyphClass: 2
Flags: W
LayerCount: 2
Fore
SplineSet
105 366 m 2,0,-1
 105 1097 l 1,1,-1
 273 1097 l 1,2,-1
 273 364 l 2,3,4
 272 220 272 220 352 164 c 0,5,6
 424 112 424 112 552.5 112.5 c 129,-1,7
 681 113 681 113 753.5 170 c 128,-1,8
 826 227 826 227 826 364 c 2,9,-1
 826 1097 l 1,10,-1
 994 1097 l 1,11,-1
 994 366 l 2,12,13
 994 125 994 125 808 30 c 0,14,15
 700 -25 700 -25 551 -25 c 1,16,17
 314 -26 314 -26 194 104 c 0,18,19
 104 200 104 200 105 366 c 2,0,-1
EndSplineSet
EndChar

StartChar: v
Encoding: 118 118 89
Width: 1031
GlyphClass: 2
Flags: W
LayerCount: 2
Fore
SplineSet
520 167 m 1,0,1
 572 332 572 332 850 1097 c 1,2,-1
 1028 1097 l 1,3,-1
 606 0 l 1,4,-1
 424 0 l 1,5,-1
 -1 1097 l 1,6,-1
 178 1097 l 1,7,-1
 420 445 l 1,8,-1
 520 167 l 1,0,1
EndSplineSet
EndChar

StartChar: w
Encoding: 119 119 90
Width: 1606
GlyphClass: 2
Flags: W
LayerCount: 2
Fore
SplineSet
1090 0 m 1,0,1
 859 738 859 738 804 919 c 1,2,3
 745 710 745 710 641 393.5 c 128,-1,4
 537 77 537 77 512 0 c 1,5,-1
 332 0 l 1,6,-1
 19 1097 l 1,7,-1
 192 1097 l 1,8,-1
 427 199 l 1,9,10
 476 359 476 359 715 1097 c 1,11,-1
 904 1097 l 1,12,13
 1142 343 1142 343 1184 202 c 1,14,-1
 1416 1097 l 1,15,-1
 1587 1097 l 1,16,-1
 1271 0 l 1,17,-1
 1090 0 l 1,0,1
EndSplineSet
EndChar

StartChar: x
Encoding: 120 120 91
Width: 1057
GlyphClass: 2
Flags: W
LayerCount: 2
Fore
SplineSet
433 558 m 1,0,-1
 46 1097 l 1,1,-1
 237 1097 l 1,2,-1
 530 679 l 1,3,-1
 824 1097 l 1,4,-1
 1015 1097 l 1,5,-1
 627 556 l 1,6,-1
 1025 0 l 1,7,-1
 840 0 l 1,8,-1
 531 441 l 1,9,-1
 222 0 l 1,10,-1
 31 0 l 1,11,-1
 433 558 l 1,0,-1
EndSplineSet
EndChar

StartChar: y
Encoding: 121 121 92
Width: 1022
GlyphClass: 2
Flags: W
LayerCount: 2
Fore
SplineSet
3 1097 m 1,0,-1
 180 1097 l 1,1,-1
 526 184 l 1,2,-1
 834 1097 l 1,3,-1
 1011 1097 l 1,4,5
 567 -125 567 -125 552 -163 c 0,6,7
 483 -336 483 -336 385 -416.5 c 128,-1,8
 287 -497 287 -497 127 -497 c 0,9,10
 79 -497 79 -497 26 -489 c 1,11,-1
 16 -347 l 1,12,13
 72 -351 72 -351 100 -351 c 0,14,15
 213 -351 213 -351 271.5 -309.5 c 128,-1,16
 330 -268 330 -268 374 -158 c 0,17,18
 418 -48 418 -48 437 8 c 1,19,-1
 3 1097 l 1,0,-1
EndSplineSet
EndChar

StartChar: z
Encoding: 122 122 93
Width: 912
GlyphClass: 2
Flags: W
LayerCount: 2
Fore
SplineSet
849 0 m 1,0,-1
 83 0 l 1,1,-1
 83 126 l 1,2,-1
 644 965 l 1,3,-1
 98 965 l 1,4,-1
 98 1097 l 1,5,-1
 831 1097 l 1,6,-1
 831 965 l 1,7,-1
 271 132 l 1,8,-1
 849 132 l 1,9,-1
 849 0 l 1,0,-1
EndSplineSet
EndChar

StartChar: braceleft
Encoding: 123 123 94
Width: 733
GlyphClass: 2
Flags: W
LayerCount: 2
Fore
SplineSet
454 84 m 2,0,1
 454 -44 454 -44 493 -93 c 128,-1,2
 532 -142 532 -142 641 -143 c 1,3,-1
 641 -281 l 1,4,5
 454 -280 454 -280 371.5 -197 c 128,-1,6
 289 -114 289 -114 289 62 c 2,7,-1
 289 269 l 2,8,9
 289 406 289 406 259.5 461.5 c 128,-1,10
 230 517 230 517 186.5 536.5 c 128,-1,11
 143 556 143 556 75 556 c 1,12,-1
 75 701 l 1,13,14
 142 701 142 701 170.5 711.5 c 128,-1,15
 199 722 199 722 214.5 729 c 128,-1,16
 230 736 230 736 241.5 750 c 128,-1,17
 253 764 253 764 261 775 c 128,-1,18
 269 786 269 786 274.5 807 c 128,-1,19
 280 828 280 828 283 843.5 c 0,20,21
 286 858 286 858 287 886 c 0,22,23
 289 941 289 941 289 987 c 2,24,-1
 289 1230 l 2,25,26
 289 1539 289 1539 641 1539 c 1,27,-1
 641 1401 l 1,28,29
 532 1400 532 1400 493 1350 c 128,-1,30
 454 1300 454 1300 454 1173 c 2,31,-1
 454 908 l 2,32,33
 454 817 454 817 409.5 750.5 c 128,-1,34
 365 684 365 684 269 626 c 1,35,36
 364 596 364 596 409 521 c 128,-1,37
 454 446 454 446 454 349 c 2,38,-1
 454 84 l 2,0,1
EndSplineSet
EndChar

StartChar: bar
Encoding: 124 124 95
Width: 799
GlyphClass: 2
Flags: W
LayerCount: 2
Fore
SplineSet
327 1579 m 1,0,-1
 472 1579 l 1,1,-1
 472 -400 l 1,2,-1
 327 -400 l 1,3,-1
 327 1579 l 1,0,-1
EndSplineSet
EndChar

StartChar: braceright
Encoding: 125 125 96
Width: 738
GlyphClass: 2
Flags: W
LayerCount: 2
Fore
SplineSet
466 632 m 1,0,1
 371 662 371 662 326.5 736.5 c 128,-1,2
 282 811 282 811 282 908 c 2,3,-1
 282 1173 l 2,4,5
 282 1299 282 1299 242.5 1349.5 c 128,-1,6
 203 1400 203 1400 95 1401 c 1,7,-1
 95 1539 l 1,8,9
 279 1539 279 1539 363 1455 c 128,-1,10
 447 1371 447 1371 447 1195 c 2,11,-1
 447 987 l 2,12,13
 447 806 447 806 503 752 c 0,14,15
 554 702 554 702 662 701 c 1,16,-1
 662 556 l 1,17,18
 507 556 507 556 469 444 c 0,19,20
 447 379 447 379 447 269 c 2,21,-1
 447 27 l 2,22,23
 447 -279 447 -279 95 -281 c 1,24,-1
 95 -143 l 1,25,26
 203 -142 203 -142 242.5 -93 c 128,-1,27
 282 -44 282 -44 282 84 c 2,28,-1
 282 349 l 2,29,30
 282 444 282 444 321 502.5 c 128,-1,31
 360 561 360 561 466 632 c 1,0,1
EndSplineSet
EndChar

StartChar: asciitilde
Encoding: 126 126 97
Width: 1255
GlyphClass: 2
Flags: W
LayerCount: 2
Fore
SplineSet
1137 719 m 1,0,1
 1054 517 1054 517 868 517 c 0,2,3
 779 517 779 517 673.5 565 c 128,-1,4
 568 613 568 613 537 626 c 0,5,6
 449 663 449 663 386 663 c 128,-1,7
 323 663 323 663 266 618 c 128,-1,8
 209 573 209 573 172 503 c 1,9,-1
 120 608 l 1,10,11
 158 697 158 697 226.5 751.5 c 128,-1,12
 295 806 295 806 372 806 c 128,-1,13
 449 806 449 806 503 790.5 c 128,-1,14
 557 775 557 775 602 755 c 128,-1,15
 647 735 647 735 672.5 724 c 128,-1,16
 698 713 698 713 707.5 708.5 c 128,-1,17
 717 704 717 704 738 695.5 c 128,-1,18
 759 687 759 687 769.5 683 c 128,-1,19
 780 679 780 679 797 673.5 c 128,-1,20
 814 668 814 668 825 666 c 0,21,22
 854 660 854 660 873 659 c 0,23,24
 932 659 932 659 988 703 c 128,-1,25
 1044 747 1044 747 1081 815 c 1,26,-1
 1137 719 l 1,0,1
EndSplineSet
EndChar

StartChar: sterling
Encoding: 163 163 101
Width: 1132
GlyphClass: 2
Flags: W
LayerCount: 2
Fore
SplineSet
696 1503 m 0,0,1
 899 1503 899 1503 1053 1373 c 1,2,-1
 975 1253 l 1,3,4
 838 1357 838 1357 698 1357 c 128,-1,5
 558 1357 558 1357 499.5 1263.5 c 128,-1,6
 441 1170 441 1170 441 993 c 2,7,-1
 441 815 l 1,8,-1
 851 815 l 1,9,-1
 851 681 l 1,10,-1
 441 681 l 1,11,-1
 441 519 l 2,12,13
 441 382 441 382 416.5 295.5 c 128,-1,14
 392 209 392 209 319 153 c 1,15,16
 401 158 401 158 413 158 c 2,17,-1
 1068 158 l 1,18,-1
 1068 0 l 1,19,-1
 96 0 l 1,20,-1
 85 139 l 1,21,22
 184 176 184 176 226.5 251 c 128,-1,23
 269 326 269 326 269 449 c 2,24,-1
 269 681 l 1,25,-1
 83 681 l 1,26,-1
 83 815 l 1,27,-1
 269 815 l 1,28,-1
 269 911 l 2,29,30
 269 1316 269 1316 455 1440 c 0,31,32
 550 1504 550 1504 696 1503 c 0,0,1
EndSplineSet
EndChar

StartChar: section
Encoding: 167 167 105
Width: 1017
GlyphClass: 2
Flags: W
LayerCount: 2
Fore
SplineSet
216.5 602.5 m 0,0,1
 141 676 141 676 141 780 c 0,2,3
 141 971 141 971 307 1059 c 1,4,5
 233 1106 233 1106 196.5 1164 c 128,-1,6
 160 1222 160 1222 160 1307 c 0,7,8
 160 1429 160 1429 248 1500 c 128,-1,9
 336 1571 336 1571 497 1582 c 1,10,11
 537 1586 537 1586 574 1586 c 0,12,13
 628 1586 628 1586 672 1578 c 0,14,15
 748 1565 748 1565 836 1530 c 1,16,17
 822 1460 822 1460 810 1385 c 1,18,19
 675 1446 675 1446 546 1446 c 0,20,21
 318 1446 318 1446 318 1311 c 0,22,23
 318 1249 318 1249 371.5 1206 c 128,-1,24
 425 1163 425 1163 577.5 1101.5 c 128,-1,25
 730 1040 730 1040 804.5 967.5 c 128,-1,26
 879 895 879 895 879 799 c 0,27,28
 879 615 879 615 719 514 c 1,29,30
 868 429 868 429 868 281 c 128,-1,31
 868 133 868 133 753 52 c 128,-1,32
 638 -29 638 -29 449 -29 c 128,-1,33
 260 -29 260 -29 145 30 c 1,34,-1
 145 185 l 1,35,36
 292 109 292 109 431.5 109 c 128,-1,37
 571 109 571 109 640 151.5 c 128,-1,38
 709 194 709 194 709 266 c 0,39,40
 709 316 709 316 688 338.5 c 128,-1,41
 667 361 667 361 652.5 372.5 c 128,-1,42
 638 384 638 384 604 401 c 0,43,44
 555 425 555 425 464 462 c 1,45,46
 292 528 292 528 216.5 602.5 c 0,0,1
437 995 m 1,47,48
 292 932 292 932 292 808 c 0,49,50
 292 743 292 743 345 698 c 128,-1,51
 398 653 398 653 527 602 c 1,52,-1
 584 578 l 1,53,54
 727 665 727 665 727 768 c 0,55,56
 727 863 727 863 610 923 c 0,57,58
 542 958 542 958 437 995 c 1,47,48
EndSplineSet
EndChar

StartChar: copyright
Encoding: 169 169 107
Width: 1841
GlyphClass: 2
Flags: W
LayerCount: 2
Fore
SplineSet
1657 1070 m 0,0,1
 1701 938 1701 938 1701 781 c 128,-1,2
 1701 624 1701 624 1657.5 491 c 128,-1,3
 1614 358 1614 358 1539 263.5 c 128,-1,4
 1464 169 1464 169 1362 103 c 0,5,6
 1164 -26 1164 -26 902 -26 c 0,7,8
 652 -26 652 -26 456 104 c 0,9,10
 241 246 241 246 161 490 c 0,11,12
 117 624 117 624 117 780.5 c 128,-1,13
 117 937 117 937 160.5 1070 c 128,-1,14
 204 1203 204 1203 278.5 1297 c 128,-1,15
 353 1391 353 1391 453 1457 c 0,16,17
 648 1586 648 1586 897 1586 c 0,18,19
 1158 1586 1158 1586 1360 1456 c 0,20,21
 1576 1318 1576 1318 1657 1070 c 0,0,1
615 123.5 m 128,-1,23
 744 67 744 67 905.5 67 c 128,-1,24
 1067 67 1067 67 1199 123 c 128,-1,25
 1331 179 1331 179 1415 276.5 c 128,-1,26
 1499 374 1499 374 1543.5 502 c 128,-1,27
 1588 630 1588 630 1588 778 c 128,-1,28
 1588 926 1588 926 1543 1054.5 c 128,-1,29
 1498 1183 1498 1183 1413 1281.5 c 128,-1,30
 1328 1380 1328 1380 1195 1436.5 c 128,-1,31
 1062 1493 1062 1493 901 1493 c 128,-1,32
 740 1493 740 1493 612.5 1436.5 c 128,-1,33
 485 1380 485 1380 402 1282 c 0,34,35
 230 1080 230 1080 230 783 c 0,36,37
 230 482 230 482 403 278 c 0,38,22
 486 180 486 180 615 123.5 c 128,-1,23
1167 1114 m 1,39,40
 1071 1182 1071 1182 910 1182 c 0,41,42
 740 1182 740 1182 652 1063 c 0,43,44
 570 952 570 952 570 781 c 128,-1,45
 570 610 570 610 661 498.5 c 128,-1,46
 752 387 752 387 929 387 c 0,47,48
 997 387 997 387 1072.5 408 c 128,-1,49
 1148 429 1148 429 1191 459 c 1,50,-1
 1230 352 l 1,51,52
 1175 317 1175 317 1087 293.5 c 128,-1,53
 999 270 999 270 909 270 c 0,54,55
 703 270 703 270 568.5 416 c 128,-1,56
 434 562 434 562 434 786 c 128,-1,57
 434 1010 434 1010 568 1155.5 c 128,-1,58
 702 1301 702 1301 919 1301 c 0,59,60
 1098 1301 1098 1301 1227 1211 c 1,61,-1
 1167 1114 l 1,39,40
EndSplineSet
EndChar

StartChar: uni00AD
Encoding: 173 173 111
Width: 946
GlyphClass: 2
Flags: W
LayerCount: 2
Fore
SplineSet
108 236 m 1,0,-1
 108 386 l 1,1,-1
 843 386 l 1,2,-1
 843 236 l 1,3,-1
 108 236 l 1,0,-1
EndSplineSet
EndChar

StartChar: registered
Encoding: 174 174 112
Width: 1824
GlyphClass: 2
Flags: W
LayerCount: 2
Fore
SplineSet
1657 1070 m 0,0,1
 1701 938 1701 938 1701 781 c 128,-1,2
 1701 624 1701 624 1657.5 491 c 128,-1,3
 1614 358 1614 358 1539 263.5 c 128,-1,4
 1464 169 1464 169 1362 103 c 0,5,6
 1164 -26 1164 -26 902 -26 c 0,7,8
 652 -26 652 -26 456 104 c 0,9,10
 241 246 241 246 161 490 c 0,11,12
 117 624 117 624 117 780.5 c 128,-1,13
 117 937 117 937 160.5 1070 c 128,-1,14
 204 1203 204 1203 278.5 1297 c 128,-1,15
 353 1391 353 1391 453 1457 c 0,16,17
 648 1586 648 1586 897 1586 c 0,18,19
 1158 1586 1158 1586 1360 1456 c 0,20,21
 1576 1318 1576 1318 1657 1070 c 0,0,1
615 123.5 m 128,-1,23
 744 67 744 67 905.5 67 c 128,-1,24
 1067 67 1067 67 1199 123 c 128,-1,25
 1331 179 1331 179 1415 276.5 c 128,-1,26
 1499 374 1499 374 1543.5 502 c 128,-1,27
 1588 630 1588 630 1588 778 c 128,-1,28
 1588 926 1588 926 1543 1054.5 c 128,-1,29
 1498 1183 1498 1183 1413 1281.5 c 128,-1,30
 1328 1380 1328 1380 1195 1436.5 c 128,-1,31
 1062 1493 1062 1493 901 1493 c 128,-1,32
 740 1493 740 1493 612.5 1436.5 c 128,-1,33
 485 1380 485 1380 402 1282 c 0,34,35
 230 1080 230 1080 230 783 c 0,36,37
 230 482 230 482 403 278 c 0,38,22
 486 180 486 180 615 123.5 c 128,-1,23
857 843 m 2,39,40
 1005 843 1005 843 1073 875.5 c 128,-1,41
 1141 908 1141 908 1141 1000.5 c 128,-1,42
 1141 1093 1141 1093 1077.5 1121 c 128,-1,43
 1014 1149 1014 1149 847 1149 c 2,44,-1
 731 1149 l 1,45,-1
 731 843 l 1,46,-1
 857 843 l 2,39,40
914 716 m 1,47,-1
 731 716 l 1,48,-1
 731 301 l 1,49,-1
 599 301 l 1,50,-1
 599 1277 l 1,51,-1
 857 1277 l 2,52,53
 1300 1277 1300 1277 1300 1007 c 0,54,55
 1300 899 1300 899 1239 825.5 c 128,-1,56
 1178 752 1178 752 1040 735 c 1,57,58
 1100 688 1100 688 1161 580 c 0,59,60
 1185 538 1185 538 1232 453 c 128,-1,61
 1279 368 1279 368 1320 301 c 1,62,-1
 1171 301 l 1,63,-1
 1046 525 l 1,64,65
 963 678 963 678 914 716 c 1,47,-1
EndSplineSet
EndChar

StartChar: paragraph
Encoding: 182 182 120
Width: 1068
GlyphClass: 2
Flags: W
LayerCount: 2
Fore
SplineSet
393 -158 m 1,0,-1
 393 847 l 1,1,2
 286 849 286 849 197.5 903 c 128,-1,3
 109 957 109 957 61 1039.5 c 128,-1,4
 13 1122 13 1122 13 1201.5 c 128,-1,5
 13 1281 13 1281 38.5 1341.5 c 128,-1,6
 64 1402 64 1402 116 1452 c 0,7,8
 228 1561 228 1561 461 1561 c 2,9,-1
 927 1561 l 1,10,-1
 927 1430 l 1,11,-1
 852 1430 l 1,12,-1
 852 -158 l 1,13,-1
 737 -158 l 1,14,-1
 737 1430 l 1,15,-1
 518 1430 l 1,16,-1
 518 -158 l 1,17,-1
 393 -158 l 1,0,-1
EndSplineSet
EndChar

StartChar: AE
Encoding: 198 198 136
Width: 2092
GlyphClass: 2
Flags: W
LayerCount: 2
Fore
SplineSet
85 0 m 1,0,-1
 1001 1568 l 1,1,-1
 1946 1568 l 1,2,-1
 1946 1409 l 1,3,-1
 1241 1409 l 1,4,-1
 1280 882 l 1,5,-1
 1911 882 l 1,6,-1
 1911 724 l 1,7,-1
 1300 724 l 1,8,-1
 1342 158 l 1,9,-1
 1966 158 l 1,10,-1
 1966 0 l 1,11,-1
 1183 0 l 1,12,-1
 1152 427 l 1,13,-1
 498 427 l 1,14,-1
 258 0 l 1,15,-1
 85 0 l 1,0,-1
582 589 m 1,16,-1
 1130 589 l 1,17,-1
 1069 1409 l 1,18,-1
 582 589 l 1,16,-1
EndSplineSet
EndChar

StartChar: Oslash
Encoding: 216 216 154
Width: 1626
GlyphClass: 2
Flags: W
LayerCount: 2
Fore
SplineSet
502 -232 m 1,0,-1
 377 -189 l 1,1,-1
 473 50 l 1,2,3
 297 136 297 136 204.5 314.5 c 128,-1,4
 112 493 112 493 112 740 c 0,5,6
 112 1095 112 1095 297 1300 c 128,-1,7
 482 1505 482 1505 815 1505 c 0,8,9
 940 1505 940 1505 1047 1473 c 1,10,-1
 1136 1693 l 1,11,-1
 1267 1647 l 1,12,-1
 1175 1420 l 1,13,14
 1339 1330 1339 1330 1426.5 1154.5 c 128,-1,15
 1514 979 1514 979 1514 739 c 0,16,17
 1514 398 1514 398 1334 190 c 0,18,19
 1246 90 1246 90 1113 34 c 128,-1,20
 980 -22 980 -22 839.5 -22 c 128,-1,21
 699 -22 699 -22 598 4 c 1,22,-1
 502 -232 l 1,0,-1
989 1329 m 1,23,24
 911 1353 911 1353 815 1353 c 0,25,26
 562 1353 562 1353 429 1192 c 128,-1,27
 296 1031 296 1031 296 739 c 0,28,29
 296 344 296 344 534 199 c 1,30,-1
 989 1329 l 1,23,24
1114 1270 m 1,31,-1
 657 148 l 1,32,33
 733 129 733 129 814 129 c 0,34,35
 1070 129 1070 129 1199.5 291 c 128,-1,36
 1329 453 1329 453 1329 739 c 0,37,38
 1329 1121 1329 1121 1114 1270 c 1,31,-1
EndSplineSet
EndChar

StartChar: germandbls
Encoding: 223 223 161
Width: 1222
GlyphClass: 2
Flags: W
LayerCount: 2
Fore
SplineSet
771 148 m 2,0,1
 868 148 868 148 922.5 200.5 c 128,-1,2
 977 253 977 253 977 343 c 0,3,4
 977 443 977 443 877 522 c 0,5,6
 797 585 797 585 708 635.5 c 128,-1,7
 619 686 619 686 591 705 c 0,8,9
 509 761 509 761 509 820.5 c 128,-1,10
 509 880 509 880 574 934 c 0,11,12
 600 955 600 955 649 986.5 c 128,-1,13
 698 1018 698 1018 725.5 1038 c 128,-1,14
 753 1058 753 1058 776 1096 c 128,-1,15
 799 1134 799 1134 799 1182 c 0,16,17
 799 1269 799 1269 732 1321 c 128,-1,18
 665 1373 665 1373 568 1373 c 0,19,20
 286 1373 286 1373 286 1056 c 2,21,-1
 286 0 l 1,22,-1
 118 0 l 1,23,-1
 118 1046 l 2,24,25
 118 1275 118 1275 230 1400 c 128,-1,26
 342 1525 342 1525 550 1525 c 128,-1,27
 758 1525 758 1525 873 1433.5 c 128,-1,28
 988 1342 988 1342 988 1182 c 0,29,30
 988 1099 988 1099 961 1058.5 c 128,-1,31
 934 1018 934 1018 916.5 997.5 c 128,-1,32
 899 977 899 977 866 953 c 128,-1,33
 833 929 833 929 811 915 c 0,34,35
 781 896 781 896 683 838 c 1,36,37
 737 800 737 800 838.5 740 c 128,-1,38
 940 680 940 680 994 639.5 c 0,39,40
 1048 600 1048 600 1084 560 c 0,41,42
 1166 468 1166 468 1166 361.5 c 128,-1,43
 1166 255 1166 255 1137.5 186.5 c 0,44,45
 1108 118 1108 118 1056 78 c 0,46,47
 954 0 954 0 786 0 c 2,48,-1
 443 0 l 1,49,-1
 459 148 l 1,50,-1
 771 148 l 2,0,1
EndSplineSet
EndChar

StartChar: ae
Encoding: 230 230 168
Width: 1674
GlyphClass: 2
Flags: W
LayerCount: 2
Fore
SplineSet
888 615 m 1,0,-1
 1404 644 l 1,1,-1
 1404 654 l 1,2,3
 1402 825 1402 825 1350.5 904.5 c 128,-1,4
 1299 984 1299 984 1189 984 c 0,5,6
 1046 984 1046 984 971.5 882.5 c 128,-1,7
 897 781 897 781 888 615 c 1,0,-1
416 113 m 0,8,9
 510 112 510 112 718 184 c 0,10,11
 774 204 774 204 787 208 c 1,12,13
 720 330 720 330 711 499 c 1,14,15
 356 482 356 482 280 392 c 0,16,17
 248 354 248 354 248 291 c 0,18,19
 248 113 248 113 416 113 c 0,8,9
638 13.5 m 128,-1,21
 515 -26 515 -26 388 -26 c 128,-1,22
 261 -26 261 -26 170.5 52.5 c 128,-1,23
 80 131 80 131 80 300 c 0,24,25
 80 460 80 460 210 528 c 0,26,27
 293 572 293 572 382 586 c 0,28,29
 504 605 504 605 651 613 c 2,30,-1
 714 616 l 1,31,-1
 714 781 l 2,32,33
 714 883 714 883 671 929.5 c 128,-1,34
 628 976 628 976 527 976 c 0,35,36
 323 976 323 976 168 894 c 1,37,-1
 132 1032 l 1,38,39
 197 1069 197 1069 305.5 1096.5 c 128,-1,40
 414 1124 414 1124 529 1124 c 128,-1,41
 644 1124 644 1124 729.5 1075 c 128,-1,42
 815 1026 815 1026 837 932 c 1,43,44
 890 1027 890 1027 984.5 1075.5 c 128,-1,45
 1079 1124 1079 1124 1185 1124 c 128,-1,46
 1291 1124 1291 1124 1365 1087.5 c 128,-1,47
 1439 1051 1439 1051 1482 988 c 0,48,49
 1566 865 1566 865 1566 684 c 0,50,51
 1566 606 1566 606 1529.5 573 c 128,-1,52
 1493 540 1493 540 1379 534 c 2,53,-1
 882 509 l 1,54,55
 895 322 895 322 968.5 220.5 c 128,-1,56
 1042 119 1042 119 1194 119 c 0,57,58
 1282 119 1282 119 1368 152 c 128,-1,59
 1454 185 1454 185 1517 229 c 1,60,-1
 1569 108 l 1,61,62
 1415 -25 1415 -25 1198 -25 c 128,-1,63
 981 -25 981 -25 856 112 c 1,64,20
 761 53 761 53 638 13.5 c 128,-1,21
EndSplineSet
EndChar

StartChar: oslash
Encoding: 248 248 186
Width: 1200
GlyphClass: 2
Flags: W
LayerCount: 2
Fore
SplineSet
294 -235 m 1,0,-1
 223 -197 l 1,1,-1
 332 48 l 1,2,3
 217 119 217 119 154.5 250 c 128,-1,4
 92 381 92 381 92 548 c 0,5,6
 92 804 92 804 229 962 c 128,-1,7
 366 1120 366 1120 605 1120 c 0,8,9
 707 1120 707 1120 795 1087 c 1,10,-1
 902 1327 l 1,11,-1
 979 1296 l 1,12,-1
 869 1051 l 1,13,14
 984 981 984 981 1046 849.5 c 128,-1,15
 1108 718 1108 718 1108 549 c 0,16,17
 1108 294 1108 294 972 135.5 c 128,-1,18
 836 -23 836 -23 596 -23 c 0,19,20
 491 -23 491 -23 404 12 c 1,21,-1
 294 -235 l 1,0,-1
736 955 m 1,22,23
 675 980 675 980 601 980 c 0,24,25
 437 980 437 980 351 862 c 128,-1,26
 265 744 265 744 265 546 c 0,27,28
 265 299 265 299 394 188 c 1,29,-1
 736 955 l 1,22,23
807 913 m 1,30,-1
 463 144 l 1,31,32
 525 116 525 116 604 116 c 0,33,34
 768 116 768 116 851.5 233 c 128,-1,35
 935 350 935 350 935 548 c 0,36,37
 935 805 935 805 807 913 c 1,30,-1
EndSplineSet
EndChar

StartChar: Dcroat
Encoding: 272 272 201
Width: 1522
GlyphClass: 2
Flags: W
LayerCount: 2
Fore
SplineSet
324 697 m 1,0,-1
 324 155 l 1,1,-1
 639 155 l 2,2,3
 918 155 918 155 1070.5 301.5 c 128,-1,4
 1223 448 1223 448 1223 734 c 0,5,6
 1223 1132 1223 1132 957 1263 c 0,7,8
 799 1341 799 1341 540 1341 c 2,9,-1
 324 1341 l 1,10,-1
 324 832 l 1,11,-1
 566 832 l 1,12,-1
 566 697 l 1,13,-1
 324 697 l 1,0,-1
29 697 m 1,14,-1
 29 832 l 1,15,-1
 147 832 l 1,16,-1
 147 1496 l 1,17,-1
 519 1496 l 2,18,19
 1030 1496 1030 1496 1247 1254 c 0,20,21
 1412 1071 1412 1071 1412 738 c 0,22,23
 1412 370 1412 370 1193 182 c 0,24,25
 981 0 981 0 621 0 c 2,26,-1
 147 0 l 1,27,-1
 147 697 l 1,28,-1
 29 697 l 1,14,-1
EndSplineSet
EndChar

StartChar: Eth
Encoding: 208 208 206
Width: 1522
GlyphClass: 2
Flags: W
LayerCount: 2
Fore
SplineSet
147 0 m 1,0,-1
 147 697 l 1,1,-1
 29 697 l 1,2,-1
 29 832 l 1,3,-1
 147 832 l 1,4,-1
 147 1496 l 1,5,-1
 519 1496 l 2,6,7
 1030 1496 1030 1496 1247 1254 c 0,8,9
 1412 1071 1412 1071 1412 738 c 0,10,11
 1412 370 1412 370 1193 182 c 0,12,13
 981 0 981 0 621 0 c 2,14,-1
 147 0 l 1,0,-1
324 155 m 1,15,-1
 639 155 l 2,16,17
 918 155 918 155 1070.5 301.5 c 128,-1,18
 1223 448 1223 448 1223 734 c 0,19,20
 1223 1132 1223 1132 957 1263 c 0,21,22
 799 1341 799 1341 540 1341 c 2,23,-1
 324 1341 l 1,24,-1
 324 832 l 1,25,-1
 566 832 l 1,26,-1
 566 697 l 1,27,-1
 324 697 l 1,28,-1
 324 155 l 1,15,-1
EndSplineSet
EndChar

StartChar: Euro
Encoding: 8364 8364 207
Width: 1210
GlyphClass: 2
Flags: W
LayerCount: 2
Fore
SplineSet
407 845 m 1,0,1
 403 803 403 803 403 743 c 128,-1,2
 403 683 403 683 402 683 c 2,3,-1
 951 683 l 1,4,-1
 941 580 l 1,5,-1
 419 580 l 1,6,7
 441 396 441 396 531 270 c 0,8,9
 675 152 675 152 788 135 c 1,10,11
 948 135 948 135 1088 244 c 1,12,-1
 1087 69 l 1,13,14
 962 -22 962 -22 781 -22 c 0,15,16
 496 -22 496 -22 340 242 c 0,17,18
 253 389 253 389 227 580 c 1,19,-1
 106 580 l 1,20,-1
 123 683 l 1,21,-1
 215 683 l 1,22,23
 213 715 213 715 213 733.5 c 128,-1,24
 213 752 213 752 218 845 c 1,25,-1
 105 845 l 1,26,-1
 124 957 l 1,27,-1
 234 957 l 1,28,29
 272 1210 272 1210 410 1364 c 0,30,31
 553 1524 553 1524 796 1524 c 0,32,33
 977 1524 977 1524 1088 1429 c 1,34,-1
 1087 1249 l 1,35,36
 977 1369 977 1369 815 1369 c 128,-1,37
 653 1369 653 1369 555 1259.5 c 128,-1,38
 457 1150 457 1150 425 957 c 1,39,-1
 983 957 l 1,40,-1
 966 845 l 1,41,-1
 407 845 l 1,0,1
EndSplineSet
EndChar

StartChar: Hbar
Encoding: 294 294 211
Width: 1463
GlyphClass: 2
Flags: W
LayerCount: 2
Fore
SplineSet
324 1146 m 1,0,-1
 324 848 l 1,1,-1
 1141 848 l 1,2,-1
 1141 1146 l 1,3,-1
 324 1146 l 1,0,-1
1141 696 m 1,4,-1
 324 696 l 1,5,-1
 324 0 l 1,6,-1
 147 0 l 1,7,-1
 147 1146 l 1,8,-1
 57 1146 l 1,9,-1
 57 1251 l 1,10,-1
 147 1251 l 1,11,-1
 147 1496 l 1,12,-1
 324 1496 l 1,13,-1
 324 1251 l 1,14,-1
 1141 1251 l 1,15,-1
 1141 1496 l 1,16,-1
 1318 1496 l 1,17,-1
 1318 1251 l 1,18,-1
 1408 1251 l 1,19,-1
 1408 1146 l 1,20,-1
 1318 1146 l 1,21,-1
 1318 0 l 1,22,-1
 1141 0 l 1,23,-1
 1141 696 l 1,4,-1
EndSplineSet
EndChar

StartChar: Lcaron
Encoding: 317 317 222
Width: 1021
GlyphClass: 2
Flags: W
LayerCount: 2
Fore
SplineSet
709 1053 m 1,0,-1
 802 1525 l 1,1,-1
 959 1525 l 1,2,-1
 825 1053 l 1,3,-1
 709 1053 l 1,0,-1
174 0 m 1,4,-1
 174 1479 l 1,5,-1
 348 1479 l 1,6,-1
 348 154 l 1,7,-1
 999 154 l 1,8,-1
 993 0 l 1,9,-1
 174 0 l 1,4,-1
EndSplineSet
EndChar

StartChar: Lslash
Encoding: 321 321 225
Width: 960
GlyphClass: 2
Flags: W
LayerCount: 2
Fore
SplineSet
0 527 m 1,0,-1
 0 675 l 1,1,-1
 148 756 l 1,2,-1
 148 1496 l 1,3,-1
 325 1496 l 1,4,-1
 325 853 l 1,5,-1
 675 1045 l 1,6,-1
 675 889 l 1,7,-1
 325 701 l 1,8,-1
 325 155 l 1,9,-1
 982 155 l 1,10,-1
 970 0 l 1,11,-1
 148 0 l 1,12,-1
 148 606 l 1,13,-1
 0 527 l 1,0,-1
EndSplineSet
EndChar

StartChar: OE
Encoding: 338 338 229
Width: 1980
GlyphClass: 2
Flags: W
LayerCount: 2
Fore
SplineSet
444 1427 m 128,-1,1
 602 1524 602 1524 812 1524 c 128,-1,2
 1022 1524 1022 1524 1148 1413 c 1,3,-1
 1148 1495 l 1,4,-1
 1874 1495 l 1,5,-1
 1857 1341 l 1,6,-1
 1325 1341 l 1,7,-1
 1325 845 l 1,8,-1
 1821 845 l 1,9,-1
 1821 692 l 1,10,-1
 1325 692 l 1,11,-1
 1325 156 l 1,12,-1
 1898 156 l 1,13,-1
 1883 0 l 1,14,-1
 1148 0 l 1,15,-1
 1148 82 l 1,16,17
 1114 46 1114 46 1011 11.5 c 128,-1,18
 908 -23 908 -23 823 -23 c 0,19,20
 590 -23 590 -23 426 78 c 0,21,22
 101 278 101 278 101 771 c 1,23,24
 106 987 106 987 196 1158.5 c 128,-1,0
 286 1330 286 1330 444 1427 c 128,-1,1
1148 1259 m 1,25,26
 1009 1373 1009 1373 815 1373 c 0,27,28
 577 1373 577 1373 437 1206.5 c 128,-1,29
 297 1040 297 1040 291 773 c 1,30,31
 291 284 291 284 619 164 c 0,32,33
 715 129 715 129 813 128 c 0,34,35
 907 128 907 128 1004 160 c 0,36,37
 1098 192 1098 192 1148 222 c 1,38,-1
 1148 1259 l 1,25,26
EndSplineSet
EndChar

StartChar: Thorn
Encoding: 222 222 243
Width: 1291
GlyphClass: 2
Flags: W
LayerCount: 2
Fore
SplineSet
324 493 m 1,0,-1
 708 493 l 2,1,2
 1040 493 1040 493 1040 782 c 0,3,4
 1040 932 1040 932 954.5 1000 c 128,-1,5
 869 1068 869 1068 666 1068 c 2,6,-1
 324 1068 l 1,7,-1
 324 493 l 1,0,-1
147 0 m 1,8,-1
 147 1496 l 1,9,-1
 324 1496 l 1,10,-1
 324 1217 l 1,11,-1
 648 1217 l 2,12,13
 929 1217 929 1217 1069 1118.5 c 128,-1,14
 1209 1020 1209 1020 1209 800 c 0,15,16
 1209 580 1209 580 1089 461 c 128,-1,17
 969 342 969 342 719 342 c 1,18,-1
 324 349 l 1,19,-1
 324 0 l 1,20,-1
 147 0 l 1,8,-1
EndSplineSet
EndChar

StartChar: acute
Encoding: 180 180 254
Width: 639
GlyphClass: 2
Flags: W
LayerCount: 2
Fore
SplineSet
567 1638 m 1,0,-1
 242 1250 l 1,1,-1
 128 1250 l 1,2,-1
 314 1638 l 1,3,-1
 567 1638 l 1,0,-1
EndSplineSet
EndChar

StartChar: approxequal
Encoding: 8776 8776 257
Width: 1314
GlyphClass: 2
Flags: W
LayerCount: 2
Fore
SplineSet
898 411 m 0,0,1
 1017 411 1017 411 1080 589 c 1,2,-1
 1178 558 l 1,3,4
 1152 426 1152 426 1085 354 c 128,-1,5
 1018 282 1018 282 902 282 c 128,-1,6
 786 282 786 282 642 370.5 c 128,-1,7
 498 459 498 459 427 459 c 0,8,9
 292 459 292 459 239 280 c 1,10,-1
 138 312 l 1,11,12
 163 444 163 444 237 516.5 c 128,-1,13
 311 589 311 589 428 589 c 0,14,15
 532 590 532 590 720 482 c 0,16,17
 744 468 744 468 754 462.5 c 128,-1,18
 764 457 764 457 783.5 446.5 c 128,-1,19
 803 436 803 436 815 431.5 c 0,20,21
 827 428 827 428 843 422 c 0,22,23
 874 412 874 412 898 411 c 0,0,1
896 810 m 0,24,25
 1017 810 1017 810 1077 988 c 1,26,-1
 1176 959 l 1,27,28
 1123 684 1123 684 892 684 c 0,29,30
 779 684 779 684 638.5 772 c 128,-1,31
 498 860 498 860 424 860 c 0,32,33
 286 860 286 860 239 684 c 1,34,-1
 136 712 l 1,35,36
 160 842 160 842 235 915 c 128,-1,37
 310 988 310 988 427 988 c 0,38,39
 531 988 531 988 689 893 c 0,40,41
 827 810 827 810 896 810 c 0,24,25
EndSplineSet
EndChar

StartChar: breve
Encoding: 728 728 258
Width: 754
GlyphClass: 2
Flags: W
LayerCount: 2
Fore
SplineSet
554 1367.5 m 128,-1,1
 478 1299 478 1299 377.5 1299 c 128,-1,2
 277 1299 277 1299 202.5 1367 c 128,-1,3
 128 1435 128 1435 128 1557 c 1,4,-1
 244 1557 l 1,5,6
 244 1488 244 1488 281.5 1452 c 128,-1,7
 319 1416 319 1416 377 1416 c 128,-1,8
 435 1416 435 1416 474 1452 c 128,-1,9
 513 1488 513 1488 513 1557 c 1,10,-1
 630 1557 l 1,11,0
 630 1436 630 1436 554 1367.5 c 128,-1,1
EndSplineSet
EndChar

StartChar: brokenbar
Encoding: 166 166 259
Width: 788
GlyphClass: 2
Flags: W
LayerCount: 2
Fore
SplineSet
322 310 m 1,0,-1
 468 310 l 1,1,-1
 468 -399 l 1,2,-1
 322 -399 l 1,3,-1
 322 310 l 1,0,-1
322 1579 m 1,4,-1
 468 1579 l 1,5,-1
 468 872 l 1,6,-1
 322 872 l 1,7,-1
 322 1579 l 1,4,-1
EndSplineSet
EndChar

StartChar: bullet
Encoding: 8226 8226 260
Width: 867
GlyphClass: 2
Flags: W
LayerCount: 2
Fore
SplineSet
644 987.5 m 128,-1,1
 731 889 731 889 731 752 c 128,-1,2
 731 615 731 615 642 515 c 128,-1,3
 553 415 553 415 431 415 c 128,-1,4
 309 415 309 415 223 513 c 128,-1,5
 137 611 137 611 137 747.5 c 128,-1,6
 137 884 137 884 227 985 c 128,-1,7
 317 1086 317 1086 437 1086 c 128,-1,0
 557 1086 557 1086 644 987.5 c 128,-1,1
EndSplineSet
EndChar

StartChar: caron
Encoding: 711 711 262
Width: 800
GlyphClass: 2
Flags: W
LayerCount: 2
Fore
SplineSet
108 1639 m 1,0,-1
 239 1639 l 1,1,-1
 400 1327 l 1,2,-1
 561 1639 l 1,3,-1
 695 1639 l 1,4,-1
 508 1251 l 1,5,-1
 295 1251 l 1,6,-1
 108 1639 l 1,0,-1
EndSplineSet
EndChar

StartChar: cedilla
Encoding: 184 184 265
Width: 596
GlyphClass: 2
Flags: W
LayerCount: 2
Fore
SplineSet
268 -410 m 1,0,-1
 114 -410 l 1,1,-1
 226 16 l 1,2,-1
 312 16 l 1,3,-1
 268 -410 l 1,0,-1
EndSplineSet
EndChar

StartChar: cent
Encoding: 162 162 266
Width: 1102
GlyphClass: 2
Flags: W
LayerCount: 2
Fore
SplineSet
547 1496 m 1,0,-1
 642 1496 l 1,1,-1
 642 1314 l 1,2,3
 809 1303 809 1303 896 1221 c 1,4,-1
 854 1102 l 1,5,6
 759 1166 759 1166 642 1176 c 1,7,-1
 642 307 l 1,8,9
 755 318 755 318 855 388 c 1,10,-1
 897 268 l 1,11,12
 803 182 803 182 642 170 c 1,13,-1
 642 1 l 1,14,-1
 547 1 l 1,15,-1
 547 170 l 1,16,17
 398 183 398 183 288 265 c 128,-1,18
 178 347 178 347 124 471 c 0,19,20
 70 594 70 594 70 720 c 0,21,22
 70 848 70 848 104 949 c 0,23,24
 137 1048 137 1048 197 1126 c 128,-1,25
 257 1204 257 1204 348 1254.5 c 128,-1,26
 439 1305 439 1305 547 1314 c 1,27,-1
 547 1496 l 1,0,-1
547 310 m 1,28,-1
 547 1174 l 1,29,30
 413 1154 413 1154 327 1032 c 128,-1,31
 241 910 241 910 241 738 c 128,-1,32
 241 566 241 566 324.5 449 c 128,-1,33
 408 332 408 332 547 310 c 1,28,-1
EndSplineSet
EndChar

StartChar: circumflex
Encoding: 710 710 267
Width: 800
GlyphClass: 2
Flags: W
LayerCount: 2
Fore
SplineSet
108 1251 m 1,0,-1
 295 1639 l 1,1,-1
 508 1639 l 1,2,-1
 695 1251 l 1,3,-1
 561 1251 l 1,4,-1
 400 1523 l 1,5,-1
 239 1251 l 1,6,-1
 108 1251 l 1,0,-1
EndSplineSet
EndChar

StartChar: uni0326
Encoding: 806 806 268
Width: 555
GlyphClass: 2
Flags: W
LayerCount: 2
Fore
SplineSet
144 -672 m 1,0,-1
 238 -174 l 1,1,-1
 404 -174 l 1,2,-1
 261 -672 l 1,3,-1
 144 -672 l 1,0,-1
EndSplineSet
EndChar

StartChar: currency
Encoding: 164 164 269
Width: 1151
GlyphClass: 2
Flags: W
LayerCount: 2
Fore
SplineSet
267 732 m 128,-1,1
 267 604 267 604 357.5 513.5 c 128,-1,2
 448 423 448 423 576.5 423 c 128,-1,3
 705 423 705 423 795.5 513.5 c 128,-1,4
 886 604 886 604 886 732 c 128,-1,5
 886 860 886 860 795 951 c 128,-1,6
 704 1042 704 1042 576 1042 c 128,-1,7
 448 1042 448 1042 357.5 951 c 128,-1,0
 267 860 267 860 267 732 c 128,-1,1
241 482 m 1,8,9
 158 595 158 595 158 731 c 128,-1,10
 158 867 158 867 241 981 c 1,11,-1
 55 1160 l 1,12,-1
 129 1232 l 1,13,-1
 313 1057 l 1,14,15
 426 1150 426 1150 575 1150 c 128,-1,16
 724 1150 724 1150 838 1056 c 1,17,-1
 1025 1232 l 1,18,-1
 1095 1158 l 1,19,-1
 911 981 l 1,20,21
 994 864 994 864 994 728 c 128,-1,22
 994 592 994 592 912 482 c 1,23,-1
 1094 306 l 1,24,-1
 1025 232 l 1,25,-1
 838 408 l 1,26,27
 723 315 723 315 574 315 c 128,-1,28
 425 315 425 315 313 408 c 1,29,-1
 129 233 l 1,30,-1
 56 305 l 1,31,-1
 241 482 l 1,8,9
EndSplineSet
EndChar

StartChar: dagger
Encoding: 8224 8224 270
Width: 876
GlyphClass: 2
Flags: W
LayerCount: 2
Fore
SplineSet
369 121 m 1,0,-1
 369 1047 l 1,1,-1
 71 1047 l 1,2,-1
 71 1149 l 1,3,-1
 369 1149 l 1,4,-1
 369 1561 l 1,5,-1
 499 1561 l 1,6,-1
 499 1149 l 1,7,-1
 806 1149 l 1,8,-1
 806 1047 l 1,9,-1
 499 1047 l 1,10,-1
 499 121 l 1,11,-1
 369 121 l 1,0,-1
EndSplineSet
EndChar

StartChar: daggerdbl
Encoding: 8225 8225 271
Width: 950
GlyphClass: 2
Flags: W
LayerCount: 2
Fore
SplineSet
413 110 m 1,0,-1
 413 467 l 1,1,-1
 107 467 l 1,2,-1
 107 604 l 1,3,-1
 413 604 l 1,4,-1
 413 1059 l 1,5,-1
 112 1059 l 1,6,-1
 112 1199 l 1,7,-1
 413 1199 l 1,8,-1
 413 1550 l 1,9,-1
 543 1550 l 1,10,-1
 543 1199 l 1,11,-1
 850 1199 l 1,12,-1
 850 1059 l 1,13,-1
 543 1059 l 1,14,-1
 543 604 l 1,15,-1
 843 604 l 1,16,-1
 843 467 l 1,17,-1
 543 467 l 1,18,-1
 543 110 l 1,19,-1
 413 110 l 1,0,-1
EndSplineSet
EndChar

StartChar: dcaron
Encoding: 271 271 272
Width: 1211
GlyphClass: 2
Flags: W
LayerCount: 2
Fore
SplineSet
1217 1061 m 1,0,-1
 1310 1533 l 1,1,-1
 1467 1533 l 1,2,-1
 1333 1061 l 1,3,-1
 1217 1061 l 1,0,-1
571 121 m 0,4,5
 897 121 897 121 897 530 c 0,6,7
 897 752 897 752 819.5 864.5 c 128,-1,8
 742 977 742 977 569 977 c 0,9,10
 346 976 346 976 284 716 c 0,11,12
 266 640 266 640 265.5 530.5 c 128,-1,13
 265 421 265 421 296.5 327 c 128,-1,14
 328 233 328 233 398 177 c 128,-1,15
 468 121 468 121 571 121 c 0,4,5
900 159 m 1,16,17
 846 76 846 76 756 27 c 128,-1,18
 666 -22 666 -22 555 -22 c 0,19,20
 338 -22 338 -22 215 132.5 c 128,-1,21
 92 287 92 287 92 547 c 128,-1,22
 92 807 92 807 217 963.5 c 128,-1,23
 342 1120 342 1120 552 1120 c 0,24,25
 661 1120 661 1120 757.5 1072.5 c 128,-1,26
 854 1025 854 1025 902 945 c 1,27,-1
 899 1040 l 1,28,-1
 899 1523 l 1,29,-1
 1064 1533 l 1,30,-1
 1064 0 l 1,31,-1
 922 0 l 1,32,-1
 900 159 l 1,16,17
EndSplineSet
EndChar

StartChar: dcroat
Encoding: 273 273 273
Width: 1168
GlyphClass: 2
Flags: W
LayerCount: 2
Fore
SplineSet
541 -24 m 0,0,1
 323 -24 323 -24 196.5 137.5 c 128,-1,2
 70 299 70 299 70 561 c 0,3,4
 70 716 70 716 127.5 844.5 c 128,-1,5
 185 973 185 973 292 1049 c 128,-1,6
 399 1125 399 1125 522.5 1125 c 128,-1,7
 646 1125 646 1125 742.5 1074 c 128,-1,8
 839 1023 839 1023 881 937 c 1,9,-1
 881 1199 l 1,10,-1
 658 1199 l 1,11,-1
 658 1341 l 1,12,-1
 881 1341 l 1,13,-1
 881 1490 l 1,14,-1
 1049 1510 l 1,15,-1
 1049 1341 l 1,16,-1
 1166 1341 l 1,17,-1
 1166 1199 l 1,18,-1
 1049 1199 l 1,19,-1
 1049 0 l 1,20,-1
 900 0 l 1,21,-1
 879 172 l 1,22,23
 830 84 830 84 740.5 30 c 128,-1,24
 651 -24 651 -24 541 -24 c 0,0,1
797.5 244 m 128,-1,26
 882 364 882 364 882 551 c 0,27,28
 882 734 882 734 804 852 c 0,29,30
 721 977 721 977 550 977 c 0,31,32
 470 977 470 977 408.5 940 c 0,33,34
 347 902 347 902 312 840 c 0,35,36
 243 717 243 717 243 556 c 0,37,38
 243 382 243 382 312 258 c 0,39,40
 387 124 387 124 550 124 c 129,-1,25
 713 124 713 124 797.5 244 c 128,-1,26
EndSplineSet
EndChar

StartChar: degree
Encoding: 176 176 274
Width: 846
GlyphClass: 2
Flags: W
LayerCount: 2
Fore
SplineSet
235 1205 m 128,-1,1
 235 1124 235 1124 290.5 1067 c 128,-1,2
 346 1010 346 1010 424 1010 c 128,-1,3
 502 1010 502 1010 557.5 1067 c 128,-1,4
 613 1124 613 1124 613 1205 c 128,-1,5
 613 1286 613 1286 557.5 1342.5 c 128,-1,6
 502 1399 502 1399 424 1399 c 0,7,8
 346 1399 346 1399 290.5 1342.5 c 128,-1,0
 235 1286 235 1286 235 1205 c 128,-1,1
112 1205 m 128,-1,10
 112 1335 112 1335 203.5 1427 c 128,-1,11
 295 1519 295 1519 423 1519 c 128,-1,12
 551 1519 551 1519 643 1427 c 128,-1,13
 735 1335 735 1335 735 1206 c 0,14,15
 735 1077 735 1077 644 983 c 128,-1,16
 553 889 553 889 424 889 c 0,17,18
 295 889 295 889 203.5 982 c 128,-1,9
 112 1075 112 1075 112 1205 c 128,-1,10
EndSplineSet
EndChar

StartChar: dieresis
Encoding: 168 168 275
Width: 770
GlyphClass: 2
Flags: W
LayerCount: 2
Fore
SplineSet
663 1254 m 1,0,-1
 508 1254 l 1,1,-1
 508 1466 l 1,2,-1
 663 1466 l 1,3,-1
 663 1254 l 1,0,-1
272 1254 m 1,4,-1
 118 1254 l 1,5,-1
 118 1466 l 1,6,-1
 272 1466 l 1,7,-1
 272 1254 l 1,4,-1
EndSplineSet
EndChar

StartChar: divide
Encoding: 247 247 276
Width: 1211
GlyphClass: 2
Flags: W
LayerCount: 2
Fore
SplineSet
1098 523 m 1,0,-1
 97 523 l 1,1,-1
 97 672 l 1,2,-1
 1098 672 l 1,3,-1
 1098 523 l 1,0,-1
716 1166 m 1,4,-1
 716 939 l 1,5,-1
 491 939 l 1,6,-1
 491 1166 l 1,7,-1
 716 1166 l 1,4,-1
682 249 m 1,8,-1
 682 22 l 1,9,-1
 491 22 l 1,10,-1
 491 249 l 1,11,-1
 682 249 l 1,8,-1
EndSplineSet
EndChar

StartChar: dotaccent
Encoding: 729 729 277
Width: 411
GlyphClass: 2
Flags: W
LayerCount: 2
Fore
SplineSet
290 1496 m 1,0,-1
 290 1298 l 1,1,-1
 122 1298 l 1,2,-1
 122 1496 l 1,3,-1
 290 1496 l 1,0,-1
EndSplineSet
EndChar

StartChar: dotlessi
Encoding: 305 305 278
Width: 430
GlyphClass: 2
Flags: W
LayerCount: 2
Fore
SplineSet
304 1098 m 1,0,-1
 304 0 l 1,1,-1
 135 0 l 1,2,-1
 135 1098 l 1,3,-1
 304 1098 l 1,0,-1
EndSplineSet
EndChar

StartChar: emdash
Encoding: 8212 8212 283
Width: 2427
GlyphClass: 2
Flags: W
LayerCount: 2
Fore
SplineSet
2296 675 m 1,0,-1
 2296 527 l 1,1,-1
 139 527 l 1,2,-1
 139 675 l 1,3,-1
 2296 675 l 1,0,-1
EndSplineSet
EndChar

StartChar: endash
Encoding: 8211 8211 284
Width: 1317
GlyphClass: 2
Flags: W
LayerCount: 2
Fore
SplineSet
1186 675 m 1,0,-1
 1186 527 l 1,1,-1
 139 527 l 1,2,-1
 139 675 l 1,3,-1
 1186 675 l 1,0,-1
EndSplineSet
EndChar

StartChar: eth
Encoding: 240 240 286
Width: 1204
GlyphClass: 2
Flags: W
LayerCount: 2
Fore
SplineSet
603 833 m 0,0,1
 449 833 449 833 359 733 c 128,-1,2
 269 633 269 633 269 485 c 0,3,4
 269 272 269 272 421 168 c 0,5,6
 500 114 500 114 609 114 c 0,7,8
 766 114 766 114 855.5 215 c 128,-1,9
 945 316 945 316 945 472 c 0,10,11
 945 614 945 614 858 720 c 0,12,13
 816 771 816 771 749.5 802 c 128,-1,14
 683 833 683 833 603 833 c 0,0,1
569 972 m 0,15,16
 715 972 715 972 844 877 c 1,17,18
 761 1035 761 1035 541 1257 c 1,19,-1
 269 1145 l 1,20,-1
 226 1277 l 1,21,-1
 446 1364 l 1,22,-1
 210 1588 l 1,23,-1
 433 1588 l 1,24,-1
 579 1429 l 1,25,-1
 868 1542 l 1,26,-1
 914 1413 l 1,27,-1
 672 1320 l 1,28,29
 920 1050 920 1050 1015 884 c 1,30,31
 1117 692 1117 692 1117 492 c 0,32,33
 1117 267 1117 267 988 124 c 0,34,35
 854 -25 854 -25 603 -25 c 0,36,37
 482 -25 482 -25 383 16 c 0,38,39
 284 58 284 58 220 128 c 0,40,41
 87 275 87 275 87 490 c 128,-1,42
 87 705 87 705 219.5 838.5 c 128,-1,43
 352 972 352 972 569 972 c 0,15,16
EndSplineSet
EndChar

StartChar: florin
Encoding: 402 402 288
Width: 978
GlyphClass: 2
Flags: W
LayerCount: 2
Fore
SplineSet
257 895 m 1,0,-1
 265 1015 l 1,1,-1
 438 1015 l 1,2,-1
 460 1178 l 1,3,4
 512 1547 512 1547 783 1547 c 0,5,6
 832 1547 832 1547 911 1525 c 1,7,-1
 903 1369 l 1,8,9
 849 1393 849 1393 791 1393 c 128,-1,10
 733 1393 733 1393 700 1353 c 128,-1,11
 667 1313 667 1313 654 1227 c 1,12,-1
 615 1015 l 1,13,-1
 801 1015 l 1,14,-1
 793 895 l 1,15,-1
 596 895 l 1,16,-1
 460 130 l 1,17,18
 412 -121 412 -121 357 -211 c 0,19,20
 296 -310 296 -310 220 -340 c 0,21,22
 174 -358 174 -358 132 -358 c 128,-1,23
 90 -358 90 -358 28 -339 c 1,24,-1
 39 -192 l 1,25,26
 83 -210 83 -210 115.5 -210 c 128,-1,27
 148 -210 148 -210 178 -178 c 0,28,29
 228 -126 228 -126 255 6 c 1,30,31
 292 166 292 166 347 495 c 128,-1,32
 402 824 402 824 415 895 c 1,33,-1
 257 895 l 1,0,-1
EndSplineSet
EndChar

StartChar: fraction
Encoding: 8260 8260 289
Width: 1135
GlyphClass: 2
Flags: W
LayerCount: 2
Fore
SplineSet
936 1547 m 1,0,-1
 1066 1547 l 1,1,-1
 191 0 l 1,2,-1
 60 0 l 1,3,-1
 936 1547 l 1,0,-1
EndSplineSet
EndChar

StartChar: gcommaaccent
Encoding: 291 291 292
Width: 1187
GlyphClass: 2
Flags: W
LayerCount: 2
Fore
SplineSet
793 1749 m 1,0,-1
 683 1250 l 1,1,-1
 488 1250 l 1,2,-1
 653 1749 l 1,3,-1
 793 1749 l 1,0,-1
578 143 m 0,4,5
 654 143 654 143 718 173 c 128,-1,6
 782 203 782 203 818 256 c 0,7,8
 889 361 889 361 889 516 c 2,9,-1
 889 597 l 2,10,11
 890 762 890 762 816 866 c 0,12,13
 736 980 736 980 570 979 c 0,14,15
 378 980 378 980 290 786 c 0,16,17
 242 681 242 681 242 554 c 0,18,19
 242 358 242 358 355 234 c 0,20,21
 437 144 437 144 578 143 c 0,4,5
556 1120 m 0,22,23
 763 1120 763 1120 889 951 c 1,24,-1
 889 1097 l 1,25,-1
 1052 1097 l 1,26,-1
 1052 79 l 2,27,28
 1052 -156 1052 -156 995 -270 c 0,29,30
 938 -386 938 -386 832 -438 c 0,31,32
 702 -502 702 -502 497 -502 c 2,33,-1
 312 -502 l 1,34,-1
 297 -351 l 1,35,-1
 501 -351 l 2,36,37
 675 -352 675 -352 754 -300 c 0,38,39
 838 -246 838 -246 862 -152 c 0,40,41
 884 -63 884 -63 884 83 c 2,42,-1
 884 180 l 1,43,44
 824 94 824 94 745 47.5 c 128,-1,45
 666 1 666 1 558 1 c 128,-1,46
 450 1 450 1 370.5 33.5 c 128,-1,47
 291 66 291 66 236.5 120 c 128,-1,48
 182 174 182 174 144 245 c 0,49,50
 70 381 70 381 70 523 c 128,-1,51
 70 665 70 665 99.5 767 c 128,-1,52
 129 869 129 869 187 949 c 128,-1,53
 245 1029 245 1029 339.5 1074.5 c 128,-1,54
 434 1120 434 1120 556 1120 c 0,22,23
EndSplineSet
EndChar

StartChar: greaterequal
Encoding: 8805 8805 293
Width: 1183
GlyphClass: 2
Flags: W
LayerCount: 2
Fore
SplineSet
1080 141 m 1,0,-1
 1080 8 l 1,1,-1
 120 8 l 1,2,-1
 120 141 l 1,3,-1
 1080 141 l 1,0,-1
150 1164 m 1,4,-1
 150 1314 l 1,5,-1
 1063 806 l 1,6,-1
 1063 719 l 1,7,-1
 146 234 l 1,8,-1
 146 385 l 1,9,-1
 908 762 l 1,10,-1
 150 1164 l 1,4,-1
EndSplineSet
EndChar

StartChar: guillemotleft
Encoding: 171 171 294
Width: 1000
GlyphClass: 2
Flags: W
LayerCount: 2
Fore
SplineSet
390 149 m 1,0,-1
 120 520 l 1,1,-1
 100 567 l 1,2,-1
 393 970 l 1,3,-1
 536 935 l 1,4,-1
 262 561 l 1,5,-1
 531 185 l 1,6,-1
 390 149 l 1,0,-1
771 149 m 1,7,8
 689 259 689 259 524 490 c 2,9,-1
 469 567 l 1,10,-1
 773 970 l 1,11,-1
 901 935 l 1,12,-1
 642 561 l 1,13,-1
 898 185 l 1,14,-1
 771 149 l 1,7,8
EndSplineSet
EndChar

StartChar: guillemotright
Encoding: 187 187 295
Width: 1012
GlyphClass: 2
Flags: W
LayerCount: 2
Fore
SplineSet
534 554 m 1,0,-1
 230 149 l 1,1,-1
 102 185 l 1,2,-1
 361 562 l 1,3,-1
 104 935 l 1,4,-1
 231 970 l 1,5,-1
 534 554 l 1,0,-1
915 554 m 1,6,-1
 622 149 l 1,7,-1
 483 185 l 1,8,-1
 753 562 l 1,9,-1
 488 935 l 1,10,-1
 625 970 l 1,11,-1
 915 554 l 1,6,-1
EndSplineSet
EndChar

StartChar: guilsinglleft
Encoding: 8249 8249 296
Width: 620
GlyphClass: 2
Flags: W
LayerCount: 2
Fore
SplineSet
361 982 m 1,0,-1
 501 982 l 1,1,-1
 269 583 l 1,2,-1
 495 182 l 1,3,-1
 356 182 l 1,4,-1
 120 583 l 1,5,-1
 361 982 l 1,0,-1
EndSplineSet
EndChar

StartChar: guilsinglright
Encoding: 8250 8250 297
Width: 617
GlyphClass: 2
Flags: W
LayerCount: 2
Fore
SplineSet
505 585 m 1,0,-1
 264 182 l 1,1,-1
 124 182 l 1,2,-1
 355 585 l 1,3,-1
 130 982 l 1,4,-1
 269 982 l 1,5,-1
 505 585 l 1,0,-1
EndSplineSet
EndChar

StartChar: hbar
Encoding: 295 295 298
Width: 1112
GlyphClass: 2
Flags: W
LayerCount: 2
Fore
SplineSet
282 0 m 1,0,-1
 114 0 l 1,1,-1
 114 1270 l 1,2,-1
 21 1270 l 1,3,-1
 21 1386 l 1,4,-1
 114 1386 l 1,5,-1
 114 1490 l 1,6,-1
 282 1510 l 1,7,-1
 282 1386 l 1,8,-1
 558 1386 l 1,9,-1
 558 1270 l 1,10,-1
 282 1270 l 1,11,-1
 282 949 l 1,12,13
 427 1124 427 1124 674 1124 c 0,14,15
 842 1124 842 1124 924.5 1004.5 c 128,-1,16
 1007 885 1007 885 1007 664 c 2,17,-1
 1007 0 l 1,18,-1
 839 0 l 1,19,-1
 839 617 l 2,20,21
 840 858 840 858 778 924 c 0,22,23
 727 980 727 980 612.5 980 c 128,-1,24
 498 980 498 980 401 906.5 c 128,-1,25
 304 833 304 833 282 748 c 1,26,-1
 282 0 l 1,0,-1
EndSplineSet
EndChar

StartChar: hungarumlaut
Encoding: 733 733 300
Width: 817
GlyphClass: 2
Flags: W
LayerCount: 2
Fore
SplineSet
479 1594 m 1,0,-1
 227 1259 l 1,1,-1
 128 1259 l 1,2,-1
 326 1594 l 1,3,-1
 479 1594 l 1,0,-1
713 1594 m 1,4,-1
 463 1259 l 1,5,-1
 361 1259 l 1,6,-1
 563 1594 l 1,7,-1
 713 1594 l 1,4,-1
EndSplineSet
EndChar

StartChar: infinity
Encoding: 8734 8734 304
Width: 1811
GlyphClass: 2
Flags: W
LayerCount: 2
Fore
SplineSet
1585.5 913.5 m 128,-1,1
 1678 810 1678 810 1678 641 c 128,-1,2
 1678 472 1678 472 1576 363 c 128,-1,3
 1474 254 1474 254 1323 254 c 0,4,5
 1211 254 1211 254 1112 320 c 128,-1,6
 1013 386 1013 386 909 525 c 1,7,8
 810 395 810 395 710 324.5 c 128,-1,9
 610 254 610 254 496.5 254 c 0,10,11
 382 254 382 254 300 310 c 0,12,13
 134 422 134 422 135 659 c 0,14,15
 135 808 135 808 237.5 912.5 c 128,-1,16
 340 1017 340 1017 474.5 1017 c 128,-1,17
 609 1017 609 1017 709 947.5 c 128,-1,18
 809 878 809 878 909 745 c 1,19,20
 1004 876 1004 876 1103.5 946.5 c 128,-1,21
 1203 1017 1203 1017 1326 1017 c 0,22,0
 1493 1017 1493 1017 1585.5 913.5 c 128,-1,1
313.5 819 m 128,-1,24
 248 745 248 745 248 640.5 c 128,-1,25
 248 536 248 536 318 458.5 c 128,-1,26
 388 381 388 381 495 381 c 0,27,28
 666 381 666 381 838 636 c 1,29,30
 675 893 675 893 487 893 c 0,31,23
 379 893 379 893 313.5 819 c 128,-1,24
1496.5 460.5 m 128,-1,33
 1555 540 1555 540 1555 650 c 128,-1,34
 1555 760 1555 760 1488.5 826.5 c 128,-1,35
 1422 893 1422 893 1324 893 c 128,-1,36
 1226 893 1226 893 1143 823.5 c 128,-1,37
 1060 754 1060 754 982 638 c 1,38,39
 1081 503 1081 503 1158 442 c 128,-1,40
 1235 381 1235 381 1336.5 381 c 128,-1,32
 1438 381 1438 381 1496.5 460.5 c 128,-1,33
EndSplineSet
EndChar

StartChar: integral
Encoding: 8747 8747 305
Width: 698
GlyphClass: 2
Flags: W
LayerCount: 2
Fore
SplineSet
277 -50 m 2,0,-1
 277 1351 l 2,1,2
 277 1756 277 1756 540 1756 c 0,3,4
 582 1756 582 1756 661 1733 c 1,5,-1
 662 1594 l 1,6,7
 629 1610 629 1610 555 1610 c 128,-1,8
 481 1610 481 1610 451 1555.5 c 128,-1,9
 421 1501 421 1501 421 1379 c 2,10,-1
 421 -25 l 2,11,12
 420 -321 420 -321 286 -399 c 0,13,14
 234 -429 234 -429 171.5 -429 c 128,-1,15
 109 -429 109 -429 41 -409 c 1,16,-1
 40 -270 l 1,17,18
 69 -284 69 -284 143.5 -284 c 128,-1,19
 218 -284 218 -284 247.5 -228.5 c 128,-1,20
 277 -173 277 -173 277 -50 c 2,0,-1
EndSplineSet
EndChar

StartChar: kgreenlandic
Encoding: 312 312 310
Width: 1104
GlyphClass: 2
Flags: W
LayerCount: 2
Fore
SplineSet
823 0 m 1,0,-1
 293 506 l 1,1,-1
 293 0 l 1,2,-1
 147 0 l 1,3,-1
 147 1105 l 1,4,-1
 293 1105 l 1,5,-1
 293 600 l 1,6,-1
 776 1105 l 1,7,-1
 981 1105 l 1,8,-1
 458 551 l 1,9,10
 807 227 807 227 1014 0 c 1,11,-1
 823 0 l 1,0,-1
EndSplineSet
EndChar

StartChar: lcaron
Encoding: 318 318 312
Width: 569
GlyphClass: 2
Flags: W
LayerCount: 2
Fore
SplineSet
479 1038 m 1,0,-1
 572 1510 l 1,1,-1
 729 1510 l 1,2,-1
 595 1038 l 1,3,-1
 479 1038 l 1,0,-1
438 -20 m 0,4,5
 278 -20 278 -20 211.5 66 c 128,-1,6
 145 152 145 152 145 365 c 2,7,-1
 145 1523 l 1,8,-1
 311 1533 l 1,9,-1
 311 431 l 2,10,11
 311 232 311 232 336 182 c 0,12,13
 360 134 360 134 410 124 c 0,14,15
 436 118 436 118 472 118 c 128,-1,16
 508 118 508 118 602 130 c 1,17,-1
 611 -3 l 1,18,19
 508 -20 508 -20 438 -20 c 0,4,5
EndSplineSet
EndChar

StartChar: ldot
Encoding: 320 320 314
Width: 569
GlyphClass: 2
Flags: W
LayerCount: 2
Fore
SplineSet
887 759 m 1,0,-1
 887 561 l 1,1,-1
 719 561 l 1,2,-1
 719 759 l 1,3,-1
 887 759 l 1,0,-1
438 -20 m 0,4,5
 278 -20 278 -20 211.5 66 c 128,-1,6
 145 152 145 152 145 365 c 2,7,-1
 145 1523 l 1,8,-1
 311 1533 l 1,9,-1
 311 431 l 2,10,11
 311 232 311 232 336 182 c 0,12,13
 360 134 360 134 410 124 c 0,14,15
 436 118 436 118 472 118 c 128,-1,16
 508 118 508 118 602 130 c 1,17,-1
 611 -3 l 1,18,19
 508 -20 508 -20 438 -20 c 0,4,5
EndSplineSet
EndChar

StartChar: lessequal
Encoding: 8804 8804 315
Width: 1183
GlyphClass: 2
Flags: W
LayerCount: 2
Fore
SplineSet
1041 383 m 1,0,-1
 1041 232 l 1,1,-1
 131 716 l 1,2,-1
 131 806 l 1,3,-1
 1041 1312 l 1,4,-1
 1041 1162 l 1,5,-1
 285 766 l 1,6,-1
 1041 383 l 1,0,-1
1066 141 m 1,7,-1
 1066 8 l 1,8,-1
 101 8 l 1,9,-1
 101 141 l 1,10,-1
 1066 141 l 1,7,-1
EndSplineSet
EndChar

StartChar: logicalnot
Encoding: 172 172 316
Width: 1225
GlyphClass: 2
Flags: W
LayerCount: 2
Fore
SplineSet
1100 825 m 1,0,-1
 1100 260 l 1,1,-1
 965 260 l 1,2,-1
 965 681 l 1,3,-1
 109 681 l 1,4,-1
 109 825 l 1,5,-1
 1100 825 l 1,0,-1
EndSplineSet
EndChar

StartChar: lozenge
Encoding: 9674 9674 317
Width: 1142
GlyphClass: 2
Flags: W
LayerCount: 2
Fore
SplineSet
565 106 m 1,0,1
 805 546 805 546 923 766 c 1,2,3
 734 1116 734 1116 577 1424 c 1,4,5
 457 1206 457 1206 219 768 c 1,6,7
 252 705 252 705 374 468.5 c 128,-1,8
 496 232 496 232 565 106 c 1,0,1
630 1583 m 1,9,-1
 1055 768 l 1,10,-1
 621 -48 l 1,11,-1
 512 -48 l 1,12,-1
 87 766 l 1,13,-1
 519 1583 l 1,14,-1
 630 1583 l 1,9,-1
EndSplineSet
EndChar

StartChar: lslash
Encoding: 322 322 318
Width: 589
GlyphClass: 2
Flags: W
LayerCount: 2
Fore
SplineSet
487 985 m 1,0,-1
 487 839 l 1,1,-1
 311 703 l 1,2,-1
 311 431 l 2,3,4
 311 268 311 268 317.5 238 c 128,-1,5
 324 208 324 208 331 185.5 c 128,-1,6
 338 163 338 163 348.5 153.5 c 0,7,8
 358 144 358 144 374 134 c 0,9,10
 399 118 399 118 436.5 118 c 128,-1,11
 474 118 474 118 596 128 c 1,12,-1
 611 -8 l 1,13,14
 481 -21 481 -21 431.5 -21 c 128,-1,15
 382 -21 382 -21 343.5 -15.5 c 128,-1,16
 305 -10 305 -10 275 5 c 128,-1,17
 245 20 245 20 224 38 c 128,-1,18
 203 56 203 56 188 88.5 c 128,-1,19
 173 121 173 121 164.5 154 c 0,20,21
 156 188 156 188 151 240 c 0,22,23
 143 324 143 324 143 468 c 2,24,-1
 143 573 l 1,25,-1
 31 486 l 1,26,-1
 31 631 l 1,27,-1
 143 718 l 1,28,-1
 143 1490 l 1,29,-1
 311 1510 l 1,30,-1
 311 848 l 1,31,-1
 487 985 l 1,0,-1
EndSplineSet
EndChar

StartChar: macron
Encoding: 175 175 319
Width: 1062
GlyphClass: 2
Flags: W
LayerCount: 2
Fore
SplineSet
886 1625 m 1,0,-1
 886 1503 l 1,1,-1
 176 1503 l 1,2,-1
 176 1625 l 1,3,-1
 886 1625 l 1,0,-1
EndSplineSet
EndChar

StartChar: periodcentered
Encoding: 183 183 320
Width: 468
GlyphClass: 2
Flags: W
LayerCount: 2
Fore
SplineSet
318 759 m 1,0,-1
 318 561 l 1,1,-1
 150 561 l 1,2,-1
 150 759 l 1,3,-1
 318 759 l 1,0,-1
EndSplineSet
EndChar

StartChar: multiply
Encoding: 215 215 321
Width: 993
GlyphClass: 2
Flags: W
LayerCount: 2
Fore
SplineSet
876 278 m 1,0,-1
 768 181 l 1,1,-1
 496 494 l 1,2,-1
 224 181 l 1,3,-1
 116 278 l 1,4,-1
 401 604 l 1,5,-1
 116 932 l 1,6,-1
 222 1027 l 1,7,-1
 496 713 l 1,8,-1
 770 1027 l 1,9,-1
 876 932 l 1,10,-1
 591 604 l 1,11,-1
 876 278 l 1,0,-1
EndSplineSet
EndChar

StartChar: notequal
Encoding: 8800 8800 325
Width: 1191
GlyphClass: 2
Flags: W
LayerCount: 2
Fore
SplineSet
798 1207 m 1,0,-1
 913 1191 l 1,1,-1
 796 915 l 1,2,-1
 1074 915 l 1,3,-1
 1083 783 l 1,4,-1
 737 783 l 1,5,-1
 581 479 l 1,6,-1
 1076 479 l 1,7,-1
 1083 352 l 1,8,-1
 521 352 l 1,9,-1
 376 48 l 1,10,-1
 263 68 l 1,11,-1
 382 352 l 1,12,-1
 121 352 l 1,13,-1
 114 479 l 1,14,-1
 446 479 l 1,15,-1
 598 783 l 1,16,-1
 121 783 l 1,17,-1
 112 915 l 1,18,-1
 657 915 l 1,19,-1
 798 1207 l 1,0,-1
EndSplineSet
EndChar

StartChar: oe
Encoding: 339 339 327
Width: 1916
GlyphClass: 2
Flags: W
LayerCount: 2
Fore
SplineSet
1099 634 m 1,0,-1
 1672 634 l 1,1,-1
 1672 647 l 1,2,3
 1669 813 1669 813 1597.5 900.5 c 128,-1,4
 1526 988 1526 988 1402.5 988 c 128,-1,5
 1279 988 1279 988 1196 892 c 128,-1,6
 1113 796 1113 796 1099 634 c 1,0,-1
437 148.5 m 128,-1,8
 503 113 503 113 589.5 113 c 128,-1,9
 676 113 676 113 741.5 149 c 0,10,11
 807 184 807 184 845 246 c 0,12,13
 921 369 921 369 921 547 c 0,14,15
 921 732 921 732 847 854 c 0,16,17
 766 986 766 986 587 986 c 0,18,19
 391 986 391 986 304 796 c 0,20,21
 255 689 255 689 255 573.5 c 128,-1,22
 255 458 255 458 274 383 c 128,-1,23
 293 308 293 308 332 246 c 128,-1,7
 371 184 371 184 437 148.5 c 128,-1,8
1834 594 m 1,24,-1
 1832 519 l 1,25,-1
 1093 519 l 1,26,27
 1093 337 1093 337 1188 228 c 128,-1,28
 1283 119 1283 119 1430 119 c 0,29,30
 1535 119 1535 119 1613.5 149 c 128,-1,31
 1692 179 1692 179 1766 229 c 1,32,-1
 1818 107 l 1,33,34
 1664 -25 1664 -25 1425 -25 c 0,35,36
 1281 -25 1281 -25 1172 36 c 128,-1,37
 1063 97 1063 97 1000 211 c 1,38,39
 937 101 937 101 832.5 38 c 128,-1,40
 728 -25 728 -25 577 -25 c 128,-1,41
 426 -25 426 -25 310 53 c 0,42,43
 82 206 82 206 82 547 c 0,44,45
 82 789 82 789 211 953 c 0,46,47
 273 1032 273 1032 371 1078 c 128,-1,48
 469 1124 469 1124 590 1124 c 0,49,50
 878 1124 878 1124 1005 889 c 1,51,52
 1066 995 1066 995 1175 1057.5 c 128,-1,53
 1284 1120 1284 1120 1414 1124 c 1,54,55
 1616 1124 1616 1124 1725 982.5 c 128,-1,56
 1834 841 1834 841 1834 594 c 1,24,-1
EndSplineSet
EndChar

StartChar: ogonek
Encoding: 731 731 328
Width: 590
GlyphClass: 2
Flags: W
LayerCount: 2
Fore
SplineSet
270.5 -277.5 m 128,-1,1
 298 -303 298 -303 343 -303 c 128,-1,2
 388 -303 388 -303 468 -270 c 1,3,-1
 468 -387 l 1,4,5
 392 -419 392 -419 309.5 -419 c 128,-1,6
 227 -419 227 -419 172.5 -372.5 c 128,-1,7
 118 -326 118 -326 118 -243 c 0,8,9
 118 -106 118 -106 309 5 c 1,10,-1
 423 5 l 1,11,12
 243 -128 243 -128 243 -214 c 0,13,0
 243 -252 243 -252 270.5 -277.5 c 128,-1,1
EndSplineSet
EndChar

StartChar: onehalf
Encoding: 189 189 331
Width: 1591
GlyphClass: 2
Flags: W
LayerCount: 2
Fore
SplineSet
245 0 m 1,0,-1
 1165 1547 l 1,1,-1
 1300 1547 l 1,2,-1
 379 0 l 1,3,-1
 245 0 l 1,0,-1
934 -30 m 1,4,-1
 934 63 l 1,5,6
 1157 287 1157 287 1218 355 c 1,7,8
 1366 526 1366 526 1368 604 c 0,9,10
 1368 607 1368 607 1369 610 c 0,11,12
 1369 683 1369 683 1330 721 c 0,13,14
 1290 760 1290 760 1233 760 c 128,-1,15
 1176 760 1176 760 1119 728.5 c 128,-1,16
 1062 697 1062 697 1020 634 c 1,17,-1
 943 699 l 1,18,19
 977 778 977 778 1060 823 c 128,-1,20
 1143 868 1143 868 1245 868 c 128,-1,21
 1347 868 1347 868 1423 806.5 c 128,-1,22
 1499 745 1499 745 1499 629 c 0,23,24
 1499 551 1499 551 1472 499.5 c 128,-1,25
 1445 448 1445 448 1429.5 420.5 c 128,-1,26
 1414 393 1414 393 1376 349.5 c 128,-1,27
 1338 306 1338 306 1318.5 283.5 c 128,-1,28
 1299 261 1299 261 1247 211.5 c 128,-1,29
 1195 162 1195 162 1174.5 143.5 c 128,-1,30
 1154 125 1154 125 1093 69 c 1,31,-1
 1487 69 l 1,32,-1
 1487 -30 l 1,33,-1
 934 -30 l 1,4,-1
135 650 m 1,34,-1
 135 746 l 1,35,-1
 253 746 l 1,36,-1
 253 1409 l 1,37,38
 205 1377 205 1377 122 1334 c 1,39,-1
 122 1436 l 1,40,41
 216 1484 216 1484 271 1539 c 1,42,-1
 368 1538 l 1,43,-1
 368 746 l 1,44,-1
 492 746 l 1,45,-1
 492 650 l 1,46,-1
 135 650 l 1,34,-1
EndSplineSet
EndChar

StartChar: onequarter
Encoding: 188 188 332
Width: 1609
GlyphClass: 2
Flags: W
LayerCount: 2
Fore
SplineSet
122 1334 m 1,0,-1
 122 1436 l 1,1,2
 216 1484 216 1484 271 1539 c 1,3,-1
 368 1538 l 1,4,-1
 368 746 l 1,5,-1
 492 746 l 1,6,-1
 492 650 l 1,7,-1
 135 650 l 1,8,-1
 135 746 l 1,9,-1
 253 746 l 1,10,-1
 253 1409 l 1,11,12
 205 1377 205 1377 122 1334 c 1,0,-1
1420 40 m 1,13,-1
 1313 40 l 1,14,-1
 1313 240 l 1,15,-1
 923 240 l 1,16,-1
 923 339 l 1,17,-1
 1302 899 l 1,18,-1
 1422 899 l 1,19,-1
 1422 358 l 1,20,-1
 1516 358 l 1,21,-1
 1526 240 l 1,22,-1
 1420 240 l 1,23,-1
 1420 40 l 1,13,-1
1165 1547 m 1,24,-1
 1300 1547 l 1,25,-1
 379 0 l 1,26,-1
 245 0 l 1,27,-1
 1165 1547 l 1,24,-1
1066 358 m 1,28,-1
 1312 358 l 1,29,30
 1312 688 1312 688 1313 716 c 1,31,-1
 1066 358 l 1,28,-1
EndSplineSet
EndChar

StartChar: ordfeminine
Encoding: 170 170 333
Width: 807
GlyphClass: 2
Flags: W
LayerCount: 2
Fore
SplineSet
134 741 m 1,0,-1
 679 741 l 1,1,-1
 679 635 l 1,2,-1
 134 635 l 1,3,-1
 134 741 l 1,0,-1
369 937 m 0,4,5
 453 937 453 937 496 1002.5 c 128,-1,6
 539 1068 539 1068 543 1168 c 1,7,-1
 543 1195 l 1,8,9
 528 1193 528 1193 495.5 1190.5 c 128,-1,10
 463 1188 463 1188 444 1186 c 128,-1,11
 425 1184 425 1184 395.5 1179.5 c 128,-1,12
 366 1175 366 1175 348 1169 c 128,-1,13
 330 1163 330 1163 308.5 1152 c 0,14,15
 287 1142 287 1142 275 1128 c 0,16,17
 247 1096 247 1096 247 1048 c 0,18,19
 247 937 247 937 369 937 c 0,4,5
350 826 m 0,20,21
 253 826 253 826 190.5 887.5 c 128,-1,22
 128 949 128 949 128 1050 c 0,23,24
 128 1156 128 1156 204 1212 c 0,25,26
 287 1273 287 1273 543 1289 c 1,27,-1
 543 1307 l 1,28,29
 541 1397 541 1397 513 1435 c 128,-1,30
 485 1473 485 1473 415 1473 c 128,-1,31
 345 1473 345 1473 296 1456.5 c 128,-1,32
 247 1440 247 1440 198 1385 c 1,33,-1
 137 1463 l 1,34,35
 234 1590 234 1590 419 1590 c 0,36,37
 525 1590 525 1590 592.5 1526 c 128,-1,38
 660 1462 660 1462 660 1330 c 2,39,-1
 658 982 l 2,40,41
 658 956 658 956 664 847 c 1,42,-1
 546 847 l 1,43,-1
 543 926 l 1,44,45
 476 826 476 826 350 826 c 0,20,21
EndSplineSet
EndChar

StartChar: ordmasculine
Encoding: 186 186 334
Width: 899
GlyphClass: 2
Flags: W
LayerCount: 2
Fore
SplineSet
308 1396.5 m 128,-1,1
 256 1320 256 1320 256 1205 c 128,-1,2
 256 1090 256 1090 307 1015.5 c 128,-1,3
 358 941 358 941 450.5 941 c 128,-1,4
 543 941 543 941 594 1016.5 c 128,-1,5
 645 1092 645 1092 645 1205.5 c 128,-1,6
 645 1319 645 1319 593 1396 c 128,-1,7
 541 1473 541 1473 450.5 1473 c 128,-1,0
 360 1473 360 1473 308 1396.5 c 128,-1,1
451 1590 m 128,-1,9
 599 1590 599 1590 684 1481 c 128,-1,10
 769 1372 769 1372 769 1206.5 c 128,-1,11
 769 1041 769 1041 684.5 933.5 c 128,-1,12
 600 826 600 826 449.5 826 c 128,-1,13
 299 826 299 826 215 933.5 c 128,-1,14
 131 1041 131 1041 131 1207.5 c 128,-1,15
 131 1374 131 1374 217 1482 c 128,-1,8
 303 1590 303 1590 451 1590 c 128,-1,9
EndSplineSet
EndChar

StartChar: partialdiff
Encoding: 8706 8706 335
Width: 1208
GlyphClass: 2
Flags: W
LayerCount: 2
Fore
SplineSet
917 901 m 1,0,-1
 918 980 l 1,1,2
 918 1227 918 1227 832 1367 c 128,-1,3
 746 1507 746 1507 596.5 1507 c 128,-1,4
 447 1507 447 1507 301 1405 c 1,5,-1
 288 1553 l 1,6,7
 434 1652 434 1652 609 1652 c 0,8,9
 1069 1652 1069 1652 1069 917 c 0,10,11
 1070 620 1070 620 986 384 c 0,12,13
 894 125 894 125 720 26 c 0,14,15
 626 -28 626 -28 517.5 -28 c 128,-1,16
 409 -28 409 -28 332 8.5 c 0,17,18
 256 45 256 45 208 111 c 0,19,20
 114 242 114 242 113.5 434.5 c 128,-1,21
 113 627 113 627 175.5 770 c 128,-1,22
 238 913 238 913 351 995 c 128,-1,23
 464 1077 464 1077 606 1077 c 0,24,25
 811 1077 811 1077 917 901 c 1,0,-1
329 209.5 m 128,-1,27
 397 119 397 119 506.5 119 c 128,-1,28
 616 119 616 119 701 199 c 0,29,30
 870 358 870 358 904 705 c 1,31,32
 876 803 876 803 804.5 869 c 128,-1,33
 733 935 733 935 631 935 c 128,-1,34
 529 935 529 935 443.5 868.5 c 128,-1,35
 358 802 358 802 309.5 690.5 c 128,-1,36
 261 579 261 579 261 439.5 c 128,-1,26
 261 300 261 300 329 209.5 c 128,-1,27
EndSplineSet
EndChar

StartChar: perthousand
Encoding: 8240 8240 336
Width: 2303
GlyphClass: 2
Flags: W
LayerCount: 2
Fore
SplineSet
395 -22 m 1,0,-1
 259 -22 l 1,1,-1
 1115 1547 l 1,2,-1
 1272 1547 l 1,3,-1
 395 -22 l 1,0,-1
530.5 1366 m 128,-1,5
 487 1438 487 1438 405 1438 c 128,-1,6
 323 1438 323 1438 280 1364.5 c 128,-1,7
 237 1291 237 1291 237 1177.5 c 128,-1,8
 237 1064 237 1064 280.5 991.5 c 128,-1,9
 324 919 324 919 406 919 c 128,-1,10
 488 919 488 919 531 993 c 128,-1,11
 574 1067 574 1067 574 1180.5 c 128,-1,4
 574 1294 574 1294 530.5 1366 c 128,-1,5
1254.5 539.5 m 128,-1,13
 1204 610 1204 610 1107 610 c 128,-1,14
 1010 610 1010 610 959 537.5 c 128,-1,15
 908 465 908 465 908 352 c 128,-1,16
 908 239 908 239 959.5 166 c 128,-1,17
 1011 93 1011 93 1106.5 93 c 128,-1,18
 1202 93 1202 93 1253.5 168.5 c 128,-1,19
 1305 244 1305 244 1305 356.5 c 128,-1,12
 1305 469 1305 469 1254.5 539.5 c 128,-1,13
1349 76.5 m 128,-1,21
 1264 -30 1264 -30 1103.5 -30 c 128,-1,22
 943 -30 943 -30 860 73 c 128,-1,23
 777 176 777 176 777 350.5 c 128,-1,24
 777 525 777 525 861 630 c 128,-1,25
 945 735 945 735 1107.5 735 c 128,-1,26
 1270 735 1270 735 1352 633.5 c 128,-1,27
 1434 532 1434 532 1434 357.5 c 128,-1,20
 1434 183 1434 183 1349 76.5 c 128,-1,21
622 902.5 m 128,-1,29
 542 796 542 796 403 796 c 128,-1,30
 264 796 264 796 186 900 c 128,-1,31
 108 1004 108 1004 108 1176.5 c 128,-1,32
 108 1349 108 1349 186.5 1454 c 128,-1,33
 265 1559 265 1559 407 1559 c 128,-1,34
 549 1559 549 1559 625.5 1457 c 128,-1,35
 702 1355 702 1355 702 1182 c 128,-1,28
 702 1009 702 1009 622 902.5 c 128,-1,29
2121.5 76.5 m 128,-1,37
 2036 -30 2036 -30 1876.5 -30 c 128,-1,38
 1717 -30 1717 -30 1633.5 73 c 128,-1,39
 1550 176 1550 176 1550 350.5 c 128,-1,40
 1550 525 1550 525 1635 630 c 128,-1,41
 1720 735 1720 735 1881.5 735 c 128,-1,42
 2043 735 2043 735 2125 634 c 128,-1,43
 2207 533 2207 533 2207 358 c 128,-1,36
 2207 183 2207 183 2121.5 76.5 c 128,-1,37
2028 538 m 128,-1,45
 1975 610 1975 610 1878.5 610 c 128,-1,46
 1782 610 1782 610 1729.5 537.5 c 128,-1,47
 1677 465 1677 465 1677 351.5 c 128,-1,48
 1677 238 1677 238 1729.5 165.5 c 128,-1,49
 1782 93 1782 93 1879 93 c 128,-1,50
 1976 93 1976 93 2028.5 168 c 128,-1,51
 2081 243 2081 243 2081 354.5 c 128,-1,44
 2081 466 2081 466 2028 538 c 128,-1,45
EndSplineSet
EndChar

StartChar: pi
Encoding: 960 960 337
Width: 1456
GlyphClass: 2
Flags: W
LayerCount: 2
Fore
SplineSet
1296 1120 m 1,0,-1
 1296 976 l 1,1,-1
 1114 976 l 1,2,-1
 1114 312 l 2,3,4
 1114 224 1114 224 1128.5 201.5 c 128,-1,5
 1143 179 1143 179 1160 168.5 c 128,-1,6
 1177 158 1177 158 1202 158 c 128,-1,7
 1227 158 1227 158 1278 172 c 1,8,-1
 1278 6 l 1,9,10
 1199 -8 1199 -8 1160 -8 c 0,11,12
 1057 -8 1057 -8 1016.5 62 c 128,-1,13
 976 132 976 132 976 301 c 2,14,-1
 976 976 l 1,15,-1
 570 976 l 1,16,17
 539 176 539 176 446 0 c 1,18,-1
 298 0 l 1,19,20
 401 221 401 221 420 976 c 1,21,22
 268 972 268 972 176 911 c 1,23,-1
 160 1053 l 1,24,25
 202 1093 202 1093 272.5 1106.5 c 128,-1,26
 343 1120 343 1120 470 1120 c 2,27,-1
 1296 1120 l 1,0,-1
EndSplineSet
EndChar

StartChar: plusminus
Encoding: 177 177 338
Width: 1202
GlyphClass: 2
Flags: W
LayerCount: 2
Fore
SplineSet
118 0 m 1,0,-1
 118 143 l 1,1,-1
 1088 143 l 1,2,-1
 1088 0 l 1,3,-1
 118 0 l 1,0,-1
668 790 m 1,4,-1
 1086 790 l 1,5,-1
 1086 647 l 1,6,-1
 670 647 l 1,7,-1
 670 233 l 1,8,-1
 533 233 l 1,9,-1
 533 647 l 1,10,-1
 118 647 l 1,11,-1
 118 790 l 1,12,-1
 532 790 l 1,13,-1
 532 1206 l 1,14,-1
 668 1206 l 1,15,-1
 668 790 l 1,4,-1
EndSplineSet
EndChar

StartChar: product
Encoding: 8719 8719 339
Width: 1463
GlyphClass: 2
Flags: W
LayerCount: 2
Fore
SplineSet
1139 1342 m 1,0,-1
 324 1342 l 1,1,-1
 324 0 l 1,2,-1
 147 0 l 1,3,-1
 147 1496 l 1,4,-1
 1316 1496 l 1,5,-1
 1316 0 l 1,6,-1
 1139 0 l 1,7,-1
 1139 1342 l 1,0,-1
EndSplineSet
EndChar

StartChar: quotedblbase
Encoding: 8222 8222 341
Width: 819
GlyphClass: 2
Flags: W
LayerCount: 2
Fore
SplineSet
126 -256 m 1,0,-1
 216 216 l 1,1,-1
 377 216 l 1,2,-1
 244 -256 l 1,3,-1
 126 -256 l 1,0,-1
441 -256 m 1,4,-1
 532 216 l 1,5,-1
 694 216 l 1,6,-1
 559 -256 l 1,7,-1
 441 -256 l 1,4,-1
EndSplineSet
EndChar

StartChar: quotedblleft
Encoding: 8220 8220 342
Width: 818
GlyphClass: 2
Flags: W
LayerCount: 2
Fore
SplineSet
438 1102 m 1,0,-1
 573 1574 l 1,1,-1
 690 1574 l 1,2,-1
 600 1102 l 1,3,-1
 438 1102 l 1,0,-1
129 1102 m 1,4,-1
 263 1574 l 1,5,-1
 383 1574 l 1,6,-1
 289 1102 l 1,7,-1
 129 1102 l 1,4,-1
EndSplineSet
EndChar

StartChar: quotedblright
Encoding: 8221 8221 343
Width: 795
GlyphClass: 2
Flags: W
LayerCount: 2
Fore
SplineSet
133 1102 m 1,0,-1
 226 1574 l 1,1,-1
 385 1574 l 1,2,-1
 250 1102 l 1,3,-1
 133 1102 l 1,0,-1
420 1102 m 1,4,-1
 511 1574 l 1,5,-1
 674 1574 l 1,6,-1
 537 1102 l 1,7,-1
 420 1102 l 1,4,-1
EndSplineSet
EndChar

StartChar: quoteleft
Encoding: 8216 8216 344
Width: 510
GlyphClass: 2
Flags: W
LayerCount: 2
Fore
SplineSet
129 1102 m 1,0,-1
 265 1574 l 1,1,-1
 382 1574 l 1,2,-1
 291 1102 l 1,3,-1
 129 1102 l 1,0,-1
EndSplineSet
EndChar

StartChar: quoteright
Encoding: 8217 8217 345
Width: 504
GlyphClass: 2
Flags: W
LayerCount: 2
Fore
SplineSet
249 1102 m 1,0,-1
 133 1102 l 1,1,-1
 226 1574 l 1,2,-1
 383 1574 l 1,3,-1
 249 1102 l 1,0,-1
EndSplineSet
EndChar

StartChar: quotesinglbase
Encoding: 8218 8218 346
Width: 504
GlyphClass: 2
Flags: W
LayerCount: 2
Fore
SplineSet
126 -256 m 1,0,-1
 218 216 l 1,1,-1
 379 216 l 1,2,-1
 245 -256 l 1,3,-1
 126 -256 l 1,0,-1
EndSplineSet
EndChar

StartChar: radical
Encoding: 8730 8730 348
Width: 1216
GlyphClass: 2
Flags: W
LayerCount: 2
Fore
SplineSet
1035 1718 m 1,0,-1
 1148 1718 l 1,1,-1
 708 -166 l 1,2,-1
 569 -166 l 1,3,-1
 236 743 l 1,4,-1
 84 712 l 1,5,-1
 68 833 l 1,6,-1
 328 889 l 1,7,-1
 569 230 l 1,8,-1
 628 44 l 1,9,10
 763 602 763 602 1035 1718 c 1,0,-1
EndSplineSet
EndChar

StartChar: ring
Encoding: 730 730 351
Width: 634
GlyphClass: 2
Flags: W
LayerCount: 2
Fore
SplineSet
182.5 1308 m 128,-1,1
 125 1359 125 1359 125 1441.5 c 128,-1,2
 125 1524 125 1524 182.5 1575 c 128,-1,3
 240 1626 240 1626 319.5 1626 c 128,-1,4
 399 1626 399 1626 456.5 1575 c 128,-1,5
 514 1524 514 1524 514 1441.5 c 128,-1,6
 514 1359 514 1359 456.5 1308 c 128,-1,7
 399 1257 399 1257 319.5 1257 c 128,-1,0
 240 1257 240 1257 182.5 1308 c 128,-1,1
390.5 1361 m 128,-1,9
 416 1392 416 1392 416 1439 c 128,-1,10
 416 1486 416 1486 390.5 1519.5 c 128,-1,11
 365 1553 365 1553 318.5 1553 c 128,-1,12
 272 1553 272 1553 246.5 1521.5 c 128,-1,13
 221 1490 221 1490 221 1439 c 128,-1,14
 221 1388 221 1388 246.5 1359 c 128,-1,15
 272 1330 272 1330 318.5 1330 c 128,-1,8
 365 1330 365 1330 390.5 1361 c 128,-1,9
EndSplineSet
EndChar

StartChar: summation
Encoding: 8721 8721 357
Width: 1286
GlyphClass: 2
Flags: W
LayerCount: 2
Fore
SplineSet
1203 -195 m 1,0,-1
 1203 -356 l 1,1,-1
 82 -356 l 1,2,-1
 82 -257 l 1,3,-1
 702 596 l 1,4,-1
 104 1430 l 1,5,-1
 104 1532 l 1,6,-1
 1163 1532 l 1,7,-1
 1163 1379 l 1,8,-1
 317 1379 l 1,9,-1
 913 604 l 1,10,-1
 292 -195 l 1,11,-1
 1203 -195 l 1,0,-1
EndSplineSet
EndChar

StartChar: thorn
Encoding: 254 254 360
Width: 1205
GlyphClass: 2
Flags: W
LayerCount: 2
Fore
SplineSet
292 162 m 1,0,-1
 292 -459 l 1,1,-1
 124 -459 l 1,2,-1
 124 1510 l 1,3,-1
 292 1510 l 1,4,-1
 292 933 l 1,5,6
 421 1124 421 1124 643 1124 c 1,7,8
 778 1123 778 1123 882.5 1048.5 c 128,-1,9
 987 974 987 974 1043 846.5 c 128,-1,10
 1099 719 1099 719 1099 560 c 0,11,12
 1099 268 1099 268 937 97 c 0,13,14
 822 -25 822 -25 643 -25 c 1,15,16
 402 -25 402 -25 292 162 c 1,0,-1
471.5 148.5 m 128,-1,18
 537 113 537 113 614 113 c 128,-1,19
 691 113 691 113 745 140.5 c 128,-1,20
 799 168 799 168 832 212 c 128,-1,21
 865 256 865 256 887 315 c 0,22,23
 926 420 926 420 926 524.5 c 128,-1,24
 926 629 926 629 911.5 701 c 128,-1,25
 897 773 897 773 865 839.5 c 128,-1,26
 833 906 833 906 773 946 c 128,-1,27
 713 986 713 986 617.5 986 c 128,-1,28
 522 986 522 986 443 924 c 0,29,30
 290 805 290 805 290 551 c 0,31,32
 290 368 290 368 367 246 c 0,33,17
 406 184 406 184 471.5 148.5 c 128,-1,18
EndSplineSet
EndChar

StartChar: threequarters
Encoding: 190 190 361
Width: 1630
GlyphClass: 2
Flags: W
LayerCount: 2
Fore
SplineSet
1085 361 m 1,0,-1
 1331 361 l 1,1,2
 1331 664 1331 664 1334 721 c 1,3,-1
 1085 361 l 1,0,-1
331 0 m 1,4,-1
 1249 1547 l 1,5,-1
 1393 1547 l 1,6,-1
 465 0 l 1,7,-1
 331 0 l 1,4,-1
1334 44 m 1,8,-1
 1334 245 l 1,9,-1
 942 245 l 1,10,-1
 942 343 l 1,11,-1
 1321 903 l 1,12,-1
 1442 903 l 1,13,-1
 1442 361 l 1,14,-1
 1538 361 l 1,15,-1
 1546 245 l 1,16,-1
 1441 245 l 1,17,-1
 1441 44 l 1,18,-1
 1334 44 l 1,8,-1
534 705.5 m 128,-1,20
 448 631 448 631 325.5 631 c 128,-1,21
 203 631 203 631 116 735 c 1,22,-1
 168 838 l 1,23,24
 245 753 245 753 319 753 c 128,-1,25
 393 753 393 753 438.5 794.5 c 128,-1,26
 484 836 484 836 484 903 c 0,27,28
 484 1046 484 1046 293 1046 c 2,29,-1
 244 1046 l 1,30,-1
 244 1174 l 1,31,-1
 288 1174 l 2,32,33
 462 1174 462 1174 462 1303 c 0,34,35
 462 1364 462 1364 428 1394 c 128,-1,36
 394 1424 394 1424 337 1424 c 0,37,38
 251 1424 251 1424 166 1339 c 1,39,-1
 116 1442 l 1,40,41
 158 1492 158 1492 217 1522.5 c 128,-1,42
 276 1553 276 1553 338 1553 c 0,43,44
 438 1553 438 1553 519 1484.5 c 128,-1,45
 600 1416 600 1416 600 1295.5 c 128,-1,46
 600 1175 600 1175 487 1112 c 1,47,48
 620 1049 620 1049 620 899 c 0,49,19
 620 780 620 780 534 705.5 c 128,-1,20
EndSplineSet
EndChar

StartChar: tilde
Encoding: 732 732 362
Width: 885
GlyphClass: 2
Flags: W
LayerCount: 2
Fore
SplineSet
277 1388 m 1,0,1
 226 1386 226 1386 222 1291 c 1,2,-1
 115 1291 l 1,3,4
 115 1401 115 1401 160 1455.5 c 0,5,6
 206 1510 206 1510 274 1510 c 0,7,8
 396 1510 396 1510 536 1440 c 1,9,-1
 582 1416 l 1,10,11
 616 1418 616 1418 624 1466 c 0,12,13
 626 1482 626 1482 629 1510 c 1,14,-1
 738 1510 l 1,15,16
 738 1291 738 1291 589 1291 c 0,17,18
 511 1291 511 1291 335 1364 c 2,19,-1
 277 1388 l 1,0,1
EndSplineSet
EndChar

StartChar: trademark
Encoding: 8482 8482 363
Width: 1812
GlyphClass: 2
Flags: W
LayerCount: 2
Fore
SplineSet
849 1496 m 1,0,-1
 1006 1496 l 1,1,-1
 1274 824 l 1,2,-1
 1555 1496 l 1,3,-1
 1704 1496 l 1,4,-1
 1704 609 l 1,5,-1
 1590 609 l 1,6,-1
 1590 1349 l 1,7,-1
 1310 680 l 1,8,-1
 1224 680 l 1,9,-1
 960 1349 l 1,10,-1
 960 609 l 1,11,-1
 849 609 l 1,12,-1
 849 1496 l 1,0,-1
90 1496 m 1,13,-1
 727 1496 l 1,14,-1
 727 1394 l 1,15,-1
 463 1394 l 1,16,-1
 463 609 l 1,17,-1
 349 609 l 1,18,-1
 349 1394 l 1,19,-1
 90 1394 l 1,20,-1
 90 1496 l 1,13,-1
EndSplineSet
EndChar

StartChar: uni00B2
Encoding: 178 178 367
Width: 763
GlyphClass: 2
Flags: W
LayerCount: 2
Fore
SplineSet
615 650 m 1,0,-1
 134 650 l 1,1,-1
 134 769 l 1,2,3
 209 854 209 854 238 886.5 c 128,-1,4
 267 919 267 919 323 985.5 c 128,-1,5
 379 1052 379 1052 401.5 1084 c 128,-1,6
 424 1116 424 1116 454 1162 c 0,7,8
 504 1241 504 1241 504 1299.5 c 128,-1,9
 504 1358 504 1358 471 1391 c 128,-1,10
 438 1424 438 1424 380 1424 c 0,11,12
 273 1424 273 1424 217 1282 c 1,13,-1
 143 1367 l 1,14,15
 173 1454 173 1454 237.5 1502.5 c 128,-1,16
 302 1551 302 1551 394.5 1551 c 128,-1,17
 487 1551 487 1551 552 1483 c 128,-1,18
 617 1415 617 1415 617 1305 c 0,19,20
 618 1157 618 1157 486 990 c 0,21,22
 420 906 420 906 297 778 c 1,23,-1
 615 778 l 1,24,-1
 615 650 l 1,0,-1
EndSplineSet
EndChar

StartChar: uni00B3
Encoding: 179 179 368
Width: 756
GlyphClass: 2
Flags: W
LayerCount: 2
Fore
SplineSet
478 1303 m 0,0,1
 478 1424 478 1424 340 1424 c 0,2,3
 270 1424 270 1424 185 1339 c 1,4,-1
 132 1442 l 1,5,6
 174 1492 174 1492 233 1522.5 c 128,-1,7
 292 1553 292 1553 354 1553 c 0,8,9
 451 1553 451 1553 522 1485 c 128,-1,10
 593 1417 593 1417 593 1295.5 c 128,-1,11
 593 1174 593 1174 498 1112 c 1,12,13
 613 1048 613 1048 613 899 c 0,14,15
 613 778 613 778 537 704.5 c 128,-1,16
 461 631 461 631 340 631 c 128,-1,17
 219 631 219 631 132 735 c 1,18,-1
 187 838 l 1,19,20
 264 753 264 753 337.5 753 c 128,-1,21
 411 753 411 753 454.5 794.5 c 128,-1,22
 498 836 498 836 498 908 c 0,23,24
 498 1046 498 1046 308 1046 c 2,25,-1
 260 1046 l 1,26,-1
 260 1174 l 1,27,-1
 304 1174 l 2,28,29
 478 1174 478 1174 478 1303 c 0,0,1
EndSplineSet
EndChar

StartChar: uni00B9
Encoding: 185 185 369
Width: 601
GlyphClass: 2
Flags: W
LayerCount: 2
Fore
SplineSet
122 1334 m 1,0,-1
 122 1436 l 1,1,2
 216 1484 216 1484 271 1539 c 1,3,-1
 368 1538 l 1,4,-1
 368 746 l 1,5,-1
 492 746 l 1,6,-1
 492 650 l 1,7,-1
 135 650 l 1,8,-1
 135 746 l 1,9,-1
 253 746 l 1,10,-1
 253 1409 l 1,11,12
 205 1377 205 1377 122 1334 c 1,0,-1
EndSplineSet
EndChar

StartChar: uni0237
Encoding: 567 567 408
Width: 444
GlyphClass: 2
Flags: W
LayerCount: 2
Fore
SplineSet
330 1098 m 1,0,-1
 330 -139 l 2,1,2
 330 -245 330 -245 316.5 -310 c 128,-1,3
 303 -375 303 -375 265.5 -420.5 c 128,-1,4
 228 -466 228 -466 164 -484 c 128,-1,5
 100 -502 100 -502 -3 -502 c 2,6,-1
 -55 -502 l 1,7,-1
 -77 -351 l 1,8,-1
 -25 -351 l 2,9,10
 93 -351 93 -351 125 -312 c 0,11,12
 152 -279 152 -279 156 -244 c 0,13,14
 162 -192 162 -192 162 -121 c 2,15,-1
 162 1098 l 1,16,-1
 330 1098 l 1,0,-1
EndSplineSet
EndChar

StartChar: uni0307
Encoding: 775 775 409
Width: 411
GlyphClass: 2
Flags: W
LayerCount: 2
Fore
SplineSet
290 1496 m 1,0,-1
 290 1298 l 1,1,-1
 122 1298 l 1,2,-1
 122 1496 l 1,3,-1
 290 1496 l 1,0,-1
EndSplineSet
EndChar

StartChar: uni030F
Encoding: 783 783 410
Width: 855
GlyphClass: 2
Flags: W
LayerCount: 2
Fore
SplineSet
359 1259 m 1,0,-1
 109 1594 l 1,1,-1
 259 1594 l 1,2,-1
 461 1259 l 1,3,-1
 359 1259 l 1,0,-1
627 1259 m 1,4,-1
 380 1594 l 1,5,-1
 531 1594 l 1,6,-1
 729 1259 l 1,7,-1
 627 1259 l 1,4,-1
EndSplineSet
EndChar

StartChar: uni0311
Encoding: 785 785 411
Width: 767
GlyphClass: 2
Flags: W
LayerCount: 2
Fore
SplineSet
208.5 1489 m 128,-1,1
 283 1557 283 1557 383.5 1557 c 128,-1,2
 484 1557 484 1557 560 1488.5 c 128,-1,3
 636 1420 636 1420 636 1299 c 1,4,-1
 519 1299 l 1,5,6
 519 1368 519 1368 480 1404 c 128,-1,7
 441 1440 441 1440 383 1440 c 128,-1,8
 325 1440 325 1440 287.5 1404 c 128,-1,9
 250 1368 250 1368 250 1299 c 1,10,-1
 134 1299 l 1,11,0
 134 1421 134 1421 208.5 1489 c 128,-1,1
EndSplineSet
EndChar

StartChar: uni2074
Encoding: 8308 8308 412
Width: 756
GlyphClass: 2
Flags: W
LayerCount: 2
Fore
SplineSet
213 978 m 1,0,-1
 422 978 l 1,1,2
 422 1311 422 1311 423 1339 c 1,3,-1
 213 978 l 1,0,-1
530 661 m 1,4,-1
 423 661 l 1,5,-1
 423 865 l 1,6,-1
 92 865 l 1,7,-1
 92 964 l 1,8,-1
 413 1519 l 1,9,-1
 532 1519 l 1,10,-1
 532 978 l 1,11,-1
 626 978 l 1,12,-1
 636 865 l 1,13,-1
 530 865 l 1,14,-1
 530 661 l 1,4,-1
EndSplineSet
EndChar

StartChar: uni2206
Encoding: 8710 8710 413
Width: 1339
GlyphClass: 2
Flags: W
LayerCount: 2
Fore
SplineSet
284 174 m 1,0,-1
 1062 174 l 1,1,-1
 704 1195 l 1,2,-1
 668 1312 l 1,3,-1
 636 1195 l 1,4,-1
 284 174 l 1,0,-1
1263 86 m 1,5,-1
 1263 0 l 1,6,-1
 83 0 l 1,7,-1
 83 86 l 1,8,-1
 578 1541 l 1,9,-1
 768 1541 l 1,10,-1
 1263 86 l 1,5,-1
EndSplineSet
EndChar

StartChar: uniFB01
Encoding: 64257 64257 414
Width: 1088
GlyphClass: 3
Flags: W
LayerCount: 2
Fore
SplineSet
181 0 m 1,0,-1
 181 980 l 1,1,-1
 20 980 l 1,2,-1
 20 1098 l 1,3,-1
 181 1098 l 1,4,-1
 181 1138 l 1,5,6
 184 1259 184 1259 202.5 1334.5 c 128,-1,7
 221 1410 221 1410 265 1456 c 128,-1,8
 309 1502 309 1502 373 1519 c 128,-1,9
 437 1536 437 1536 539 1536 c 2,10,-1
 612 1536 l 1,11,-1
 632 1408 l 1,12,-1
 538 1408 l 2,13,14
 426 1408 426 1408 392 1365 c 0,15,16
 364 1330 364 1330 358 1288 c 0,17,18
 349 1225 349 1225 349 1136 c 2,19,-1
 349 1098 l 1,20,-1
 956 1098 l 1,21,-1
 956 0 l 1,22,-1
 788 0 l 1,23,-1
 788 980 l 1,24,-1
 349 980 l 1,25,-1
 349 0 l 1,26,-1
 181 0 l 1,0,-1
788 1496 m 1,27,-1
 956 1496 l 1,28,-1
 956 1298 l 1,29,-1
 788 1298 l 1,30,-1
 788 1496 l 1,27,-1
EndSplineSet
Ligature2: "'liga' Standard Ligatures lookup 0 subtable" f i
EndChar

StartChar: uniFB02
Encoding: 64258 64258 415
Width: 1237
GlyphClass: 3
Flags: W
LayerCount: 2
Fore
SplineSet
350 1135 m 2,0,-1
 349 1098 l 1,1,-1
 598 1098 l 1,2,-1
 598 980 l 1,3,-1
 349 980 l 1,4,-1
 349 0 l 1,5,-1
 181 0 l 1,6,-1
 181 980 l 1,7,-1
 20 980 l 1,8,-1
 20 1098 l 1,9,-1
 181 1098 l 1,10,-1
 181 1128 l 1,11,12
 187 1348 187 1348 284 1433 c 0,13,14
 374 1512 374 1512 550 1512 c 0,15,16
 590 1512 590 1512 976 1490 c 1,17,-1
 976 450 l 2,18,19
 976 251 976 251 1000 189.5 c 128,-1,20
 1024 128 1024 128 1134 128 c 0,21,22
 1155 128 1155 128 1207 132 c 1,23,-1
 1218 1 l 1,24,25
 1103 -12 1103 -12 1078 -12 c 128,-1,26
 1053 -12 1053 -12 1020 -8.5 c 128,-1,27
 987 -5 987 -5 960 5 c 128,-1,28
 933 15 933 15 912.5 26.5 c 128,-1,29
 892 38 892 38 876 59.5 c 128,-1,30
 860 81 860 81 849 101 c 128,-1,31
 838 121 838 121 830.5 154.5 c 128,-1,32
 823 188 823 188 818.5 218 c 128,-1,33
 814 248 814 248 812 296 c 0,34,35
 808 362 808 362 808 487 c 2,36,-1
 808 1376 l 1,37,38
 705 1383 705 1383 575 1383 c 128,-1,39
 445 1383 445 1383 399.5 1329 c 128,-1,40
 354 1275 354 1275 350 1135 c 2,0,-1
EndSplineSet
Ligature2: "'liga' Standard Ligatures lookup 0 subtable" f l
EndChar

StartChar: yen
Encoding: 165 165 419
Width: 1135
GlyphClass: 2
Flags: W
LayerCount: 2
Fore
SplineSet
567 805 m 1,0,-1
 936 1479 l 1,1,-1
 1108 1479 l 1,2,-1
 685 729 l 1,3,-1
 991 729 l 1,4,-1
 991 605 l 1,5,-1
 645 605 l 1,6,-1
 645 423 l 1,7,-1
 992 423 l 1,8,-1
 992 299 l 1,9,-1
 645 299 l 1,10,-1
 645 0 l 1,11,-1
 487 0 l 1,12,-1
 487 299 l 1,13,-1
 134 299 l 1,14,-1
 134 423 l 1,15,-1
 487 423 l 1,16,-1
 487 605 l 1,17,-1
 135 605 l 1,18,-1
 135 729 l 1,19,-1
 439 729 l 1,20,-1
 25 1479 l 1,21,-1
 203 1479 l 1,22,-1
 567 805 l 1,0,-1
EndSplineSet
EndChar

StartChar: ff
Encoding: 64256 64256 423
Width: 1321
GlyphClass: 3
Flags: W
LayerCount: 2
Fore
SplineSet
1212 1416 m 0,0,1
 1108 1416 1108 1416 1069.5 1356 c 128,-1,2
 1031 1296 1031 1296 1031 1148 c 2,3,-1
 1031 1097 l 1,4,-1
 1295 1097 l 1,5,-1
 1295 973 l 1,6,-1
 1031 973 l 1,7,-1
 1031 0 l 1,8,-1
 864 0 l 1,9,-1
 864 973 l 1,10,-1
 379 973 l 1,11,-1
 379 0 l 1,12,-1
 212 0 l 1,13,-1
 212 973 l 1,14,-1
 34 973 l 1,15,-1
 48 1083 l 1,16,-1
 212 1097 l 1,17,-1
 212 1146 l 1,18,19
 214 1358 214 1358 291.5 1453.5 c 128,-1,20
 369 1549 369 1549 542 1549 c 0,21,22
 609 1549 609 1549 706 1534 c 1,23,-1
 695 1403 l 1,24,25
 606 1416 606 1416 560 1416 c 0,26,27
 456 1416 456 1416 417.5 1356 c 128,-1,28
 379 1296 379 1296 379 1148 c 2,29,-1
 379 1097 l 1,30,-1
 864 1097 l 1,31,-1
 864 1146 l 1,32,33
 866 1358 866 1358 943.5 1453.5 c 128,-1,34
 1021 1549 1021 1549 1194 1549 c 0,35,36
 1261 1549 1261 1549 1358 1534 c 1,37,-1
 1347 1403 l 1,38,39
 1258 1416 1258 1416 1212 1416 c 0,0,1
EndSplineSet
Ligature2: "'liga' Standard Ligatures lookup 0 subtable" f f
EndChar

StartChar: f_j
Encoding: 65539 -1 424
Width: 1196
GlyphClass: 3
Flags: W
LayerCount: 2
Fore
SplineSet
1081 1496 m 1,0,-1
 1081 1298 l 1,1,-1
 913 1298 l 1,2,-1
 913 1496 l 1,3,-1
 1081 1496 l 1,0,-1
1081 1097 m 1,4,-1
 1081 -139 l 2,5,6
 1081 -245 1081 -245 1067.5 -310 c 128,-1,7
 1054 -375 1054 -375 1016.5 -420.5 c 128,-1,8
 979 -466 979 -466 915 -484 c 128,-1,9
 851 -502 851 -502 748 -502 c 2,10,-1
 696 -502 l 1,11,-1
 674 -351 l 1,12,-1
 726 -351 l 2,13,14
 844 -351 844 -351 876 -312 c 0,15,16
 903 -279 903 -279 907 -244 c 0,17,18
 913 -192 913 -192 913 -121 c 2,19,-1
 913 973 l 1,20,-1
 380 973 l 1,21,-1
 380 0 l 1,22,-1
 212 0 l 1,23,-1
 212 973 l 1,24,-1
 34 973 l 1,25,-1
 48 1083 l 1,26,-1
 212 1097 l 1,27,-1
 212 1146 l 1,28,29
 214 1358 214 1358 292 1454 c 128,-1,30
 370 1550 370 1550 543 1550 c 0,31,32
 603 1550 603 1550 706 1534 c 1,33,-1
 696 1403 l 1,34,35
 607 1416 607 1416 561 1416 c 0,36,37
 457 1416 457 1416 418.5 1356 c 128,-1,38
 380 1296 380 1296 380 1148 c 2,39,-1
 380 1097 l 1,40,-1
 1081 1097 l 1,4,-1
EndSplineSet
Ligature2: "'liga' Standard Ligatures lookup 0 subtable" f j
EndChar

StartChar: commaaccentcomb
Encoding: 65541 -1 426
Width: 554
GlyphClass: 2
Flags: W
LayerCount: 2
Fore
SplineSet
144 -648 m 1,0,-1
 239 -150 l 1,1,-1
 404 -150 l 1,2,-1
 260 -648 l 1,3,-1
 144 -648 l 1,0,-1
274 0 m 0,4,-1
EndSplineSet
EndChar

StartChar: middot
Encoding: 65542 -1 427
Width: 468
GlyphClass: 2
Flags: W
LayerCount: 2
Fore
SplineSet
318 759 m 1,0,-1
 318 561 l 1,1,-1
 150 561 l 1,2,-1
 150 759 l 1,3,-1
 318 759 l 1,0,-1
EndSplineSet
EndChar

